<?xml version="1.0" encoding="utf-8"?>
<!-- Generator: Adobe Illustrator 23.0.2, SVG Export Plug-In . SVG Version: 6.00 Build 0)  -->
<svg version="1.1" id="Layer_1" xmlns="http://www.w3.org/2000/svg" xmlns:xlink="http://www.w3.org/1999/xlink" x="0px" y="0px"
	 viewBox="0 0 155.7 35.4" style="enable-background:new 0 0 155.7 35.4;" xml:space="preserve">
<style type="text/css">
	.st0{fill:none;}
	.st1{fill:#68193D;}
	.st2{fill:#A5285B;}
	.st3{fill:#D1316B;}
	.st4{fill:url(#SVGID_1_);}
	.st5{fill:url(#SVGID_2_);}
	.st6{fill:url(#SVGID_3_);}
	.st7{fill:url(#SVGID_4_);}
	.st8{fill:url(#SVGID_5_);}
	.st9{fill:url(#SVGID_6_);}
	.st10{fill:url(#SVGID_7_);}
	.st11{fill:url(#SVGID_8_);}
	.st12{fill:url(#SVGID_9_);}
	.st13{fill:url(#SVGID_10_);}
	.st14{fill:url(#SVGID_11_);}
	.st15{fill:url(#SVGID_12_);}
</style>
<g>
	<path class="st0" d="M-45.4,67.4"/>
</g>
<g>
	<g>
		<g>
			<path class="st1" d="M11.3,6.2c3.1,0,5.8,1.1,8,3.3c2.2,2.2,3.3,4.9,3.3,8c0,3.1-1.1,5.8-3.3,8c-2.2,2.2-4.9,3.3-8,3.3H0V6.2
				H11.3z M6.5,22.4h4.9c1.3,0,2.5-0.5,3.4-1.4c0.9-0.9,1.4-2.1,1.4-3.4c0-1.3-0.5-2.5-1.4-3.4c-1-0.9-2.1-1.4-3.4-1.4H6.5V22.4z"/>
		</g>
		<g>
			<path class="st1" d="M30.8,14.3h9.7v6.5h-9.7v1.6h9.7v6.5H24.3V6.2h16.2v6.5h-9.7V14.3z"/>
		</g>
		<g>
			<path class="st1" d="M64.8,35.4l-6.5-6.5l-3.2-3.2l-6.5-6.5v9.7h-6.5V3l6.5,6.5l6.5,6.5l3.2,3.2V3l6.5,6.5l6.5,6.5l6.5,6.5
				l6.5,6.5h-9.7l-3.2-3.2l-6.5-6.5V35.4z"/>
		</g>
		<g>
			<path class="st1" d="M98.8,9.6c2.2,2.2,3.3,4.9,3.3,8c0,3.1-1.1,5.8-3.3,8c-2.2,2.2-4.9,3.3-8,3.3c-3.1,0-5.8-1.1-8-3.3
				c-2.2-2.2-3.3-4.9-3.3-8c0-3.1,1.1-5.8,3.3-8c2.2-2.2,4.9-3.3,8-3.3C93.9,6.2,96.6,7.3,98.8,9.6z M90.8,12.7
				c-1.3,0-2.5,0.5-3.4,1.4c-1,1-1.4,2.1-1.4,3.4c0,1.3,0.5,2.5,1.4,3.4c0.9,1,2.1,1.4,3.4,1.4c1.3,0,2.5-0.5,3.4-1.4
				c0.9-0.9,1.4-2.1,1.4-3.4c0-1.3-0.5-2.5-1.4-3.4C93.3,13.2,92.1,12.7,90.8,12.7z"/>
		</g>
		<g>
			<path class="st1" d="M128.1,17.9v-0.4h6.5v11.3l-6.5,6.5v-7.5c-1.5,0.7-3.1,1.1-4.9,1.1c-3.1,0-5.8-1.1-8-3.3
				c-2.2-2.2-3.3-4.9-3.3-8c0-3.1,1.1-5.8,3.3-8c2.2-2.2,4.9-3.3,8-3.3c3.1,0,5.8,1.1,8,3.3c0,0,0,0,0.1,0.1l-4.6,4.5c0,0,0,0,0,0
				c-1-0.9-2.1-1.4-3.4-1.4c-1.3,0-2.5,0.5-3.4,1.4c-1,1-1.4,2.1-1.4,3.4c0,1.3,0.5,2.5,1.4,3.4c0.9,1,2.1,1.4,3.4,1.4
				c1.3,0,2.5-0.5,3.4-1.4C127.6,20.1,128,19.1,128.1,17.9L128.1,17.9z"/>
		</g>
		<g>
			<path class="st1" d="M149.2,6.2c4.3,0,6.5,2.4,6.5,7.3c0,1.6-0.5,3-1.6,4c1.1,1.1,1.6,2.4,1.6,4c0,4.9-2.2,7.3-6.5,7.3h-13V6.2
				H149.2z M142.7,12.7v1.6h6.5v-1.6H142.7z M142.7,20.8v1.6h6.5v-1.6H142.7z"/>
		</g>
	</g>
	<g>
		<path class="st1" d="M11.3,6.2c3.1,0,5.8,1.1,8,3.3c2.2,2.2,3.3,4.9,3.3,8c0,3.1-1.1,5.8-3.3,8c-2.2,2.2-4.9,3.3-8,3.3H0V6.2H11.3
			z M6.5,22.4h4.9c1.3,0,2.5-0.5,3.4-1.4c0.9-0.9,1.4-2.1,1.4-3.4c0-1.3-0.5-2.5-1.4-3.4c-1-0.9-2.1-1.4-3.4-1.4H6.5V22.4z"/>
		<path class="st1" d="M30.8,14.3h9.7v6.5h-9.7v1.6h9.7v6.5H24.3V6.2h16.2v6.5h-9.7V14.3z"/>
		<path class="st1" d="M64.8,35.4l-6.5-6.5l-3.2-3.2l-6.5-6.5v9.7h-6.5V3l6.5,6.5l6.5,6.5l3.2,3.2V3l6.5,6.5l6.5,6.5l6.5,6.5
			l6.5,6.5h-9.7l-3.2-3.2l-6.5-6.5V35.4z"/>
		<path class="st1" d="M98.8,9.6c2.2,2.2,3.3,4.9,3.3,8c0,3.1-1.1,5.8-3.3,8c-2.2,2.2-4.9,3.3-8,3.3c-3.1,0-5.8-1.1-8-3.3
			c-2.2-2.2-3.3-4.9-3.3-8c0-3.1,1.1-5.8,3.3-8c2.2-2.2,4.9-3.3,8-3.3C93.9,6.2,96.6,7.3,98.8,9.6z M90.8,12.7
			c-1.3,0-2.5,0.5-3.4,1.4c-1,1-1.4,2.1-1.4,3.4c0,1.3,0.5,2.5,1.4,3.4c0.9,1,2.1,1.4,3.4,1.4c1.3,0,2.5-0.5,3.4-1.4
			c0.9-0.9,1.4-2.1,1.4-3.4c0-1.3-0.5-2.5-1.4-3.4C93.3,13.2,92.1,12.7,90.8,12.7z"/>
		<path class="st1" d="M128.1,17.9v-0.4h6.5v11.3l-6.5,6.5v-7.5c-1.5,0.7-3.1,1.1-4.9,1.1c-3.1,0-5.8-1.1-8-3.3
			c-2.2-2.2-3.3-4.9-3.3-8c0-3.1,1.1-5.8,3.3-8c2.2-2.2,4.9-3.3,8-3.3c3.1,0,5.8,1.1,8,3.3c0,0,0,0,0.1,0.1l-4.6,4.5c0,0,0,0,0,0
			c-1-0.9-2.1-1.4-3.4-1.4c-1.3,0-2.5,0.5-3.4,1.4c-1,1-1.4,2.1-1.4,3.4c0,1.3,0.5,2.5,1.4,3.4c0.9,1,2.1,1.4,3.4,1.4
			c1.3,0,2.5-0.5,3.4-1.4C127.6,20.1,128,19.1,128.1,17.9L128.1,17.9z"/>
		<path class="st1" d="M149.2,6.2c4.3,0,6.5,2.4,6.5,7.3c0,1.6-0.5,3-1.6,4c1.1,1.1,1.6,2.4,1.6,4c0,4.9-2.2,7.3-6.5,7.3h-13V6.2
			H149.2z M142.7,12.7v1.6h6.5v-1.6H142.7z M142.7,20.8v1.6h6.5v-1.6H142.7z"/>
	</g>
</g>
<g>
	<g>
		<path class="st2" d="M11.3,5.2c3.1,0,5.8,1.1,8,3.3c2.2,2.2,3.3,4.9,3.3,8c0,3.1-1.1,5.8-3.3,8c-2.2,2.2-4.9,3.3-8,3.3H0V5.2H11.3
			z M6.5,21.4h4.9c1.3,0,2.5-0.5,3.4-1.4c0.9-0.9,1.4-2.1,1.4-3.4c0-1.3-0.5-2.5-1.4-3.4c-1-0.9-2.1-1.4-3.4-1.4H6.5V21.4z"/>
		<path class="st2" d="M30.8,13.3h9.7v6.5h-9.7v1.6h9.7v6.5H24.3V5.2h16.2v6.5h-9.7V13.3z"/>
		<path class="st2" d="M64.8,34.4l-6.5-6.5l-3.2-3.2l-6.5-6.5v9.7h-6.5V2l6.5,6.5l6.5,6.5l3.2,3.2V2l6.5,6.5l6.5,6.5l6.5,6.5
			l6.5,6.5h-9.7l-3.2-3.2l-6.5-6.5V34.4z"/>
		<path class="st2" d="M98.8,8.6c2.2,2.2,3.3,4.9,3.3,8c0,3.1-1.1,5.8-3.3,8c-2.2,2.2-4.9,3.3-8,3.3c-3.1,0-5.8-1.1-8-3.3
			c-2.2-2.2-3.3-4.9-3.3-8c0-3.1,1.1-5.8,3.3-8c2.2-2.2,4.9-3.3,8-3.3C93.9,5.2,96.6,6.3,98.8,8.6z M90.8,11.7
			c-1.3,0-2.5,0.5-3.4,1.4c-1,1-1.4,2.1-1.4,3.4c0,1.3,0.5,2.5,1.4,3.4c0.9,1,2.1,1.4,3.4,1.4c1.3,0,2.5-0.5,3.4-1.4
			c0.9-0.9,1.4-2.1,1.4-3.4c0-1.3-0.5-2.5-1.4-3.4C93.3,12.2,92.1,11.7,90.8,11.7z"/>
		<path class="st2" d="M128.1,16.9v-0.4h6.5v11.3l-6.5,6.5v-7.5c-1.5,0.7-3.1,1.1-4.9,1.1c-3.1,0-5.8-1.1-8-3.3
			c-2.2-2.2-3.3-4.9-3.3-8c0-3.1,1.1-5.8,3.3-8c2.2-2.2,4.9-3.3,8-3.3c3.1,0,5.8,1.1,8,3.3c0,0,0,0,0.1,0.1l-4.6,4.5c0,0,0,0,0,0
			c-1-0.9-2.1-1.4-3.4-1.4c-1.3,0-2.5,0.5-3.4,1.4c-1,1-1.4,2.1-1.4,3.4c0,1.3,0.5,2.5,1.4,3.4c0.9,1,2.1,1.4,3.4,1.4
			c1.3,0,2.5-0.5,3.4-1.4C127.6,19.1,128,18.1,128.1,16.9L128.1,16.9z"/>
		<path class="st2" d="M149.2,5.2c4.3,0,6.5,2.4,6.5,7.3c0,1.6-0.5,3-1.6,4c1.1,1.1,1.6,2.4,1.6,4c0,4.9-2.2,7.3-6.5,7.3h-13V5.2
			H149.2z M142.7,11.7v1.6h6.5v-1.6H142.7z M142.7,19.8v1.6h6.5v-1.6H142.7z"/>
	</g>
	<g>
		<path class="st2" d="M11.3,5.2c3.1,0,5.8,1.1,8,3.3c2.2,2.2,3.3,4.9,3.3,8c0,3.1-1.1,5.8-3.3,8c-2.2,2.2-4.9,3.3-8,3.3H0V5.2H11.3
			z M6.5,21.4h4.9c1.3,0,2.5-0.5,3.4-1.4c0.9-0.9,1.4-2.1,1.4-3.4c0-1.3-0.5-2.5-1.4-3.4c-1-0.9-2.1-1.4-3.4-1.4H6.5V21.4z"/>
		<path class="st2" d="M30.8,13.3h9.7v6.5h-9.7v1.6h9.7v6.5H24.3V5.2h16.2v6.5h-9.7V13.3z"/>
		<path class="st2" d="M64.8,34.4l-6.5-6.5l-3.2-3.2l-6.5-6.5v9.7h-6.5V2l6.5,6.5l6.5,6.5l3.2,3.2V2l6.5,6.5l6.5,6.5l6.5,6.5
			l6.5,6.5h-9.7l-3.2-3.2l-6.5-6.5V34.4z"/>
		<path class="st2" d="M98.8,8.6c2.2,2.2,3.3,4.9,3.3,8c0,3.1-1.1,5.8-3.3,8c-2.2,2.2-4.9,3.3-8,3.3c-3.1,0-5.8-1.1-8-3.3
			c-2.2-2.2-3.3-4.9-3.3-8c0-3.1,1.1-5.8,3.3-8c2.2-2.2,4.9-3.3,8-3.3C93.9,5.2,96.6,6.3,98.8,8.6z M90.8,11.7
			c-1.3,0-2.5,0.5-3.4,1.4c-1,1-1.4,2.1-1.4,3.4c0,1.3,0.5,2.5,1.4,3.4c0.9,1,2.1,1.4,3.4,1.4c1.3,0,2.5-0.5,3.4-1.4
			c0.9-0.9,1.4-2.1,1.4-3.4c0-1.3-0.5-2.5-1.4-3.4C93.3,12.2,92.1,11.7,90.8,11.7z"/>
		<path class="st2" d="M128.1,16.9v-0.4h6.5v11.3l-6.5,6.5v-7.5c-1.5,0.7-3.1,1.1-4.9,1.1c-3.1,0-5.8-1.1-8-3.3
			c-2.2-2.2-3.3-4.9-3.3-8c0-3.1,1.1-5.8,3.3-8c2.2-2.2,4.9-3.3,8-3.3c3.1,0,5.8,1.1,8,3.3c0,0,0,0,0.1,0.1l-4.6,4.5c0,0,0,0,0,0
			c-1-0.9-2.1-1.4-3.4-1.4c-1.3,0-2.5,0.5-3.4,1.4c-1,1-1.4,2.1-1.4,3.4c0,1.3,0.5,2.5,1.4,3.4c0.9,1,2.1,1.4,3.4,1.4
			c1.3,0,2.5-0.5,3.4-1.4C127.6,19.1,128,18.1,128.1,16.9L128.1,16.9z"/>
		<path class="st2" d="M149.2,5.2c4.3,0,6.5,2.4,6.5,7.3c0,1.6-0.5,3-1.6,4c1.1,1.1,1.6,2.4,1.6,4c0,4.9-2.2,7.3-6.5,7.3h-13V5.2
			H149.2z M142.7,11.7v1.6h6.5v-1.6H142.7z M142.7,19.8v1.6h6.5v-1.6H142.7z"/>
	</g>
</g>
<g>
	<g>
		<path class="st3" d="M11.3,4.2c3.1,0,5.8,1.1,8,3.3c2.2,2.2,3.3,4.9,3.3,8c0,3.1-1.1,5.8-3.3,8c-2.2,2.2-4.9,3.3-8,3.3H0V4.2H11.3
			z M6.5,20.4h4.9c1.3,0,2.5-0.5,3.4-1.4c0.9-0.9,1.4-2.1,1.4-3.4c0-1.3-0.5-2.5-1.4-3.4c-1-0.9-2.1-1.4-3.4-1.4H6.5V20.4z"/>
		<path class="st3" d="M30.8,12.3h9.7v6.5h-9.7v1.6h9.7v6.5H24.3V4.2h16.2v6.5h-9.7V12.3z"/>
		<path class="st3" d="M64.8,33.4l-6.5-6.5l-3.2-3.2l-6.5-6.5v9.7h-6.5V1l6.5,6.5l6.5,6.5l3.2,3.2V1l6.5,6.5l6.5,6.5l6.5,6.5
			l6.5,6.5h-9.7l-3.2-3.2l-6.5-6.5V33.4z"/>
		<path class="st3" d="M98.8,7.6c2.2,2.2,3.3,4.9,3.3,8c0,3.1-1.1,5.8-3.3,8c-2.2,2.2-4.9,3.3-8,3.3c-3.1,0-5.8-1.1-8-3.3
			c-2.2-2.2-3.3-4.9-3.3-8c0-3.1,1.1-5.8,3.3-8c2.2-2.2,4.9-3.3,8-3.3C93.9,4.2,96.6,5.3,98.8,7.6z M90.8,10.7
			c-1.3,0-2.5,0.5-3.4,1.4c-1,1-1.4,2.1-1.4,3.4c0,1.3,0.5,2.5,1.4,3.4c0.9,1,2.1,1.4,3.4,1.4c1.3,0,2.5-0.5,3.4-1.4
			c0.9-0.9,1.4-2.1,1.4-3.4c0-1.3-0.5-2.5-1.4-3.4C93.3,11.2,92.1,10.7,90.8,10.7z"/>
		<path class="st3" d="M128.1,15.9v-0.4h6.5v11.3l-6.5,6.5v-7.5c-1.5,0.7-3.1,1.1-4.9,1.1c-3.1,0-5.8-1.1-8-3.3
			c-2.2-2.2-3.3-4.9-3.3-8c0-3.1,1.1-5.8,3.3-8c2.2-2.2,4.9-3.3,8-3.3c3.1,0,5.8,1.1,8,3.3c0,0,0,0,0.1,0.1l-4.6,4.5c0,0,0,0,0,0
			c-1-0.9-2.1-1.4-3.4-1.4c-1.3,0-2.5,0.5-3.4,1.4c-1,1-1.4,2.1-1.4,3.4c0,1.3,0.5,2.5,1.4,3.4c0.9,1,2.1,1.4,3.4,1.4
			c1.3,0,2.5-0.5,3.4-1.4C127.6,18.1,128,17.1,128.1,15.9L128.1,15.9z"/>
		<path class="st3" d="M149.2,4.2c4.3,0,6.5,2.4,6.5,7.3c0,1.6-0.5,3-1.6,4c1.1,1.1,1.6,2.4,1.6,4c0,4.9-2.2,7.3-6.5,7.3h-13V4.2
			H149.2z M142.7,10.7v1.6h6.5v-1.6H142.7z M142.7,18.8v1.6h6.5v-1.6H142.7z"/>
	</g>
	<g>
		<path class="st3" d="M11.3,4.2c3.1,0,5.8,1.1,8,3.3c2.2,2.2,3.3,4.9,3.3,8c0,3.1-1.1,5.8-3.3,8c-2.2,2.2-4.9,3.3-8,3.3H0V4.2H11.3
			z M6.5,20.4h4.9c1.3,0,2.5-0.5,3.4-1.4c0.9-0.9,1.4-2.1,1.4-3.4c0-1.3-0.5-2.5-1.4-3.4c-1-0.9-2.1-1.4-3.4-1.4H6.5V20.4z"/>
		<path class="st3" d="M30.8,12.3h9.7v6.5h-9.7v1.6h9.7v6.5H24.3V4.2h16.2v6.5h-9.7V12.3z"/>
		<path class="st3" d="M64.8,33.4l-6.5-6.5l-3.2-3.2l-6.5-6.5v9.7h-6.5V1l6.5,6.5l6.5,6.5l3.2,3.2V1l6.5,6.5l6.5,6.5l6.5,6.5
			l6.5,6.5h-9.7l-3.2-3.2l-6.5-6.5V33.4z"/>
		<path class="st3" d="M98.8,7.6c2.2,2.2,3.3,4.9,3.3,8c0,3.1-1.1,5.8-3.3,8c-2.2,2.2-4.9,3.3-8,3.3c-3.1,0-5.8-1.1-8-3.3
			c-2.2-2.2-3.3-4.9-3.3-8c0-3.1,1.1-5.8,3.3-8c2.2-2.2,4.9-3.3,8-3.3C93.9,4.2,96.6,5.3,98.8,7.6z M90.8,10.7
			c-1.3,0-2.5,0.5-3.4,1.4c-1,1-1.4,2.1-1.4,3.4c0,1.3,0.5,2.5,1.4,3.4c0.9,1,2.1,1.4,3.4,1.4c1.3,0,2.5-0.5,3.4-1.4
			c0.9-0.9,1.4-2.1,1.4-3.4c0-1.3-0.5-2.5-1.4-3.4C93.3,11.2,92.1,10.7,90.8,10.7z"/>
		<path class="st3" d="M128.1,15.9v-0.4h6.5v11.3l-6.5,6.5v-7.5c-1.5,0.7-3.1,1.1-4.9,1.1c-3.1,0-5.8-1.1-8-3.3
			c-2.2-2.2-3.3-4.9-3.3-8c0-3.1,1.1-5.8,3.3-8c2.2-2.2,4.9-3.3,8-3.3c3.1,0,5.8,1.1,8,3.3c0,0,0,0,0.1,0.1l-4.6,4.5c0,0,0,0,0,0
			c-1-0.9-2.1-1.4-3.4-1.4c-1.3,0-2.5,0.5-3.4,1.4c-1,1-1.4,2.1-1.4,3.4c0,1.3,0.5,2.5,1.4,3.4c0.9,1,2.1,1.4,3.4,1.4
			c1.3,0,2.5-0.5,3.4-1.4C127.6,18.1,128,17.1,128.1,15.9L128.1,15.9z"/>
		<path class="st3" d="M149.2,4.2c4.3,0,6.5,2.4,6.5,7.3c0,1.6-0.5,3-1.6,4c1.1,1.1,1.6,2.4,1.6,4c0,4.9-2.2,7.3-6.5,7.3h-13V4.2
			H149.2z M142.7,10.7v1.6h6.5v-1.6H142.7z M142.7,18.8v1.6h6.5v-1.6H142.7z"/>
	</g>
</g>
<g>
	<g>
		<g>
			<linearGradient id="SVGID_1_" gradientUnits="userSpaceOnUse" x1="11.3337" y1="3.2383" x2="11.3337" y2="25.9057">
				<stop  offset="0" style="stop-color:#FFFFFF"/>
				<stop  offset="7.893093e-02" style="stop-color:#FFFFF1"/>
				<stop  offset="0.2285" style="stop-color:#FDFFCC"/>
				<stop  offset="0.433" style="stop-color:#FBFF90"/>
				<stop  offset="0.682" style="stop-color:#F8FF3E"/>
				<stop  offset="0.798" style="stop-color:#F7FF15"/>
			</linearGradient>
			<path class="st4" d="M11.3,3.2c3.1,0,5.8,1.1,8,3.3c2.2,2.2,3.3,4.9,3.3,8c0,3.1-1.1,5.8-3.3,8c-2.2,2.2-4.9,3.3-8,3.3H0V3.2
				H11.3z M6.5,19.4h4.9c1.3,0,2.5-0.5,3.4-1.4c0.9-0.9,1.4-2.1,1.4-3.4c0-1.3-0.5-2.5-1.4-3.4c-1-0.9-2.1-1.4-3.4-1.4H6.5V19.4z"/>
		</g>
		<g>
			<linearGradient id="SVGID_2_" gradientUnits="userSpaceOnUse" x1="32.3823" y1="3.2383" x2="32.3823" y2="25.9057">
				<stop  offset="0" style="stop-color:#FFFFFF"/>
				<stop  offset="7.893093e-02" style="stop-color:#FFFFF1"/>
				<stop  offset="0.2285" style="stop-color:#FDFFCC"/>
				<stop  offset="0.433" style="stop-color:#FBFF90"/>
				<stop  offset="0.682" style="stop-color:#F8FF3E"/>
				<stop  offset="0.798" style="stop-color:#F7FF15"/>
			</linearGradient>
			<path class="st5" d="M30.8,11.3h9.7v6.5h-9.7v1.6h9.7v6.5H24.3V3.2h16.2v6.5h-9.7V11.3z"/>
		</g>
		<g>
			<linearGradient id="SVGID_3_" gradientUnits="userSpaceOnUse" x1="63.1458" y1="0" x2="63.1458" y2="32.3823">
				<stop  offset="0" style="stop-color:#FFFFFF"/>
				<stop  offset="7.893093e-02" style="stop-color:#FFFFF1"/>
				<stop  offset="0.2285" style="stop-color:#FDFFCC"/>
				<stop  offset="0.433" style="stop-color:#FBFF90"/>
				<stop  offset="0.682" style="stop-color:#F8FF3E"/>
				<stop  offset="0.798" style="stop-color:#F7FF15"/>
			</linearGradient>
			<path class="st6" d="M64.8,32.4l-6.5-6.5l-3.2-3.2l-6.5-6.5v9.7h-6.5V0l6.5,6.5l6.5,6.5l3.2,3.2V0l6.5,6.5l6.5,6.5l6.5,6.5
				l6.5,6.5h-9.7l-3.2-3.2l-6.5-6.5V32.4z"/>
		</g>
		<g>
			<linearGradient id="SVGID_4_" gradientUnits="userSpaceOnUse" x1="90.7681" y1="3.2383" x2="90.7681" y2="25.9057">
				<stop  offset="0" style="stop-color:#FFFFFF"/>
				<stop  offset="7.893093e-02" style="stop-color:#FFFFF1"/>
				<stop  offset="0.2285" style="stop-color:#FDFFCC"/>
				<stop  offset="0.433" style="stop-color:#FBFF90"/>
				<stop  offset="0.682" style="stop-color:#F8FF3E"/>
				<stop  offset="0.798" style="stop-color:#F7FF15"/>
			</linearGradient>
			<path class="st7" d="M98.8,6.6c2.2,2.2,3.3,4.9,3.3,8c0,3.1-1.1,5.8-3.3,8c-2.2,2.2-4.9,3.3-8,3.3c-3.1,0-5.8-1.1-8-3.3
				c-2.2-2.2-3.3-4.9-3.3-8c0-3.1,1.1-5.8,3.3-8c2.2-2.2,4.9-3.3,8-3.3C93.9,3.2,96.6,4.3,98.8,6.6z M90.8,9.7
				c-1.3,0-2.5,0.5-3.4,1.4c-1,1-1.4,2.1-1.4,3.4c0,1.3,0.5,2.5,1.4,3.4c0.9,1,2.1,1.4,3.4,1.4c1.3,0,2.5-0.5,3.4-1.4
				c0.9-0.9,1.4-2.1,1.4-3.4c0-1.3-0.5-2.5-1.4-3.4C93.3,10.2,92.1,9.7,90.8,9.7z"/>
		</g>
		<g>
			<linearGradient id="SVGID_5_" gradientUnits="userSpaceOnUse" x1="123.2805" y1="3.2383" x2="123.2805" y2="32.3823">
				<stop  offset="0" style="stop-color:#FFFFFF"/>
				<stop  offset="7.893093e-02" style="stop-color:#FFFFF1"/>
				<stop  offset="0.2285" style="stop-color:#FDFFCC"/>
				<stop  offset="0.433" style="stop-color:#FBFF90"/>
				<stop  offset="0.682" style="stop-color:#F8FF3E"/>
				<stop  offset="0.798" style="stop-color:#F7FF15"/>
			</linearGradient>
			<path class="st8" d="M128.1,14.9v-0.4h6.5v11.3l-6.5,6.5v-7.5c-1.5,0.7-3.1,1.1-4.9,1.1c-3.1,0-5.8-1.1-8-3.3
				c-2.2-2.2-3.3-4.9-3.3-8c0-3.1,1.1-5.8,3.3-8c2.2-2.2,4.9-3.3,8-3.3c3.1,0,5.8,1.1,8,3.3c0,0,0,0,0.1,0.1l-4.6,4.5c0,0,0,0,0,0
				c-1-0.9-2.1-1.4-3.4-1.4c-1.3,0-2.5,0.5-3.4,1.4c-1,1-1.4,2.1-1.4,3.4c0,1.3,0.5,2.5,1.4,3.4c0.9,1,2.1,1.4,3.4,1.4
				c1.3,0,2.5-0.5,3.4-1.4C127.6,17.1,128,16.1,128.1,14.9L128.1,14.9z"/>
		</g>
		<g>
			<linearGradient id="SVGID_6_" gradientUnits="userSpaceOnUse" x1="145.9474" y1="3.2383" x2="145.9474" y2="25.9057">
				<stop  offset="0" style="stop-color:#FFFFFF"/>
				<stop  offset="7.893093e-02" style="stop-color:#FFFFF1"/>
				<stop  offset="0.2285" style="stop-color:#FDFFCC"/>
				<stop  offset="0.433" style="stop-color:#FBFF90"/>
				<stop  offset="0.682" style="stop-color:#F8FF3E"/>
				<stop  offset="0.798" style="stop-color:#F7FF15"/>
			</linearGradient>
			<path class="st9" d="M149.2,3.2c4.3,0,6.5,2.4,6.5,7.3c0,1.6-0.5,3-1.6,4c1.1,1.1,1.6,2.4,1.6,4c0,4.9-2.2,7.3-6.5,7.3h-13V3.2
				H149.2z M142.7,9.7v1.6h6.5V9.7H142.7z M142.7,17.8v1.6h6.5v-1.6H142.7z"/>
		</g>
	</g>
	<g>
		<linearGradient id="SVGID_7_" gradientUnits="userSpaceOnUse" x1="11.3337" y1="3.2383" x2="11.3337" y2="25.9057">
			<stop  offset="0" style="stop-color:#FFFFFF"/>
			<stop  offset="7.893093e-02" style="stop-color:#FFFFF1"/>
			<stop  offset="0.2285" style="stop-color:#FDFFCC"/>
			<stop  offset="0.433" style="stop-color:#FBFF90"/>
			<stop  offset="0.682" style="stop-color:#F8FF3E"/>
			<stop  offset="0.798" style="stop-color:#F7FF15"/>
		</linearGradient>
		<path class="st10" d="M11.3,3.2c3.1,0,5.8,1.1,8,3.3c2.2,2.2,3.3,4.9,3.3,8c0,3.1-1.1,5.8-3.3,8c-2.2,2.2-4.9,3.3-8,3.3H0V3.2
			H11.3z M6.5,19.4h4.9c1.3,0,2.5-0.5,3.4-1.4c0.9-0.9,1.4-2.1,1.4-3.4c0-1.3-0.5-2.5-1.4-3.4c-1-0.9-2.1-1.4-3.4-1.4H6.5V19.4z"/>
		<linearGradient id="SVGID_8_" gradientUnits="userSpaceOnUse" x1="32.3823" y1="3.2383" x2="32.3823" y2="25.9057">
			<stop  offset="0" style="stop-color:#FFFFFF"/>
			<stop  offset="7.893093e-02" style="stop-color:#FFFFF1"/>
			<stop  offset="0.2285" style="stop-color:#FDFFCC"/>
			<stop  offset="0.433" style="stop-color:#FBFF90"/>
			<stop  offset="0.682" style="stop-color:#F8FF3E"/>
			<stop  offset="0.798" style="stop-color:#F7FF15"/>
		</linearGradient>
		<path class="st11" d="M30.8,11.3h9.7v6.5h-9.7v1.6h9.7v6.5H24.3V3.2h16.2v6.5h-9.7V11.3z"/>
		<linearGradient id="SVGID_9_" gradientUnits="userSpaceOnUse" x1="63.1458" y1="0" x2="63.1458" y2="32.3823">
			<stop  offset="0" style="stop-color:#FFFFFF"/>
			<stop  offset="7.893093e-02" style="stop-color:#FFFFF1"/>
			<stop  offset="0.2285" style="stop-color:#FDFFCC"/>
			<stop  offset="0.433" style="stop-color:#FBFF90"/>
			<stop  offset="0.682" style="stop-color:#F8FF3E"/>
			<stop  offset="0.798" style="stop-color:#F7FF15"/>
		</linearGradient>
		<path class="st12" d="M64.8,32.4l-6.5-6.5l-3.2-3.2l-6.5-6.5v9.7h-6.5V0l6.5,6.5l6.5,6.5l3.2,3.2V0l6.5,6.5l6.5,6.5l6.5,6.5
			l6.5,6.5h-9.7l-3.2-3.2l-6.5-6.5V32.4z"/>
		<linearGradient id="SVGID_10_" gradientUnits="userSpaceOnUse" x1="90.7681" y1="3.2383" x2="90.7681" y2="25.9057">
			<stop  offset="0" style="stop-color:#FFFFFF"/>
			<stop  offset="7.893093e-02" style="stop-color:#FFFFF1"/>
			<stop  offset="0.2285" style="stop-color:#FDFFCC"/>
			<stop  offset="0.433" style="stop-color:#FBFF90"/>
			<stop  offset="0.682" style="stop-color:#F8FF3E"/>
			<stop  offset="0.798" style="stop-color:#F7FF15"/>
		</linearGradient>
		<path class="st13" d="M98.8,6.6c2.2,2.2,3.3,4.9,3.3,8c0,3.1-1.1,5.8-3.3,8c-2.2,2.2-4.9,3.3-8,3.3c-3.1,0-5.8-1.1-8-3.3
			c-2.2-2.2-3.3-4.9-3.3-8c0-3.1,1.1-5.8,3.3-8c2.2-2.2,4.9-3.3,8-3.3C93.9,3.2,96.6,4.3,98.8,6.6z M90.8,9.7
			c-1.3,0-2.5,0.5-3.4,1.4c-1,1-1.4,2.1-1.4,3.4c0,1.3,0.5,2.5,1.4,3.4c0.9,1,2.1,1.4,3.4,1.4c1.3,0,2.5-0.5,3.4-1.4
			c0.9-0.9,1.4-2.1,1.4-3.4c0-1.3-0.5-2.5-1.4-3.4C93.3,10.2,92.1,9.7,90.8,9.7z"/>
		<linearGradient id="SVGID_11_" gradientUnits="userSpaceOnUse" x1="123.2805" y1="3.2383" x2="123.2805" y2="32.3823">
			<stop  offset="0" style="stop-color:#FFFFFF"/>
			<stop  offset="7.893093e-02" style="stop-color:#FFFFF1"/>
			<stop  offset="0.2285" style="stop-color:#FDFFCC"/>
			<stop  offset="0.433" style="stop-color:#FBFF90"/>
			<stop  offset="0.682" style="stop-color:#F8FF3E"/>
			<stop  offset="0.798" style="stop-color:#F7FF15"/>
		</linearGradient>
		<path class="st14" d="M128.1,14.9v-0.4h6.5v11.3l-6.5,6.5v-7.5c-1.5,0.7-3.1,1.1-4.9,1.1c-3.1,0-5.8-1.1-8-3.3
			c-2.2-2.2-3.3-4.9-3.3-8c0-3.1,1.1-5.8,3.3-8c2.2-2.2,4.9-3.3,8-3.3c3.1,0,5.8,1.1,8,3.3c0,0,0,0,0.1,0.1l-4.6,4.5c0,0,0,0,0,0
			c-1-0.9-2.1-1.4-3.4-1.4c-1.3,0-2.5,0.5-3.4,1.4c-1,1-1.4,2.1-1.4,3.4c0,1.3,0.5,2.5,1.4,3.4c0.9,1,2.1,1.4,3.4,1.4
			c1.3,0,2.5-0.5,3.4-1.4C127.6,17.1,128,16.1,128.1,14.9L128.1,14.9z"/>
		<linearGradient id="SVGID_12_" gradientUnits="userSpaceOnUse" x1="145.9474" y1="3.2383" x2="145.9474" y2="25.9057">
			<stop  offset="0" style="stop-color:#FFFFFF"/>
			<stop  offset="7.893093e-02" style="stop-color:#FFFFF1"/>
			<stop  offset="0.2285" style="stop-color:#FDFFCC"/>
			<stop  offset="0.433" style="stop-color:#FBFF90"/>
			<stop  offset="0.682" style="stop-color:#F8FF3E"/>
			<stop  offset="0.798" style="stop-color:#F7FF15"/>
		</linearGradient>
		<path class="st15" d="M149.2,3.2c4.3,0,6.5,2.4,6.5,7.3c0,1.6-0.5,3-1.6,4c1.1,1.1,1.6,2.4,1.6,4c0,4.9-2.2,7.3-6.5,7.3h-13V3.2
			H149.2z M142.7,9.7v1.6h6.5V9.7H142.7z M142.7,17.8v1.6h6.5v-1.6H142.7z"/>
	</g>
</g>
</svg>
