<?xml version="1.0" encoding="utf-8"?>
<!-- Generator: Adobe Illustrator 23.0.2, SVG Export Plug-In . SVG Version: 6.00 Build 0) 
This was drawn by Sam Seabourn , Please credit me if you have stolen this from my site -->
<svg version="1.1" id="Layer_1" xmlns="http://www.w3.org/2000/svg" xmlns:xlink="http://www.w3.org/1999/xlink" x="0px" y="0px"
	 viewBox="0 0 963.5 1606.5" style="enable-background:new 0 0 963.5 1606.5;" xml:space="preserve">
<style type="text/css">
	.st0{fill:#A09F9C;}
	.st1{fill:#545760;}
	.st2{fill:url(#SVGID_1_);}
	.st3{fill:url(#SVGID_2_);}
	.st4{fill:url(#SVGID_3_);}
	.st5{fill:url(#SVGID_4_);}
	.st6{fill:url(#SVGID_5_);}
	.st7{fill:url(#SVGID_6_);}
	.st8{fill:url(#SVGID_7_);}
	.st9{fill:url(#SVGID_8_);}
	.st10{fill:url(#SVGID_9_);}
	.st11{fill:url(#SVGID_10_);}
	.st12{fill:url(#SVGID_11_);}
	.st13{fill:url(#SVGID_12_);}
	.st14{fill:url(#SVGID_13_);}
	.st15{fill:#0A147D;}
	.st16{fill:#C92C61;}
	.st17{fill:#FFFFFF;}
	.st18{fill:url(#SVGID_14_);}
	.st19{fill:url(#SVGID_15_);}
	.st20{opacity:0.11;}
	.st21{fill:url(#SVGID_16_);}
	.st22{fill:url(#SVGID_17_);}
</style>
<g>
	<polygon class="st0" points="963,1606 528.9,1606 0,1606 0,0 963,0 	"/>
</g>
<path class="st1" d="M751.6,758h-635C94.1,758,76,739.9,76,717.5v-547c0-22.4,18.1-40.5,40.5-40.5h739c22.4,0,40.5,18.1,40.5,40.5
	v443C896,693.3,831.3,758,751.6,758z"/>
<g>
	<linearGradient id="SVGID_1_" gradientUnits="userSpaceOnUse" x1="789.7665" y1="1151.608" x2="721.2747" y2="1004.7269">
		<stop  offset="0" style="stop-color:#FFFFFF;stop-opacity:0"/>
		<stop  offset="0.1106" style="stop-color:#C9C9C9;stop-opacity:2.275125e-02"/>
		<stop  offset="0.2343" style="stop-color:#949494;stop-opacity:4.821323e-02"/>
		<stop  offset="0.3599" style="stop-color:#676767;stop-opacity:7.405567e-02"/>
		<stop  offset="0.4849" style="stop-color:#424242;stop-opacity:9.976206e-02"/>
		<stop  offset="0.609" style="stop-color:#252525;stop-opacity:0.1253"/>
		<stop  offset="0.732" style="stop-color:#101010;stop-opacity:0.1506"/>
		<stop  offset="0.8536" style="stop-color:#040404;stop-opacity:0.1756"/>
		<stop  offset="0.9721" style="stop-color:#000000;stop-opacity:0.2"/>
	</linearGradient>
	<path class="st2" d="M866.9,1114.9l-153.9,72.5c-40.3,19-88.4,1.7-107.4-38.6l0,0c-19-40.3-1.7-88.4,38.6-107.4l153.9-72.5
		c40.3-19,88.4-1.7,107.4,38.6l0,0C924.5,1047.9,907.2,1096,866.9,1114.9z"/>
</g>
<g>
	<rect x="225" y="202" width="522" height="477"/>
</g>
<g>
	<linearGradient id="SVGID_2_" gradientUnits="userSpaceOnUse" x1="481.5" y1="9.094947e-13" x2="481.5" y2="85">
		<stop  offset="0" style="stop-color:#000000;stop-opacity:0"/>
		<stop  offset="0.9721" style="stop-color:#000000;stop-opacity:0.2"/>
	</linearGradient>
	<polygon class="st3" points="904,69 904,0 888,0 888,69 87,69 87,0 71,0 71,69 0,69 0,85 963,85 963,69 	"/>
</g>
<g>
	<path d="M134.5,364c1.4,0,2.5,1.1,2.5,2.5s-1.1,2.5-2.5,2.5s-2.5-1.1-2.5-2.5S133.1,364,134.5,364 M134.5,353
		c-7.5,0-13.5,6-13.5,13.5s6,13.5,13.5,13.5s13.5-6,13.5-13.5S142,353,134.5,353L134.5,353z"/>
</g>
<linearGradient id="SVGID_3_" gradientUnits="userSpaceOnUse" x1="520.8583" y1="1342.0616" x2="507.1417" y2="1313.9384">
	<stop  offset="0" style="stop-color:#1A1A1A"/>
	<stop  offset="0.5606" style="stop-color:#393B40"/>
	<stop  offset="1" style="stop-color:#545760"/>
</linearGradient>
<path class="st4" d="M562.9,1321.5l-85,40c-7.5,3.5-16.4,0.3-20-7.2l0,0c-3.5-7.5-0.3-16.4,7.2-20l85-40c7.5-3.5,16.4-0.3,20,7.2
	l0,0C573.6,1309.1,570.4,1318,562.9,1321.5z"/>
<linearGradient id="SVGID_4_" gradientUnits="userSpaceOnUse" x1="354.8583" y1="1342.0616" x2="341.1417" y2="1313.9384">
	<stop  offset="0" style="stop-color:#1A1A1A"/>
	<stop  offset="0.5606" style="stop-color:#393B40"/>
	<stop  offset="1" style="stop-color:#545760"/>
</linearGradient>
<path class="st5" d="M396.9,1321.5l-85,40c-7.5,3.5-16.4,0.3-20-7.2l0,0c-3.5-7.5-0.3-16.4,7.2-20l85-40c7.5-3.5,16.4-0.3,20,7.2
	l0,0C407.6,1309.1,404.4,1318,396.9,1321.5z"/>
<g>
	<path d="M312.2,1051h-66.4c-3.8,0-6.8-3-6.8-6.8v-66.4c0-3.8-3-6.8-6.8-6.8h-69.4c-3.8,0-6.8,3-6.8,6.8v66.4c0,3.8-3,6.8-6.8,6.8
		H82.8c-3.8,0-6.8,3-6.8,6.8v69.4c0,3.8,3,6.8,6.8,6.8h66.4c3.8,0,6.8,3,6.8,6.8v66.4c0,3.8,3,6.8,6.8,6.8h69.4c3.8,0,6.8-3,6.8-6.8
		v-66.4c0-3.8,3-6.8,6.8-6.8h66.4c3.8,0,6.8-3,6.8-6.8v-69.4C319,1054,316,1051,312.2,1051z"/>
</g>
<linearGradient id="SVGID_5_" gradientUnits="userSpaceOnUse" x1="839" y1="983" x2="839" y2="1099">
	<stop  offset="0" style="stop-color:#7E0C44"/>
	<stop  offset="0.2833" style="stop-color:#7B0C43"/>
	<stop  offset="0.4541" style="stop-color:#730B3E"/>
	<stop  offset="0.5953" style="stop-color:#650A36"/>
	<stop  offset="0.7201" style="stop-color:#50082B"/>
	<stop  offset="0.8342" style="stop-color:#36051D"/>
	<stop  offset="0.939" style="stop-color:#16020C"/>
	<stop  offset="1" style="stop-color:#000000"/>
</linearGradient>
<circle class="st6" cx="839" cy="1041" r="58"/>
<linearGradient id="SVGID_6_" gradientUnits="userSpaceOnUse" x1="679" y1="1057" x2="679" y2="1173">
	<stop  offset="0" style="stop-color:#7E0C44"/>
	<stop  offset="0.2833" style="stop-color:#7B0C43"/>
	<stop  offset="0.4541" style="stop-color:#730B3E"/>
	<stop  offset="0.5953" style="stop-color:#650A36"/>
	<stop  offset="0.7201" style="stop-color:#50082B"/>
	<stop  offset="0.8342" style="stop-color:#36051D"/>
	<stop  offset="0.939" style="stop-color:#16020C"/>
	<stop  offset="1" style="stop-color:#000000"/>
</linearGradient>
<circle class="st7" cx="679" cy="1115" r="58"/>
<g>
	<linearGradient id="SVGID_7_" gradientUnits="userSpaceOnUse" x1="660.9227" y1="1587.1123" x2="627.0784" y2="1427.8873">
		<stop  offset="0" style="stop-color:#4F4F4D;stop-opacity:0.6"/>
		<stop  offset="1" style="stop-color:#000000"/>
	</linearGradient>
	<path class="st8" d="M689,1566.7l-70.7-128.9c-2.9-5.3-9.6-7.3-14.9-4.4c-1.6,0.9-2.9,2.1-3.8,3.5c-2.2,3.3-2.6,7.7-0.6,11.5
		l44.7,81.5l26,47.4c2.9,5.3,9.6,7.3,14.9,4.4C689.9,1578.7,691.9,1572,689,1566.7z"/>
</g>
<g>
	<g>
		<linearGradient id="SVGID_8_" gradientUnits="userSpaceOnUse" x1="708.5831" y1="1557.7594" x2="674.7388" y2="1398.5345">
			<stop  offset="0" style="stop-color:#4F4F4D;stop-opacity:0.6"/>
			<stop  offset="1" style="stop-color:#000000"/>
		</linearGradient>
		<path class="st9" d="M649.4,1404.4c-1.6,0.9-2.9,2.1-3.8,3.5L695,1498l-5.3,2.9l26,47.4c2.9,5.3,9.6,7.3,14.9,4.4
			s7.3-9.6,4.4-14.9l-70.7-128.9C661.4,1403.4,654.7,1401.5,649.4,1404.4z"/>
	</g>
	<g>
		<path d="M645.6,1407.9c-2.2,3.3-2.6,7.7-0.6,11.5l44.7,81.5l5.3-2.9L645.6,1407.9z"/>
	</g>
</g>
<g>
	<g>
		<linearGradient id="SVGID_9_" gradientUnits="userSpaceOnUse" x1="754.5831" y1="1528.7594" x2="720.7388" y2="1369.5345">
			<stop  offset="0" style="stop-color:#4F4F4D;stop-opacity:0.6"/>
			<stop  offset="1" style="stop-color:#000000"/>
		</linearGradient>
		<path class="st10" d="M695.4,1375.4c-1.6,0.9-2.9,2.1-3.8,3.5L741,1469l-5.3,2.9l26,47.4c2.9,5.3,9.6,7.3,14.9,4.4
			s7.3-9.6,4.4-14.9l-70.7-128.9C707.4,1374.4,700.7,1372.5,695.4,1375.4z"/>
	</g>
	<g>
		<path d="M691.6,1378.9c-2.2,3.3-2.6,7.7-0.6,11.5l44.7,81.5l5.3-2.9L691.6,1378.9z"/>
	</g>
</g>
<g>
	<g>
		<linearGradient id="SVGID_10_" gradientUnits="userSpaceOnUse" x1="800.5831" y1="1499.7594" x2="766.7388" y2="1340.5345">
			<stop  offset="0" style="stop-color:#4F4F4D;stop-opacity:0.6"/>
			<stop  offset="1" style="stop-color:#000000"/>
		</linearGradient>
		<path class="st11" d="M741.4,1346.4c-1.6,0.9-2.9,2.1-3.8,3.5L787,1440l-5.3,2.9l26,47.4c2.9,5.3,9.6,7.3,14.9,4.4
			s7.3-9.6,4.4-14.9l-70.7-128.9C753.4,1345.4,746.7,1343.5,741.4,1346.4z"/>
	</g>
	<g>
		<path d="M737.6,1349.9c-2.2,3.3-2.6,7.7-0.6,11.5l44.7,81.5l5.3-2.9L737.6,1349.9z"/>
	</g>
</g>
<g>
	<g>
		<linearGradient id="SVGID_11_" gradientUnits="userSpaceOnUse" x1="846.5831" y1="1470.7594" x2="812.7388" y2="1311.5345">
			<stop  offset="0" style="stop-color:#4F4F4D;stop-opacity:0.6"/>
			<stop  offset="1" style="stop-color:#000000"/>
		</linearGradient>
		<path class="st12" d="M787.4,1317.4c-1.6,0.9-2.9,2.1-3.8,3.5L833,1411l-5.3,2.9l26,47.4c2.9,5.3,9.6,7.3,14.9,4.4
			s7.3-9.6,4.4-14.9l-70.7-128.9C799.4,1316.4,792.7,1314.5,787.4,1317.4z"/>
	</g>
	<g>
		<path d="M783.6,1320.9c-2.2,3.3-2.6,7.7-0.6,11.5l44.7,81.5l5.3-2.9L783.6,1320.9z"/>
	</g>
</g>
<g>
	<g>
		<linearGradient id="SVGID_12_" gradientUnits="userSpaceOnUse" x1="892.5831" y1="1441.7594" x2="858.7388" y2="1282.5345">
			<stop  offset="0" style="stop-color:#4F4F4D;stop-opacity:0.6"/>
			<stop  offset="1" style="stop-color:#000000"/>
		</linearGradient>
		<path class="st13" d="M833.4,1288.4c-1.6,0.9-2.9,2.1-3.8,3.5L879,1382l-5.3,2.9l26,47.4c2.9,5.3,9.6,7.3,14.9,4.4
			s7.3-9.6,4.4-14.9l-70.7-128.9C845.4,1287.4,838.7,1285.5,833.4,1288.4z"/>
	</g>
	<g>
		<path d="M829.6,1291.9c-2.2,3.3-2.6,7.7-0.6,11.5l44.7,81.5l5.3-2.9L829.6,1291.9z"/>
	</g>
</g>
<g>
	<linearGradient id="SVGID_13_" gradientUnits="userSpaceOnUse" x1="427.5" y1="1606.5" x2="427.5" y2="1543.5">
		<stop  offset="0" style="stop-color:#000000;stop-opacity:0"/>
		<stop  offset="1" style="stop-color:#000000;stop-opacity:0.3"/>
	</linearGradient>
	<path class="st14" d="M486.5,1543.5h-118c-11,0-20,9-20,20l0,0c0,11,9,20,20,20h59v23h14v-23h10v23h14v-23h10v23h14v-23h-3
		c11,0,20-9,20-20l0,0C506.5,1552.5,497.5,1543.5,486.5,1543.5z"/>
</g>
<rect x="109.5" y="172.5" class="st15" width="220" height="6"/>
<rect x="109.5" y="158.5" class="st16" width="220" height="6"/>
<rect x="767" y="172.9" class="st15" width="94.5" height="6.2"/>
<rect x="767" y="158.5" class="st16" width="94.5" height="6.2"/>
<g>
	<path class="st17" d="M343.6,178v-18.7h6.4c1.5,0,2.6,0.1,3.3,0.3c1.1,0.2,2,0.7,2.7,1.3c1,0.8,1.7,1.9,2.2,3.2s0.7,2.8,0.7,4.4
		c0,1.4-0.2,2.7-0.5,3.8c-0.3,1.1-0.8,2-1.3,2.7c-0.5,0.7-1.1,1.3-1.7,1.7c-0.6,0.4-1.4,0.7-2.2,0.9c-0.9,0.2-1.9,0.3-3,0.3H343.6z
		 M346.1,175.8h4c1.2,0,2.2-0.1,2.9-0.3c0.7-0.2,1.3-0.6,1.7-1c0.6-0.6,1-1.4,1.4-2.4c0.3-1,0.5-2.2,0.5-3.6c0-2-0.3-3.5-1-4.5
		c-0.6-1.1-1.4-1.8-2.3-2.1c-0.7-0.3-1.7-0.4-3.2-0.4h-3.9V175.8z"/>
	<path class="st17" d="M360.4,168.9c0-3.1,0.8-5.5,2.5-7.3s3.8-2.6,6.5-2.6c1.7,0,3.3,0.4,4.7,1.2s2.4,2,3.2,3.5s1.1,3.1,1.1,5
		c0,1.9-0.4,3.6-1.1,5.1s-1.9,2.6-3.3,3.4s-2.9,1.2-4.5,1.2c-1.8,0-3.3-0.4-4.7-1.3c-1.4-0.9-2.4-2-3.2-3.5
		C360.7,172,360.4,170.5,360.4,168.9z M362.9,168.9c0,2.3,0.6,4,1.8,5.3s2.7,1.9,4.6,1.9c1.9,0,3.4-0.7,4.6-2
		c1.2-1.3,1.8-3.2,1.8-5.6c0-1.5-0.3-2.9-0.8-4s-1.3-2-2.3-2.6c-1-0.6-2.1-0.9-3.3-0.9c-1.8,0-3.3,0.6-4.5,1.8
		C363.6,164.1,362.9,166.1,362.9,168.9z"/>
	<path class="st17" d="M384.8,178v-16.5h-6.2v-2.2h14.8v2.2h-6.2V178H384.8z"/>
	<path class="st17" d="M400,178v-18.7h3.7l4.4,13.2c0.4,1.2,0.7,2.2,0.9,2.8c0.2-0.7,0.5-1.7,1-3l4.5-13h3.3V178h-2.4v-15.7L410,178
		h-2.2l-5.4-15.9V178H400z"/>
	<path class="st17" d="M418.4,178l7.2-18.7h2.7l7.7,18.7h-2.8l-2.2-5.7h-7.8L421,178H418.4z M423.8,170.3h6.3l-2-5.2
		c-0.6-1.6-1-2.9-1.3-3.9c-0.2,1.2-0.6,2.4-1,3.6L423.8,170.3z"/>
	<path class="st17" d="M439.3,178v-16.5h-6.2v-2.2H448v2.2h-6.2V178H439.3z"/>
	<path class="st17" d="M449.2,178v-18.7h8.3c1.7,0,2.9,0.2,3.8,0.5s1.6,0.9,2.1,1.8s0.8,1.8,0.8,2.8c0,1.3-0.4,2.4-1.3,3.4
		c-0.9,0.9-2.2,1.5-4,1.7c0.7,0.3,1.2,0.6,1.5,0.9c0.7,0.7,1.4,1.5,2.1,2.5l3.3,5.1h-3.1l-2.5-3.9c-0.7-1.1-1.3-2-1.8-2.6
		c-0.5-0.6-0.9-1-1.3-1.3s-0.7-0.4-1.1-0.5c-0.3-0.1-0.7-0.1-1.4-0.1h-2.9v8.3H449.2z M451.6,167.5h5.3c1.1,0,2-0.1,2.7-0.4
		c0.6-0.2,1.1-0.6,1.5-1.1s0.5-1.1,0.5-1.7c0-0.9-0.3-1.6-1-2.2c-0.6-0.6-1.7-0.9-3-0.9h-5.9V167.5z"/>
	<path class="st17" d="M467,178v-18.7h2.5V178H467z"/>
	<path class="st17" d="M470.6,178l7.2-9.8l-6.4-9h2.9l3.4,4.8c0.7,1,1.2,1.8,1.5,2.3c0.4-0.7,0.9-1.4,1.5-2.1l3.8-5h2.7l-6.6,8.8
		l7.1,9.9h-3.1l-4.7-6.7c-0.3-0.4-0.5-0.8-0.8-1.3c-0.4,0.7-0.7,1.1-0.9,1.4l-4.7,6.5H470.6z"/>
	<path class="st17" d="M497.7,178l-5-18.7h2.5l2.8,12.3c0.3,1.3,0.6,2.6,0.8,3.8c0.5-2,0.8-3.2,0.8-3.5l3.6-12.6h3l2.7,9.5
		c0.7,2.3,1.2,4.6,1.5,6.6c0.2-1.2,0.5-2.5,0.9-4.1l2.9-12h2.5l-5.1,18.7h-2.4l-3.9-14.3c-0.3-1.2-0.5-1.9-0.6-2.2
		c-0.2,0.9-0.4,1.6-0.5,2.2l-4,14.3H497.7z"/>
	<path class="st17" d="M518.1,178v-18.7h2.5V178H518.1z"/>
	<path class="st17" d="M528.3,178v-16.5h-6.2v-2.2H537v2.2h-6.2V178H528.3z"/>
	<path class="st17" d="M538.2,178v-18.7h2.5v7.7h9.7v-7.7h2.5V178h-2.5v-8.8h-9.7v8.8H538.2z"/>
	<path class="st17" d="M560.7,172l2.3-0.2c0.1,0.9,0.4,1.7,0.8,2.3c0.4,0.6,1,1.1,1.9,1.5c0.9,0.4,1.8,0.6,2.9,0.6
		c0.9,0,1.8-0.1,2.5-0.4s1.3-0.7,1.6-1.2s0.5-1,0.5-1.6c0-0.6-0.2-1.1-0.5-1.5c-0.3-0.4-0.9-0.8-1.7-1.1c-0.5-0.2-1.6-0.5-3.3-0.9
		c-1.7-0.4-2.9-0.8-3.6-1.2c-0.9-0.5-1.6-1-2-1.7s-0.7-1.5-0.7-2.3c0-0.9,0.3-1.8,0.8-2.6c0.5-0.8,1.3-1.4,2.3-1.9
		c1-0.4,2.2-0.6,3.4-0.6c1.4,0,2.6,0.2,3.7,0.7c1.1,0.4,1.9,1.1,2.4,2c0.6,0.9,0.9,1.9,0.9,2.9l-2.4,0.2c-0.1-1.2-0.6-2.1-1.3-2.7
		s-1.8-0.9-3.3-0.9c-1.5,0-2.6,0.3-3.3,0.8c-0.7,0.5-1,1.2-1,2c0,0.7,0.2,1.2,0.7,1.7c0.5,0.4,1.7,0.9,3.7,1.3s3.4,0.9,4.1,1.2
		c1.1,0.5,1.9,1.1,2.4,1.9s0.8,1.7,0.8,2.7c0,1-0.3,1.9-0.9,2.8c-0.6,0.9-1.4,1.6-2.5,2.1c-1.1,0.5-2.3,0.7-3.6,0.7
		c-1.7,0-3.1-0.2-4.3-0.7c-1.1-0.5-2-1.2-2.7-2.2C561.1,174.3,560.7,173.2,560.7,172z"/>
	<path class="st17" d="M582.3,178v-16.5h-6.2v-2.2H591v2.2h-6.2V178H582.3z"/>
	<path class="st17" d="M592.2,178v-18.7h13.5v2.2h-11.1v5.7H605v2.2h-10.4v6.4h11.5v2.2H592.2z"/>
	<path class="st17" d="M608.2,178v-18.7h8.3c1.7,0,2.9,0.2,3.8,0.5s1.6,0.9,2.1,1.8s0.8,1.8,0.8,2.8c0,1.3-0.4,2.4-1.3,3.4
		c-0.9,0.9-2.2,1.5-4,1.7c0.7,0.3,1.2,0.6,1.5,0.9c0.7,0.7,1.4,1.5,2.1,2.5l3.3,5.1h-3.1l-2.5-3.9c-0.7-1.1-1.3-2-1.8-2.6
		c-0.5-0.6-0.9-1-1.3-1.3s-0.7-0.4-1.1-0.5c-0.3-0.1-0.7-0.1-1.4-0.1h-2.9v8.3H608.2z M610.7,167.5h5.3c1.1,0,2-0.1,2.7-0.4
		c0.6-0.2,1.1-0.6,1.5-1.1s0.5-1.1,0.5-1.7c0-0.9-0.3-1.6-1-2.2c-0.6-0.6-1.7-0.9-3-0.9h-5.9V167.5z"/>
	<path class="st17" d="M625.7,178v-18.7h13.5v2.2h-11.1v5.7h10.4v2.2h-10.4v6.4h11.5v2.2H625.7z"/>
	<path class="st17" d="M641,168.9c0-3.1,0.8-5.5,2.5-7.3s3.8-2.6,6.5-2.6c1.7,0,3.3,0.4,4.7,1.2s2.4,2,3.2,3.5s1.1,3.1,1.1,5
		c0,1.9-0.4,3.6-1.1,5.1s-1.9,2.6-3.3,3.4s-2.9,1.2-4.5,1.2c-1.8,0-3.3-0.4-4.7-1.3c-1.4-0.9-2.4-2-3.2-3.5
		C641.3,172,641,170.5,641,168.9z M643.5,168.9c0,2.3,0.6,4,1.8,5.3s2.7,1.9,4.6,1.9c1.9,0,3.4-0.7,4.6-2c1.2-1.3,1.8-3.2,1.8-5.6
		c0-1.5-0.3-2.9-0.8-4s-1.3-2-2.3-2.6c-1-0.6-2.1-0.9-3.3-0.9c-1.8,0-3.3,0.6-4.5,1.8C644.2,164.1,643.5,166.1,643.5,168.9z"/>
	<path class="st17" d="M665.7,172l2.3-0.2c0.1,0.9,0.4,1.7,0.8,2.3c0.4,0.6,1,1.1,1.9,1.5c0.9,0.4,1.8,0.6,2.9,0.6
		c0.9,0,1.8-0.1,2.5-0.4s1.3-0.7,1.6-1.2s0.5-1,0.5-1.6c0-0.6-0.2-1.1-0.5-1.5c-0.3-0.4-0.9-0.8-1.7-1.1c-0.5-0.2-1.6-0.5-3.3-0.9
		c-1.7-0.4-2.9-0.8-3.6-1.2c-0.9-0.5-1.6-1-2-1.7s-0.7-1.5-0.7-2.3c0-0.9,0.3-1.8,0.8-2.6c0.5-0.8,1.3-1.4,2.3-1.9
		c1-0.4,2.2-0.6,3.4-0.6c1.4,0,2.6,0.2,3.7,0.7c1.1,0.4,1.9,1.1,2.4,2c0.6,0.9,0.9,1.9,0.9,2.9l-2.4,0.2c-0.1-1.2-0.6-2.1-1.3-2.7
		s-1.8-0.9-3.3-0.9c-1.5,0-2.6,0.3-3.3,0.8c-0.7,0.5-1,1.2-1,2c0,0.7,0.2,1.2,0.7,1.7c0.5,0.4,1.7,0.9,3.7,1.3s3.4,0.9,4.1,1.2
		c1.1,0.5,1.9,1.1,2.4,1.9s0.8,1.7,0.8,2.7c0,1-0.3,1.9-0.9,2.8c-0.6,0.9-1.4,1.6-2.5,2.1c-1.1,0.5-2.3,0.7-3.6,0.7
		c-1.7,0-3.1-0.2-4.3-0.7c-1.1-0.5-2-1.2-2.7-2.2C666.1,174.3,665.7,173.2,665.7,172z"/>
	<path class="st17" d="M681.9,168.9c0-3.1,0.8-5.5,2.5-7.3s3.8-2.6,6.5-2.6c1.7,0,3.3,0.4,4.7,1.2s2.4,2,3.2,3.5s1.1,3.1,1.1,5
		c0,1.9-0.4,3.6-1.1,5.1s-1.9,2.6-3.3,3.4s-2.9,1.2-4.5,1.2c-1.8,0-3.3-0.4-4.7-1.3c-1.4-0.9-2.4-2-3.2-3.5
		C682.2,172,681.9,170.5,681.9,168.9z M684.4,168.9c0,2.3,0.6,4,1.8,5.3s2.7,1.9,4.6,1.9c1.9,0,3.4-0.7,4.6-2
		c1.2-1.3,1.8-3.2,1.8-5.6c0-1.5-0.3-2.9-0.8-4s-1.3-2-2.3-2.6c-1-0.6-2.1-0.9-3.3-0.9c-1.8,0-3.3,0.6-4.5,1.8
		C685,164.1,684.4,166.1,684.4,168.9z"/>
	<path class="st17" d="M713.8,159.3h2.5v10.8c0,1.9-0.2,3.4-0.6,4.5c-0.4,1.1-1.2,2-2.3,2.7c-1.1,0.7-2.6,1-4.4,1
		c-1.8,0-3.2-0.3-4.3-0.9c-1.1-0.6-1.9-1.5-2.4-2.6c-0.5-1.1-0.7-2.7-0.7-4.7v-10.8h2.5V170c0,1.6,0.2,2.8,0.5,3.6
		c0.3,0.8,0.8,1.4,1.6,1.8c0.7,0.4,1.6,0.6,2.7,0.6c1.8,0,3.1-0.4,3.9-1.2c0.8-0.8,1.2-2.4,1.2-4.8V159.3z"/>
	<path class="st17" d="M719,178v-18.7h2.5l9.8,14.7v-14.7h2.4V178h-2.5l-9.8-14.7V178H719z"/>
	<path class="st17" d="M736.5,178v-18.7h6.4c1.5,0,2.6,0.1,3.3,0.3c1.1,0.2,2,0.7,2.7,1.3c1,0.8,1.7,1.9,2.2,3.2s0.7,2.8,0.7,4.4
		c0,1.4-0.2,2.7-0.5,3.8c-0.3,1.1-0.8,2-1.3,2.7c-0.5,0.7-1.1,1.3-1.7,1.7c-0.6,0.4-1.4,0.7-2.2,0.9c-0.9,0.2-1.9,0.3-3,0.3H736.5z
		 M739,175.8h4c1.2,0,2.2-0.1,2.9-0.3c0.7-0.2,1.3-0.6,1.7-1c0.6-0.6,1-1.4,1.4-2.4c0.3-1,0.5-2.2,0.5-3.6c0-2-0.3-3.5-1-4.5
		c-0.6-1.1-1.4-1.8-2.3-2.1c-0.7-0.3-1.7-0.4-3.2-0.4H739V175.8z"/>
</g>
<g>
	<g>
		<path class="st17" d="M106.8,422.9v-15.8h5.9c1.2,0,2.2,0.2,2.9,0.5c0.7,0.3,1.3,0.8,1.7,1.5c0.4,0.7,0.6,1.4,0.6,2.1
			c0,0.7-0.2,1.3-0.6,1.9c-0.4,0.6-0.9,1.1-1.7,1.4c1,0.3,1.7,0.8,2.2,1.4c0.5,0.7,0.8,1.5,0.8,2.4c0,0.7-0.2,1.4-0.5,2.1
			c-0.3,0.6-0.7,1.1-1.2,1.5s-1,0.6-1.7,0.8c-0.7,0.2-1.5,0.3-2.6,0.3H106.8z M108.9,413.8h3.4c0.9,0,1.6-0.1,2-0.2
			c0.5-0.2,0.9-0.4,1.2-0.8c0.3-0.4,0.4-0.8,0.4-1.4c0-0.5-0.1-1-0.4-1.4c-0.3-0.4-0.6-0.7-1.1-0.8c-0.5-0.1-1.3-0.2-2.4-0.2h-3.2
			V413.8z M108.9,421.1h3.9c0.7,0,1.2,0,1.4-0.1c0.5-0.1,0.9-0.2,1.2-0.4s0.6-0.5,0.8-0.9c0.2-0.4,0.3-0.8,0.3-1.3
			c0-0.6-0.2-1.1-0.5-1.5s-0.7-0.7-1.3-0.9c-0.5-0.2-1.3-0.3-2.3-0.3h-3.7V421.1z"/>
	</g>
	<g>
		<path class="st17" d="M118.7,422.9l6.1-15.8h2.3l6.5,15.8h-2.4l-1.8-4.8h-6.6l-1.7,4.8H118.7z M123.3,416.4h5.4l-1.7-4.4
			c-0.5-1.3-0.9-2.4-1.1-3.3c-0.2,1-0.5,2-0.9,3L123.3,416.4z"/>
	</g>
	<g>
		<path class="st17" d="M136.4,422.9v-14h-5.2v-1.9h12.6v1.9h-5.2v14H136.4z"/>
	</g>
	<g>
		<path class="st17" d="M148.8,422.9v-14h-5.2v-1.9h12.6v1.9h-5.2v14H148.8z"/>
	</g>
	<g>
		<path class="st17" d="M157.1,422.9v-15.8h11.5v1.9h-9.4v4.9h8.8v1.9h-8.8v5.4h9.7v1.9H157.1z"/>
	</g>
	<g>
		<path class="st17" d="M170.7,422.9v-15.8h7c1.4,0,2.5,0.1,3.2,0.4c0.7,0.3,1.3,0.8,1.8,1.5c0.4,0.7,0.7,1.5,0.7,2.4
			c0,1.1-0.4,2.1-1.1,2.8c-0.7,0.8-1.9,1.3-3.4,1.5c0.6,0.3,1,0.5,1.3,0.8c0.6,0.6,1.2,1.3,1.7,2.1l2.8,4.3h-2.6l-2.1-3.3
			c-0.6-1-1.1-1.7-1.5-2.2c-0.4-0.5-0.8-0.9-1.1-1.1s-0.6-0.3-1-0.4c-0.2-0.1-0.6-0.1-1.2-0.1h-2.4v7H170.7z M172.8,414.1h4.5
			c1,0,1.7-0.1,2.2-0.3c0.5-0.2,1-0.5,1.2-1c0.3-0.4,0.4-0.9,0.4-1.4c0-0.7-0.3-1.4-0.8-1.8c-0.5-0.5-1.4-0.7-2.6-0.7h-5V414.1z"/>
	</g>
	<g>
		<path class="st17" d="M189.6,422.9v-6.7l-6.1-9.1h2.6l3.1,4.8c0.6,0.9,1.1,1.8,1.6,2.7c0.5-0.8,1.1-1.8,1.7-2.8l3.1-4.7h2.4
			l-6.3,9.1v6.7H189.6z"/>
	</g>
</g>
<radialGradient id="SVGID_14_" cx="135" cy="366" r="13.5" gradientUnits="userSpaceOnUse">
	<stop  offset="0" style="stop-color:#FF2E2E"/>
	<stop  offset="4.851762e-02" style="stop-color:#FB2E2E"/>
	<stop  offset="0.5875" style="stop-color:#D1292D"/>
	<stop  offset="0.8639" style="stop-color:#C1272D"/>
</radialGradient>
<path class="st18" d="M135,379.5L135,379.5c-7.5,0-13.5-6-13.5-13.5l0,0c0-7.5,6-13.5,13.5-13.5h0c7.5,0,13.5,6,13.5,13.5l0,0
	C148.5,373.5,142.5,379.5,135,379.5z"/>
<g>
	<path class="st15" d="M69.8,794.3h9.5c12.5-0.8,18.5,4.7,17.9,16.6c0,9.4-5.6,14.1-16.8,14h-5.5h-2.2h-2.2h-0.7V794.3z M82.2,797.4
		c-1.9-0.1-3,0.4-3.2,1.5v21c0.3,1.2,1.4,1.7,3.3,1.6c3.4,0.1,4.9-2.9,4.7-9v-7.4C87.1,800.1,85.5,797.5,82.2,797.4z"/>
	<path class="st15" d="M111,803.4c7.4,0.2,11.3,3.8,11.6,10.6H120h-1.6h-4.1h-1.6h-2.4h-2.4c-0.1,4.6,0.4,7.1,1.7,7.7
		c1.2,0.6,2.4,0.5,3.6-0.2c1.2-0.7,1.7-2.4,1.4-5.1h3.1h1.6h1.6h1.6h-1.6h1.6c-1.1,4.5-3.5,7.1-7,7.9c-3.6,0.8-6.9,0.5-10.1-0.7
		c-3.1-1.2-5.2-4-6.1-8.4l0-1.5C100.2,807.2,104.1,803.7,111,803.4z M111.1,805.7c-2.2,0.1-3.3,1.8-3.4,5.1h3.3h1.6h1.6
		C114.2,807.6,113.2,805.9,111.1,805.7z"/>
	<path class="st15" d="M138.2,803.2c4.5-0.7,7.3,0.7,8.5,4.2c0.6-1.6,2.6-3.1,6-4.5c5.9-0.9,9.1,1.3,9.5,6.5v15.2l-7.4,0l0.1-12.6
		c0.1-2.9-1.1-4.2-3.6-4.1c-2.1-0.3-3.6,0.7-4.6,3v13.8h-3h-1.5h-1.5h-1.5h1.5h-1.5v-14.4c0-1.9-1.1-3-3.3-3.2
		c-1.6-0.1-2.7,0.6-3.5,2.3v3.6v1.8v4.5v1.8v3.6h-3.8h-1.5h-1.5h-0.9V804h2.4h1.5h1.5h1.5h-1.5h2.3l0,2.5
		C133.9,804.6,135.9,803.5,138.2,803.2z"/>
	<path class="st15" d="M164.4,813.3c0.3-3.7,1.6-6.4,3.9-7.9s4.9-2.2,8.1-2.1h1.4c3.4,0.2,6.1,1.1,8,2.7c1.9,1.6,3,4,3.3,7.2
		c0.1,3.9-1,6.7-3.2,8.4c-2.2,1.7-5,2.7-8.2,3.1h-1.4c-4.1-0.3-7.1-1.4-8.9-3.2C165.5,819.7,164.5,816.9,164.4,813.3z M176.8,806
		c-2.5,0.1-3.8,1.7-3.8,4.9v6.3c0.2,3.1,1.5,4.7,3.9,4.9c2.4-0.2,3.6-1.9,3.5-5v-6.1C180.3,807.6,179.1,806,176.8,806z"/>
	<path class="st15" d="M199,809.7c0.5-9.7,5.3-14.8,14.3-15.5c9.2,0.5,14.2,4.5,15,12.1l-9.8,0c-0.6-3.6-1.5-6-2.9-7.2
		c-1.3-1.2-2.7-1-4.1,0.6c-1.4,1.6-2.1,4.9-2.2,9.8c-0.1,6.5,0.5,10.2,2,11.1c1.5,0.9,3,0.7,4.5-0.3c1.5-1.1,2.3-3.3,2.4-6.7l-5.1,0
		l-0.1-4.1h15.1c-0.7,8.5-3.6,13.4-8.6,14.7c-5,1.3-9.6,0.9-13.7-1.1C201.8,821,199.5,816.6,199,809.7z"/>
	<path class="st15" d="M231.3,794.3h8.8c11.3-0.3,16.8,1.9,16.7,6.6c0.8,4.7-1.7,7.1-7.4,7.3c5.1,0.4,7.8,2.9,8.1,7.4
		c0,6.7-5.4,9.7-16.3,9.2h-5.1H234h-2h-0.6V794.3z M243.8,810.5c-2.4,0.1-3.6,0.5-3.6,1.4v8.8c0.1,1.1,1.4,1.7,3.7,1.7
		c2.3-0.1,3.4-2,3.3-5.8v-2.4C247.2,811.9,246.1,810.7,243.8,810.5z M243.6,796.8c-2.1,0.1-3.2,0.4-3.2,1.1v7.2
		c0.1,0.9,1.2,1.4,3.3,1.4c2.1-0.1,3.1-1.6,2.9-4.8v-2C246.7,797.9,245.7,796.9,243.6,796.8z"/>
</g>
<g>
	<path class="st15" d="M335.5,786c-4.1-0.9-7.7-1.3-11-1.3c-3.8,0-7.3,0.5-10.5,1.6c-3.2,1.1-6,2.6-8.3,4.6c-2.3,2-4.1,4.3-5.3,7
		c-1.2,2.7-1.9,5.5-1.9,8.3c0,3,0.6,5.7,1.9,8c1.3,2.3,3.1,4.1,5.4,5.4c2.3,1.3,5,1.9,8,1.9c1.4,0,2.9-0.1,4.3-0.2
		c1.4-0.2,2.9-0.5,4.4-1.1l1.3-9.3h-8.1l0.9-6.6h16.7l-3.1,21.6c-2,0.9-4.4,1.7-7.2,2.2c-2.8,0.6-5.7,0.9-8.8,0.9
		c-3.7,0-7.1-0.5-10.2-1.6c-3.1-1.1-5.6-2.6-7.8-4.6c-2.1-2-3.8-4.4-4.9-7.2c-1.1-2.8-1.7-5.8-1.7-9.1c0-3.1,0.5-6.2,1.6-9.2
		c1.1-3,2.6-5.8,4.7-8.3c2-2.5,4.5-4.7,7.2-6.4c2.8-1.7,6-3.1,9.7-4c3.6-1,7.7-1.4,12.3-1.4c3.6,0,7.4,0.4,11.5,1.2L335.5,786z"/>
	<path class="st15" d="M372.1,828.4h-8.4l-2.4-13.7h-15.8l-5.9,13.7h-9.1l23.4-51.1h8.7L372.1,828.4z M360.4,808.5L357,787h-0.2
		l-8.7,21.5H360.4z"/>
	<path class="st15" d="M432.4,828.4H424l-0.7-36.5h-0.1l-19.7,36.5h-2.3l-8.7-37.1h-0.1l-12,37.1h-8.6l16.6-50.6h8.6l8,33.2
		l17.6-33.2h8.8L432.4,828.4z"/>
	<path class="st15" d="M474.1,777.8l-1.1,7.1h-20.5l-2,14.1h18.1l-1.1,7.1h-18.1l-2.1,15.1h25.7l-1,7.1h-34.2l7.2-50.6H474.1z"/>
	<path class="st15" d="M496.9,777.8c6.2,0,10.8,1,13.9,3.1c3.1,2.1,4.7,5.1,4.7,9.2c0,2.4-0.6,4.5-1.8,6.3c-1.2,1.8-3.1,3.3-5.7,4.6
		c3.4,1,5.9,2.5,7.7,4.7c1.8,2.2,2.6,4.8,2.6,7.9c0,4.7-1.9,8.4-5.8,11c-3.8,2.6-9.2,3.9-16.1,3.9h-15.8l7.2-50.6H496.9z
		 M495.1,821.5c4.7,0,8.3-0.7,10.8-2c2.5-1.3,3.7-3.5,3.7-6.5c0-2.6-1.1-4.7-3.3-6.2c-2.2-1.5-5.3-2.2-9.3-2.2h-4.4l-2.5,16.9H495.1
		z M493.5,797.7c0.4,0,0.8,0.1,1.2,0.1h2c3.2,0,5.7-0.6,7.5-1.7s2.7-2.9,2.7-5.2c0-1.9-0.7-3.4-2-4.5s-3.2-1.6-5.5-1.6h-2.1
		c-0.7,0-1.4,0-2,0.1L493.5,797.7z"/>
	<path class="st15" d="M568,799.1c0,5.7-1.1,10.8-3.4,15.3c-2.3,4.6-5.5,8.1-9.5,10.7c-4.1,2.6-8.5,3.9-13.4,3.9
		c-4.1,0-7.7-1-11-2.9c-3.3-1.9-5.8-4.6-7.6-8c-1.8-3.4-2.7-7.2-2.7-11.5c0-3.9,0.7-7.6,2-11.2c1.3-3.6,3.2-6.8,5.7-9.6
		c2.5-2.8,5.3-5,8.6-6.5c3.3-1.5,6.8-2.3,10.5-2.3c4.1,0,7.7,0.9,10.9,2.8c3.2,1.9,5.7,4.5,7.4,7.8S568,794.9,568,799.1z
		 M559.3,798.8c0-2.8-0.5-5.2-1.5-7.4c-1-2.1-2.5-3.8-4.4-5c-1.9-1.2-4.1-1.8-6.6-1.8c-3.2,0-6.1,1-8.7,2.9s-4.8,4.7-6.5,8.2
		c-1.7,3.6-2.5,7.3-2.5,11.2c0,2.9,0.5,5.4,1.6,7.6c1.1,2.2,2.6,3.9,4.5,5.1c1.9,1.2,4.2,1.8,6.7,1.8c3.1,0,6-1,8.8-3
		c2.7-2,4.9-4.8,6.4-8.3C558.5,806.7,559.3,802.9,559.3,798.8z"/>
	<path class="st15" d="M603.5,777.8l-18.3,27.2l-3.3,23.4h-8.6l3.3-23.4l-11.3-27.2h8.7l7.7,19l12.4-19H603.5z"/>
</g>
<linearGradient id="SVGID_15_" gradientUnits="userSpaceOnUse" x1="195" y1="1118" x2="195" y2="1062">
	<stop  offset="0" style="stop-color:#1A1A1A"/>
	<stop  offset="1" style="stop-color:#000000;stop-opacity:0"/>
</linearGradient>
<path class="st19" d="M195,1118L195,1118c-15.5,0-28-12.5-28-28l0,0c0-15.5,12.5-28,28-28h0c15.5,0,28,12.5,28,28l0,0
	C223,1105.5,210.5,1118,195,1118z"/>
<g class="st20">
	<polygon points="182.9,962.6 195.5,939.5 208.1,962.6 	"/>
</g>
<g class="st20">
	<polygon points="208.1,1226.5 195.5,1249.6 182.9,1226.5 	"/>
</g>
<g class="st20">
	<polygon points="62,1104.9 38.9,1092.2 62,1079.6 	"/>
</g>
<g class="st20">
	<polygon points="331.5,1079.6 354.6,1092.2 331.5,1104.9 	"/>
</g>
<g>
	<path class="st15" d="M485.6,1401.9l14.2-6.8l-1.3-2.7l-8.9,4.2c-3.5,1.7-6.1,0.9-7.6-2.3c-1.6-3.3-0.6-5.8,3-7.5l12.4-5.9l1.7,3.5
		l-14.2,6.8l1.3,2.7l8.9-4.2c3.5-1.7,6.1-0.9,7.6,2.3c1.6,3.3,0.6,5.7-3,7.4l-12.4,5.9L485.6,1401.9z"/>
	<path class="st15" d="M501.3,1379.2l17.7-8.5l1.7,3.5l-7.1,3.4l5.9,12.4l-3.5,1.7l-5.9-12.4l-7.1,3.4L501.3,1379.2z"/>
	<path class="st15" d="M531.9,1378.8l2.1,4.4l-3.5,1.7l-5.1-10.6c-1.7-3.5-0.8-6.2,2.8-7.9l7.1-3.4c3.5-1.7,6.2-0.8,7.9,2.8
		l5.1,10.6l-3.5,1.7l-2.1-4.4L531.9,1378.8z M540.8,1370.1l-1.3-2.7c-0.6-1.2-1.4-1.5-2.6-0.9l-7.1,3.4c-1.2,0.6-1.5,1.4-0.9,2.6
		l1.3,2.7L540.8,1370.1z"/>
	<path class="st15" d="M552.6,1366.7l3,6.2l-3.5,1.7l-7.6-16l12.4-5.9c3.5-1.7,6.1-0.9,7.6,2.3c0.7,1.5,1,2.8,0.9,3.8
		c0.9,0.6,1.7,1.6,2.3,2.9l2.1,4.4l-3.5,1.7l-2.1-4.4c-0.6-1.2-1.4-1.5-2.6-0.9L552.6,1366.7z M550.9,1363.1l10.6-5.1l-1.3-2.7
		l-10.6,5.1L550.9,1363.1z"/>
	<path class="st15" d="M566,1348.3l17.7-8.5l1.7,3.5l-7.1,3.4l5.9,12.4l-3.5,1.7l-5.9-12.4l-7.1,3.4L566,1348.3z"/>
</g>
<g>
	<path class="st15" d="M308.8,1407.3l14.2-6.8l-1.3-2.7l-8.9,4.2c-3.5,1.7-6.1,0.9-7.6-2.3c-1.6-3.3-0.6-5.8,3-7.5l12.4-5.9l1.7,3.5
		l-14.2,6.8l1.3,2.7l8.9-4.2c3.5-1.7,6.1-0.9,7.6,2.3c1.6,3.3,0.6,5.7-3,7.4l-12.4,5.9L308.8,1407.3z"/>
	<path class="st15" d="M349.9,1392.1l-12.4,5.9c-3.5,1.7-6.2,0.8-7.9-2.8l-5.1-10.6l17.7-8.5l1.7,3.5l-14.2,6.8l1.3,2.7l14.2-6.8
		l1.7,3.5l-14.2,6.8l0.4,0.9c0.6,1.2,1.4,1.5,2.6,0.9l12.4-5.9L349.9,1392.1z"/>
	<path class="st15" d="M349.6,1372.6l5.1,10.6c0.6,1.2,1.4,1.5,2.6,0.9l12.4-5.9l1.7,3.5l-12.4,5.9c-3.5,1.7-6.2,0.8-7.9-2.8
		l-5.1-10.6L349.6,1372.6z"/>
	<path class="st15" d="M393,1371.5l-12.4,5.9c-3.5,1.7-6.2,0.8-7.9-2.8l-5.1-10.6l17.7-8.5l1.7,3.5l-14.2,6.8l1.3,2.7l14.2-6.8
		l1.7,3.5l-14.2,6.8l0.4,0.9c0.6,1.2,1.4,1.5,2.6,0.9l12.4-5.9L393,1371.5z"/>
	<path class="st15" d="M414.6,1361.2l-12.4,5.9c-3.5,1.7-6.2,0.8-7.9-2.8l-2.5-5.3c-1.7-3.5-0.8-6.2,2.8-7.9l12.4-5.9l1.7,3.5
		l-12.4,5.9c-1.2,0.6-1.5,1.4-0.9,2.6l2.5,5.3c0.6,1.2,1.4,1.5,2.6,0.9l12.4-5.9L414.6,1361.2z"/>
	<path class="st15" d="M410.8,1343.4l17.7-8.5l1.7,3.5l-7.1,3.4l5.9,12.4l-3.5,1.7l-5.9-12.4l-7.1,3.4L410.8,1343.4z"/>
</g>
<g>
	<linearGradient id="SVGID_16_" gradientUnits="userSpaceOnUse" x1="828.3251" y1="1657.6969" x2="742.5734" y2="1434.3058">
		<stop  offset="0" style="stop-color:#FFFFFF;stop-opacity:0"/>
		<stop  offset="0.1106" style="stop-color:#C9C9C9;stop-opacity:2.275125e-02"/>
		<stop  offset="0.2343" style="stop-color:#949494;stop-opacity:4.821323e-02"/>
		<stop  offset="0.3599" style="stop-color:#676767;stop-opacity:7.405567e-02"/>
		<stop  offset="0.4849" style="stop-color:#424242;stop-opacity:9.976206e-02"/>
		<stop  offset="0.609" style="stop-color:#252525;stop-opacity:0.1253"/>
		<stop  offset="0.732" style="stop-color:#101010;stop-opacity:0.1506"/>
		<stop  offset="0.8536" style="stop-color:#040404;stop-opacity:0.1756"/>
		<stop  offset="0.9721" style="stop-color:#000000;stop-opacity:0.2"/>
	</linearGradient>
	<polygon class="st21" points="963.5,1349.5 555,1606 963,1606 	"/>
</g>
<g>
	<linearGradient id="SVGID_17_" gradientUnits="userSpaceOnUse" x1="204" y1="0" x2="204" y2="60">
		<stop  offset="0" style="stop-color:#FFFFFF;stop-opacity:0"/>
		<stop  offset="3.368068e-02" style="stop-color:#EDEDED;stop-opacity:6.736136e-03"/>
		<stop  offset="0.1435" style="stop-color:#B6B6B6;stop-opacity:2.870926e-02"/>
		<stop  offset="0.2572" style="stop-color:#858585;stop-opacity:5.144787e-02"/>
		<stop  offset="0.3723" style="stop-color:#5C5C5C;stop-opacity:7.445774e-02"/>
		<stop  offset="0.4891" style="stop-color:#3B3B3B;stop-opacity:9.782946e-02"/>
		<stop  offset="0.6083" style="stop-color:#212121;stop-opacity:0.1217"/>
		<stop  offset="0.7307" style="stop-color:#0F0F0F;stop-opacity:0.1461"/>
		<stop  offset="0.8584" style="stop-color:#040404;stop-opacity:0.1717"/>
		<stop  offset="1" style="stop-color:#000000;stop-opacity:0.2"/>
	</linearGradient>
	<path class="st22" d="M277.6,13.9h-93.5V0h-10.4v13.9h-9.5V0h-10.4v13.9h-9.5V0h-10.4v13.9h-3.3c-11.3,0-20.4,10.3-20.4,23
		s9.1,23,20.4,23h147.2c11.3,0,20.4-10.3,20.4-23S288.9,13.9,277.6,13.9z"/>
</g>
<g>
	<g>
		<g>
			<path class="st0" d="M164.8,30.6c1.4,1.8,2,4.1,2,6.9c0,3-0.8,5.6-2.3,7.6c-1.8,2.4-4.4,3.6-7.8,3.6c-3.1,0-5.6-1-7.4-3.1
				c-1.6-2-2.4-4.5-2.4-7.6c0-2.8,0.7-5.1,2.1-7.1c1.8-2.5,4.4-3.8,7.8-3.8C160.4,27.1,163.1,28.2,164.8,30.6z M162.4,43.6
				c1.1-1.7,1.6-3.8,1.6-6c0-2.4-0.6-4.3-1.9-5.8c-1.3-1.5-3-2.2-5.1-2.2c-2.1,0-3.8,0.7-5.2,2.2c-1.3,1.5-2,3.6-2,6.4
				c0,2.3,0.6,4.2,1.7,5.7c1.1,1.6,3,2.3,5.6,2.3C159.6,46.2,161.3,45.3,162.4,43.6z"/>
		</g>
		<g>
			<path class="st0" d="M172,27.6h14.2v2.5h-11.4v6.2h10v2.4h-10V48H172V27.6z"/>
		</g>
		<g>
			<path class="st0" d="M191,27.6h14.2v2.5h-11.4v6.2h10v2.4h-10V48H191V27.6z"/>
		</g>
		<g>
			<path class="st0" d="M236.1,30.6c1.4,1.8,2,4.1,2,6.9c0,3-0.8,5.6-2.3,7.6c-1.8,2.4-4.4,3.6-7.8,3.6c-3.1,0-5.6-1-7.4-3.1
				c-1.6-2-2.4-4.5-2.4-7.6c0-2.8,0.7-5.1,2.1-7.1c1.8-2.5,4.4-3.8,7.8-3.8C231.7,27.1,234.4,28.2,236.1,30.6z M233.7,43.6
				c1.1-1.7,1.6-3.8,1.6-6c0-2.4-0.6-4.3-1.9-5.8c-1.3-1.5-3-2.2-5.1-2.2c-2.1,0-3.8,0.7-5.2,2.2c-1.3,1.5-2,3.6-2,6.4
				c0,2.3,0.6,4.2,1.7,5.7c1.1,1.6,3,2.3,5.6,2.3C230.8,46.2,232.6,45.3,233.7,43.6z"/>
		</g>
		<g>
			<path class="st0" d="M243.1,27.6h3.3l10.2,16.5V27.6h2.6V48H256l-10.3-16.5V48h-2.6V27.6z"/>
		</g>
	</g>
	<g>
		<polygon class="st0" points="266.5,27.1 286,37.8 266.6,48.3 		"/>
	</g>
	<g>
		<polygon class="st0" points="141,48.4 121.5,37.6 140.9,27.1 		"/>
	</g>
	<g>
		<circle class="st0" cx="211.1" cy="38.3" r="3.6"/>
	</g>
</g>
</svg>
