<?xml version="1.0" encoding="utf-8"?>
<!-- Generator: Adobe Illustrator 23.0.2, SVG Export Plug-In . SVG Version: 6.00 Build 0)  -->
<svg version="1.1" id="Layer_1" xmlns="http://www.w3.org/2000/svg" xmlns:xlink="http://www.w3.org/1999/xlink" x="0px" y="0px"
	 viewBox="0 0 150 738" style="enable-background:new 0 0 150 738;" xml:space="preserve">
<style type="text/css">
	.st0{fill:#A09F9C;}
	.st1{fill:url(#SVGID_1_);}
	.st2{fill:url(#SVGID_2_);}
	.st3{fill:url(#SVGID_3_);}
	.st4{fill:url(#SVGID_4_);}
	.st5{fill:url(#SVGID_5_);}
	.st6{fill:url(#SVGID_6_);}
	.st7{fill:url(#SVGID_7_);}
	.st8{fill:url(#SVGID_8_);}
	.st9{fill:url(#SVGID_9_);}
	.st10{fill:url(#SVGID_10_);}
	.st11{fill:url(#SVGID_11_);}
	.st12{fill:url(#SVGID_12_);}
	.st13{fill:url(#SVGID_13_);}
	.st14{fill:url(#SVGID_14_);}
	.st15{fill:url(#SVGID_15_);}
	.st16{fill:url(#SVGID_16_);}
	.st17{fill:url(#SVGID_17_);}
	.st18{fill:url(#SVGID_18_);}
	.st19{fill:#999999;}
</style>
<g>
	<rect x="0" class="st0" width="150" height="738"/>
</g>
<linearGradient id="SVGID_1_" gradientUnits="userSpaceOnUse" x1="150" y1="369" x2="77" y2="369">
	<stop  offset="0" style="stop-color:#000000;stop-opacity:0.2"/>
	<stop  offset="0.9721" style="stop-color:#000000;stop-opacity:0.3"/>
</linearGradient>
<polygon class="st1" points="150,25 82,25 82,0 77,0 77,25 77,33 77,738 82,738 82,33 150,33 "/>
<g>
	<linearGradient id="SVGID_2_" gradientUnits="userSpaceOnUse" x1="107" y1="171" x2="107" y2="267">
		<stop  offset="0" style="stop-color:#000000;stop-opacity:0.2"/>
		<stop  offset="0.9986" style="stop-color:#000000;stop-opacity:0.1"/>
	</linearGradient>
	<path class="st2" d="M125.5,267H82v-96h43.5c3.6,0,6.5,2.9,6.5,6.5v83.1C132,264.1,129.1,267,125.5,267z"/>
</g>
<g>
	
		<linearGradient id="SVGID_3_" gradientUnits="userSpaceOnUse" x1="333.6145" y1="276" x2="333.6145" y2="161" gradientTransform="matrix(-1 0 0 -1 400.1145 438)">
		<stop  offset="0" style="stop-color:#000000;stop-opacity:0.1"/>
		<stop  offset="0.9986" style="stop-color:#000000;stop-opacity:5.000000e-02"/>
	</linearGradient>
	<path class="st3" d="M62.5,162H77v115H62.5c-3.6,0-6.5-2.9-6.5-6.5V168.5C56,164.9,58.9,162,62.5,162z"/>
</g>
<linearGradient id="SVGID_4_" gradientUnits="userSpaceOnUse" x1="84.5" y1="191" x2="84.5" y2="247">
	<stop  offset="0" style="stop-color:#1A1A1A"/>
	<stop  offset="1" style="stop-color:#333333"/>
</linearGradient>
<rect x="79" y="191" class="st4" width="11" height="56"/>
<linearGradient id="SVGID_5_" gradientUnits="userSpaceOnUse" x1="37.5" y1="356" x2="37.5" y2="366.96">
	<stop  offset="0" style="stop-color:#000000;stop-opacity:0.3"/>
	<stop  offset="0.9986" style="stop-color:#000000;stop-opacity:0"/>
</linearGradient>
<rect y="356" class="st5" width="75" height="11"/>
<linearGradient id="SVGID_6_" gradientUnits="userSpaceOnUse" x1="37.5" y1="377.92" x2="37.5" y2="388.88">
	<stop  offset="0" style="stop-color:#000000;stop-opacity:0.3"/>
	<stop  offset="0.9986" style="stop-color:#000000;stop-opacity:0"/>
</linearGradient>
<rect y="377.9" class="st6" width="75" height="11"/>
<linearGradient id="SVGID_7_" gradientUnits="userSpaceOnUse" x1="37.5" y1="399.84" x2="37.5" y2="410.8">
	<stop  offset="0" style="stop-color:#000000;stop-opacity:0.3"/>
	<stop  offset="0.9986" style="stop-color:#000000;stop-opacity:0"/>
</linearGradient>
<rect y="399.8" class="st7" width="75" height="11"/>
<linearGradient id="SVGID_8_" gradientUnits="userSpaceOnUse" x1="37.5" y1="421.76" x2="37.5" y2="432.72">
	<stop  offset="0" style="stop-color:#000000;stop-opacity:0.3"/>
	<stop  offset="0.9986" style="stop-color:#000000;stop-opacity:0"/>
</linearGradient>
<rect y="421.8" class="st8" width="75" height="11"/>
<linearGradient id="SVGID_9_" gradientUnits="userSpaceOnUse" x1="37.5" y1="443.68" x2="37.5" y2="454.64">
	<stop  offset="0" style="stop-color:#000000;stop-opacity:0.3"/>
	<stop  offset="0.9986" style="stop-color:#000000;stop-opacity:0"/>
</linearGradient>
<rect y="443.7" class="st9" width="75" height="11"/>
<linearGradient id="SVGID_10_" gradientUnits="userSpaceOnUse" x1="37.5" y1="465.6" x2="37.5" y2="476.56">
	<stop  offset="0" style="stop-color:#000000;stop-opacity:0.3"/>
	<stop  offset="0.9986" style="stop-color:#000000;stop-opacity:0"/>
</linearGradient>
<rect y="465.6" class="st10" width="75" height="11"/>
<linearGradient id="SVGID_11_" gradientUnits="userSpaceOnUse" x1="37.5" y1="487.52" x2="37.5" y2="498.48">
	<stop  offset="0" style="stop-color:#000000;stop-opacity:0.3"/>
	<stop  offset="0.9986" style="stop-color:#000000;stop-opacity:0"/>
</linearGradient>
<rect y="487.5" class="st11" width="75" height="11"/>
<linearGradient id="SVGID_12_" gradientUnits="userSpaceOnUse" x1="37.5" y1="509.44" x2="37.5" y2="520.4">
	<stop  offset="0" style="stop-color:#000000;stop-opacity:0.3"/>
	<stop  offset="0.9986" style="stop-color:#000000;stop-opacity:0"/>
</linearGradient>
<rect y="509.4" class="st12" width="75" height="11"/>
<linearGradient id="SVGID_13_" gradientUnits="userSpaceOnUse" x1="37.5" y1="531.36" x2="37.5" y2="542.32">
	<stop  offset="0" style="stop-color:#000000;stop-opacity:0.3"/>
	<stop  offset="0.9986" style="stop-color:#000000;stop-opacity:0"/>
</linearGradient>
<rect y="531.4" class="st13" width="75" height="11"/>
<linearGradient id="SVGID_14_" gradientUnits="userSpaceOnUse" x1="37.5" y1="553.28" x2="37.5" y2="564.24">
	<stop  offset="0" style="stop-color:#000000;stop-opacity:0.3"/>
	<stop  offset="0.9986" style="stop-color:#000000;stop-opacity:0"/>
</linearGradient>
<rect y="553.3" class="st14" width="75" height="11"/>
<linearGradient id="SVGID_15_" gradientUnits="userSpaceOnUse" x1="37.5" y1="575.2" x2="37.5" y2="586.16">
	<stop  offset="0" style="stop-color:#000000;stop-opacity:0.3"/>
	<stop  offset="0.9986" style="stop-color:#000000;stop-opacity:0"/>
</linearGradient>
<rect y="575.2" class="st15" width="75" height="11"/>
<linearGradient id="SVGID_16_" gradientUnits="userSpaceOnUse" x1="37.5" y1="597.12" x2="37.5" y2="608.08">
	<stop  offset="0" style="stop-color:#000000;stop-opacity:0.3"/>
	<stop  offset="0.9986" style="stop-color:#000000;stop-opacity:0"/>
</linearGradient>
<rect y="597.1" class="st16" width="75" height="11"/>
<linearGradient id="SVGID_17_" gradientUnits="userSpaceOnUse" x1="37.5" y1="619.04" x2="37.5" y2="630">
	<stop  offset="0" style="stop-color:#000000;stop-opacity:0.3"/>
	<stop  offset="0.9986" style="stop-color:#000000;stop-opacity:0"/>
</linearGradient>
<rect y="619" class="st17" width="75" height="11"/>
<linearGradient id="SVGID_18_" gradientUnits="userSpaceOnUse" x1="28.6203" y1="137.2412" x2="62.992" y2="136.6412">
	<stop  offset="0" style="stop-color:#A09F9C"/>
	<stop  offset="0.2371" style="stop-color:#9D9C99;stop-opacity:0.8103"/>
	<stop  offset="0.3956" style="stop-color:#949391;stop-opacity:0.6835"/>
	<stop  offset="0.5312" style="stop-color:#858482;stop-opacity:0.5751"/>
	<stop  offset="0.6538" style="stop-color:#706F6D;stop-opacity:0.4769"/>
	<stop  offset="0.7677" style="stop-color:#545452;stop-opacity:0.3858"/>
	<stop  offset="0.8752" style="stop-color:#323231;stop-opacity:0.2998"/>
	<stop  offset="0.9758" style="stop-color:#0B0B0A;stop-opacity:0.2193"/>
	<stop  offset="1" style="stop-color:#000000;stop-opacity:0.2"/>
</linearGradient>
<path class="st18" d="M29.3,115.5c-0.1,0-0.2,0-0.3,0V159c0.1,0,0.2,0,0.3,0c18.6,0,33.7-9.7,33.7-21.8
	C63,125.2,47.9,115.5,29.3,115.5z"/>
<g>
	<circle cx="38" cy="137" r="12"/>
</g>
<circle class="st19" cx="38" cy="137" r="4.5"/>
</svg>
