<?xml version="1.0" encoding="utf-8"?>
<!-- Generator: Adobe Illustrator 23.0.2, SVG Export Plug-In . SVG Version: 6.00 Build 0)  -->
<svg version="1.1" id="Layer_1" xmlns="http://www.w3.org/2000/svg" xmlns:xlink="http://www.w3.org/1999/xlink" x="0px" y="0px"
	 viewBox="0 0 1920 1080" style="enable-background:new 0 0 1920 1080;" xml:space="preserve">
<style type="text/css">
	.st0{fill:#A09F9C;}
	.st1{fill:#545760;}
	.st2{fill:url(#SVGID_1_);}
	.st3{fill:url(#SVGID_2_);}
	.st4{fill:url(#SVGID_3_);}
	.st5{fill:url(#SVGID_4_);}
	.st6{fill:url(#SVGID_5_);}
	.st7{fill:url(#SVGID_6_);}
	.st8{fill:url(#SVGID_7_);}
	.st9{fill:url(#SVGID_8_);}
	.st10{fill:url(#SVGID_9_);}
	.st11{fill:url(#SVGID_10_);}
	.st12{fill:url(#SVGID_11_);}
	.st13{fill:url(#SVGID_12_);}
	.st14{fill:url(#SVGID_13_);}
	.st15{fill:#0A147D;}
	.st16{fill:#C92C61;}
	.st17{fill:#FFFFFF;}
	.st18{fill:url(#SVGID_14_);}
	.st19{fill:url(#SVGID_15_);}
	.st20{opacity:0.11;}
	.st21{fill:url(#SVGID_16_);}
	.st22{fill:url(#SVGID_17_);}
	.st23{fill:url(#SVGID_18_);}
	.st24{fill:url(#SVGID_19_);}
	.st25{fill:url(#SVGID_20_);}
	.st26{fill:url(#SVGID_21_);}
	.st27{fill:url(#SVGID_22_);}
	.st28{fill:url(#SVGID_23_);}
	.st29{fill:url(#SVGID_24_);}
	.st30{fill:url(#SVGID_25_);}
	.st31{fill:url(#SVGID_26_);}
	.st32{fill:url(#SVGID_27_);}
	.st33{fill:url(#SVGID_28_);}
	.st34{fill:url(#SVGID_29_);}
	.st35{fill:url(#SVGID_30_);}
	.st36{fill:url(#SVGID_31_);}
	.st37{fill:url(#SVGID_32_);}
	.st38{fill:url(#SVGID_33_);}
	.st39{fill:url(#SVGID_34_);}
	.st40{fill:url(#SVGID_35_);}
	.st41{fill:#999999;}
	.st42{fill:url(#SVGID_36_);}
	.st43{fill:url(#SVGID_37_);}
	.st44{fill:url(#SVGID_38_);}
	.st45{fill:url(#SVGID_39_);}
	.st46{fill:url(#SVGID_40_);}
	.st47{fill:url(#SVGID_41_);}
	.st48{fill:url(#SVGID_42_);}
	.st49{fill:url(#SVGID_43_);}
	.st50{fill:url(#SVGID_44_);}
	.st51{fill:url(#SVGID_45_);}
	.st52{fill:url(#SVGID_46_);}
	.st53{fill:url(#SVGID_47_);}
	.st54{fill:url(#SVGID_48_);}
	.st55{fill:url(#SVGID_49_);}
	.st56{fill:url(#SVGID_50_);}
	.st57{fill:url(#SVGID_51_);}
	.st58{fill:url(#SVGID_52_);}
	.st59{fill:url(#SVGID_53_);}
	.st60{fill:url(#SVGID_54_);}
	.st61{fill:#212121;}
	.st62{fill:url(#SVGID_55_);}
	.st63{fill:#6B6B6B;}
	.st64{fill:url(#SVGID_56_);}
	.st65{fill:url(#SVGID_57_);}
	.st66{fill:url(#SVGID_58_);}
	.st67{fill:#161616;}
	.st68{fill:url(#SVGID_59_);}
	.st69{fill:url(#SVGID_60_);}
	.st70{fill:url(#SVGID_61_);}
	.st71{fill:url(#SVGID_62_);}
</style>
<g id="MAuTH3.tif">
	
		<image style="overflow:visible;" width="1000" height="1641" id="Layer_0_1_" xlink:href="335C7476860CF0CE.png"  transform="matrix(1 0 0 1 -2802 -412)">
	</image>
</g>
<g>
	<polygon class="st0" points="-338.7,783 -541.4,783 -788.3,783 -788.3,33.2 -338.7,33.2 	"/>
</g>
<path class="st1" d="M-437.9,387.1h-297.3c-9.7,0-17.6-7.9-17.6-17.6v-258c0-9.7,7.9-17.6,17.6-17.6h347.6c9.7,0,17.6,7.9,17.6,17.6
	v207.7C-370,356.7-400.4,387.1-437.9,387.1z"/>
<g>
	<linearGradient id="SVGID_1_" gradientUnits="userSpaceOnUse" x1="-419.5847" y1="570.8821" x2="-451.5604" y2="502.3102">
		<stop  offset="0" style="stop-color:#FFFFFF;stop-opacity:0"/>
		<stop  offset="0.1106" style="stop-color:#C9C9C9;stop-opacity:2.275125e-02"/>
		<stop  offset="0.2343" style="stop-color:#949494;stop-opacity:4.821323e-02"/>
		<stop  offset="0.3599" style="stop-color:#676767;stop-opacity:7.405567e-02"/>
		<stop  offset="0.4849" style="stop-color:#424242;stop-opacity:9.976206e-02"/>
		<stop  offset="0.609" style="stop-color:#252525;stop-opacity:0.1253"/>
		<stop  offset="0.732" style="stop-color:#101010;stop-opacity:0.1506"/>
		<stop  offset="0.8536" style="stop-color:#040404;stop-opacity:0.1756"/>
		<stop  offset="0.9721" style="stop-color:#000000;stop-opacity:0.2"/>
	</linearGradient>
	<path class="st2" d="M-383.6,553.8l-71.9,33.8c-18.8,8.9-41.3,0.8-50.1-18l0,0c-8.9-18.8-0.8-41.3,18-50.1l71.9-33.8
		c18.8-8.9,41.3-0.8,50.1,18l0,0C-356.7,522.5-364.8,544.9-383.6,553.8z"/>
</g>
<g>
	<rect x="-683.2" y="127.6" width="243.7" height="222.7"/>
</g>
<g>
	<linearGradient id="SVGID_2_" gradientUnits="userSpaceOnUse" x1="-563.5" y1="33.25" x2="-563.5" y2="72.9325">
		<stop  offset="0" style="stop-color:#000000;stop-opacity:0"/>
		<stop  offset="0.9721" style="stop-color:#000000;stop-opacity:0.2"/>
	</linearGradient>
	<polygon class="st3" points="-366.3,65.5 -366.3,33.2 -373.7,33.2 -373.7,65.5 -747.7,65.5 -747.7,33.2 -755.1,33.2 -755.1,65.5 
		-788.3,65.5 -788.3,72.9 -338.7,72.9 -338.7,65.5 	"/>
</g>
<g>
	<path d="M-725.5,198L-725.5,198c-3.5,0-6.3,2.8-6.3,6.3v0c0,3.5,2.8,6.3,6.3,6.3h0c3.5,0,6.3-2.8,6.3-6.3v0
		C-719.2,200.9-722,198-725.5,198L-725.5,198z"/>
</g>
<linearGradient id="SVGID_3_" gradientUnits="userSpaceOnUse" x1="-545.1254" y1="659.7961" x2="-551.5291" y2="646.6666">
	<stop  offset="0" style="stop-color:#1A1A1A"/>
	<stop  offset="0.5606" style="stop-color:#393B40"/>
	<stop  offset="1" style="stop-color:#545760"/>
</linearGradient>
<path class="st4" d="M-525.5,650.2l-39.7,18.7c-3.5,1.6-7.7,0.1-9.3-3.4v0c-1.6-3.5-0.1-7.7,3.4-9.3l39.7-18.7
	c3.5-1.6,7.7-0.1,9.3,3.4l0,0C-520.5,644.4-522,648.6-525.5,650.2z"/>
<linearGradient id="SVGID_4_" gradientUnits="userSpaceOnUse" x1="-622.6231" y1="659.7961" x2="-629.0267" y2="646.6666">
	<stop  offset="0" style="stop-color:#1A1A1A"/>
	<stop  offset="0.5606" style="stop-color:#393B40"/>
	<stop  offset="1" style="stop-color:#545760"/>
</linearGradient>
<path class="st5" d="M-603,650.2l-39.7,18.7c-3.5,1.6-7.7,0.1-9.3-3.4v0c-1.6-3.5-0.1-7.7,3.4-9.3l39.7-18.7
	c3.5-1.6,7.7-0.1,9.3,3.4l0,0C-598,644.4-599.5,648.6-603,650.2z"/>
<g>
	<path d="M-642.5,523.9h-31c-1.8,0-3.2-1.4-3.2-3.2v-31c0-1.8-1.4-3.2-3.2-3.2h-32.4c-1.8,0-3.2,1.4-3.2,3.2v31
		c0,1.8-1.4,3.2-3.2,3.2h-31c-1.8,0-3.2,1.4-3.2,3.2v32.4c0,1.8,1.4,3.2,3.2,3.2h31c1.8,0,3.2,1.4,3.2,3.2v31c0,1.8,1.4,3.2,3.2,3.2
		h32.4c1.8,0,3.2-1.4,3.2-3.2v-31c0-1.8,1.4-3.2,3.2-3.2h31c1.8,0,3.2-1.4,3.2-3.2v-32.4C-639.4,525.3-640.8,523.9-642.5,523.9z"/>
</g>
<linearGradient id="SVGID_5_" gradientUnits="userSpaceOnUse" x1="-396.5999" y1="492.1669" x2="-396.5999" y2="546.3219">
	<stop  offset="0" style="stop-color:#7E0C44"/>
	<stop  offset="0.2833" style="stop-color:#7B0C43"/>
	<stop  offset="0.4541" style="stop-color:#730B3E"/>
	<stop  offset="0.5953" style="stop-color:#650A36"/>
	<stop  offset="0.7201" style="stop-color:#50082B"/>
	<stop  offset="0.8342" style="stop-color:#36051D"/>
	<stop  offset="0.939" style="stop-color:#16020C"/>
	<stop  offset="1" style="stop-color:#000000"/>
</linearGradient>
<circle class="st6" cx="-396.6" cy="519.2" r="27.1"/>
<linearGradient id="SVGID_6_" gradientUnits="userSpaceOnUse" x1="-471.2964" y1="526.7141" x2="-471.2964" y2="580.869">
	<stop  offset="0" style="stop-color:#7E0C44"/>
	<stop  offset="0.2833" style="stop-color:#7B0C43"/>
	<stop  offset="0.4541" style="stop-color:#730B3E"/>
	<stop  offset="0.5953" style="stop-color:#650A36"/>
	<stop  offset="0.7201" style="stop-color:#50082B"/>
	<stop  offset="0.8342" style="stop-color:#36051D"/>
	<stop  offset="0.939" style="stop-color:#16020C"/>
	<stop  offset="1" style="stop-color:#000000"/>
</linearGradient>
<circle class="st7" cx="-471.3" cy="553.8" r="27.1"/>
<g>
	<linearGradient id="SVGID_7_" gradientUnits="userSpaceOnUse" x1="-479.7359" y1="774.1988" x2="-495.5362" y2="699.8641">
		<stop  offset="0" style="stop-color:#4F4F4D;stop-opacity:0.6"/>
		<stop  offset="1" style="stop-color:#000000"/>
	</linearGradient>
	<path class="st8" d="M-466.6,764.7l-33-60.2c-1.4-2.5-4.5-3.4-7-2c-0.7,0.4-1.3,1-1.8,1.6c-1,1.5-1.2,3.6-0.3,5.4l20.9,38.1
		l12.1,22.1c1.4,2.5,4.5,3.4,7,2C-466.2,770.3-465.3,767.1-466.6,764.7z"/>
</g>
<g>
	<g>
		<linearGradient id="SVGID_8_" gradientUnits="userSpaceOnUse" x1="-457.4855" y1="760.4953" x2="-473.2858" y2="686.1606">
			<stop  offset="0" style="stop-color:#4F4F4D;stop-opacity:0.6"/>
			<stop  offset="1" style="stop-color:#000000"/>
		</linearGradient>
		<path class="st9" d="M-485.1,688.9c-0.7,0.4-1.3,1-1.8,1.6l23.1,42.1l-2.5,1.3l12.1,22.1c1.4,2.5,4.5,3.4,7,2s3.4-4.5,2-7
			l-33-60.2C-479.5,688.4-482.6,687.5-485.1,688.9z"/>
	</g>
	<g>
		<path d="M-486.9,690.5c-1,1.5-1.2,3.6-0.3,5.4l20.9,38.1l2.5-1.3L-486.9,690.5z"/>
	</g>
</g>
<g>
	<g>
		<linearGradient id="SVGID_9_" gradientUnits="userSpaceOnUse" x1="-436.0102" y1="746.9565" x2="-451.8105" y2="672.6218">
			<stop  offset="0" style="stop-color:#4F4F4D;stop-opacity:0.6"/>
			<stop  offset="1" style="stop-color:#000000"/>
		</linearGradient>
		<path class="st10" d="M-463.6,675.4c-0.7,0.4-1.3,1-1.8,1.6l23.1,42.1l-2.5,1.3l12.1,22.1c1.4,2.5,4.5,3.4,7,2s3.4-4.5,2-7
			l-33-60.2C-458,674.9-461.2,674-463.6,675.4z"/>
	</g>
	<g>
		<path d="M-465.4,677c-1,1.5-1.2,3.6-0.3,5.4l20.9,38.1l2.5-1.3L-465.4,677z"/>
	</g>
</g>
<g>
	<g>
		<linearGradient id="SVGID_10_" gradientUnits="userSpaceOnUse" x1="-414.5349" y1="733.4178" x2="-430.3353" y2="659.0831">
			<stop  offset="0" style="stop-color:#4F4F4D;stop-opacity:0.6"/>
			<stop  offset="1" style="stop-color:#000000"/>
		</linearGradient>
		<path class="st11" d="M-442.2,661.8c-0.7,0.4-1.3,1-1.8,1.6l23.1,42.1l-2.5,1.3l12.1,22.1c1.4,2.5,4.5,3.4,7,2
			c2.5-1.4,3.4-4.5,2-7l-33-60.2C-436.6,661.4-439.7,660.5-442.2,661.8z"/>
	</g>
	<g>
		<path d="M-443.9,663.4c-1,1.5-1.2,3.6-0.3,5.4l20.9,38.1l2.5-1.3L-443.9,663.4z"/>
	</g>
</g>
<g>
	<g>
		<linearGradient id="SVGID_11_" gradientUnits="userSpaceOnUse" x1="-393.0597" y1="719.879" x2="-408.86" y2="645.5444">
			<stop  offset="0" style="stop-color:#4F4F4D;stop-opacity:0.6"/>
			<stop  offset="1" style="stop-color:#000000"/>
		</linearGradient>
		<path class="st12" d="M-420.7,648.3c-0.7,0.4-1.3,1-1.8,1.6l23.1,42.1l-2.5,1.3l12.1,22.1c1.4,2.5,4.5,3.4,7,2
			c2.5-1.4,3.4-4.5,2-7l-33-60.2C-415.1,647.8-418.2,646.9-420.7,648.3z"/>
	</g>
	<g>
		<path d="M-422.5,649.9c-1,1.5-1.2,3.6-0.3,5.4l20.9,38.1l2.5-1.3L-422.5,649.9z"/>
	</g>
</g>
<g>
	<g>
		<linearGradient id="SVGID_12_" gradientUnits="userSpaceOnUse" x1="-371.5844" y1="706.3403" x2="-387.3848" y2="632.0056">
			<stop  offset="0" style="stop-color:#4F4F4D;stop-opacity:0.6"/>
			<stop  offset="1" style="stop-color:#000000"/>
		</linearGradient>
		<path class="st13" d="M-399.2,634.7c-0.7,0.4-1.3,1-1.8,1.6l23.1,42.1l-2.5,1.3l12.1,22.1c1.4,2.5,4.5,3.4,7,2s3.4-4.5,2-7
			l-33-60.2C-393.6,634.3-396.7,633.4-399.2,634.7z"/>
	</g>
	<g>
		<path d="M-401,636.4c-1,1.5-1.2,3.6-0.3,5.4l20.9,38.1l2.5-1.3L-401,636.4z"/>
	</g>
</g>
<g>
	<linearGradient id="SVGID_13_" gradientUnits="userSpaceOnUse" x1="-588.7101" y1="783.25" x2="-588.7101" y2="753.8383">
		<stop  offset="0" style="stop-color:#000000;stop-opacity:0"/>
		<stop  offset="1" style="stop-color:#000000;stop-opacity:0.3"/>
	</linearGradient>
	<path class="st14" d="M-561.2,753.8h-55.1c-5.2,0-9.3,4.2-9.3,9.3l0,0c0,5.2,4.2,9.3,9.3,9.3h27.5v10.7h6.5v-10.7h4.7v10.7h6.5
		v-10.7h4.7v10.7h6.5v-10.7h-1.4c5.2,0,9.3-4.2,9.3-9.3l0,0C-551.8,758-556,753.8-561.2,753.8z"/>
</g>
<rect x="-737.2" y="113.8" class="st15" width="102.7" height="2.8"/>
<rect x="-737.2" y="107.2" class="st16" width="102.7" height="2.8"/>
<rect x="-430.2" y="113.9" class="st15" width="44.1" height="2.9"/>
<rect x="-430.2" y="107.2" class="st16" width="44.1" height="2.9"/>
<g>
	<path class="st17" d="M-627.9,116.3v-8.7h3c0.7,0,1.2,0,1.6,0.1c0.5,0.1,0.9,0.3,1.3,0.6c0.5,0.4,0.8,0.9,1,1.5
		c0.2,0.6,0.3,1.3,0.3,2.1c0,0.7-0.1,1.3-0.2,1.8c-0.2,0.5-0.4,0.9-0.6,1.3c-0.2,0.3-0.5,0.6-0.8,0.8c-0.3,0.2-0.6,0.3-1,0.4
		c-0.4,0.1-0.9,0.1-1.4,0.1H-627.9z M-626.7,115.3h1.9c0.6,0,1-0.1,1.4-0.2c0.3-0.1,0.6-0.3,0.8-0.5c0.3-0.3,0.5-0.6,0.6-1.1
		c0.2-0.5,0.2-1,0.2-1.7c0-0.9-0.2-1.6-0.4-2.1c-0.3-0.5-0.7-0.8-1.1-1c-0.3-0.1-0.8-0.2-1.5-0.2h-1.8V115.3z"/>
	<path class="st17" d="M-620,112.1c0-1.4,0.4-2.6,1.2-3.4c0.8-0.8,1.8-1.2,3-1.2c0.8,0,1.5,0.2,2.2,0.6s1.1,0.9,1.5,1.6
		s0.5,1.5,0.5,2.3c0,0.9-0.2,1.7-0.5,2.4c-0.4,0.7-0.9,1.2-1.5,1.6c-0.7,0.4-1.4,0.5-2.1,0.5c-0.8,0-1.6-0.2-2.2-0.6
		c-0.6-0.4-1.1-0.9-1.5-1.6C-619.9,113.6-620,112.8-620,112.1z M-618.9,112.1c0,1.1,0.3,1.9,0.8,2.5c0.6,0.6,1.3,0.9,2.1,0.9
		c0.9,0,1.6-0.3,2.1-0.9c0.6-0.6,0.8-1.5,0.8-2.6c0-0.7-0.1-1.3-0.4-1.9c-0.2-0.5-0.6-0.9-1.1-1.2c-0.5-0.3-1-0.4-1.6-0.4
		c-0.8,0-1.5,0.3-2.1,0.8C-618.6,109.8-618.9,110.8-618.9,112.1z"/>
	<path class="st17" d="M-608.6,116.3v-7.7h-2.9v-1h6.9v1h-2.9v7.7H-608.6z"/>
	<path class="st17" d="M-601.6,116.3v-8.7h1.7l2.1,6.2c0.2,0.6,0.3,1,0.4,1.3c0.1-0.3,0.3-0.8,0.5-1.4l2.1-6.1h1.6v8.7h-1.1V109
		l-2.5,7.3h-1l-2.5-7.4v7.4H-601.6z"/>
	<path class="st17" d="M-593,116.3l3.4-8.7h1.2l3.6,8.7h-1.3l-1-2.6h-3.7l-1,2.6H-593z M-590.4,112.7h3l-0.9-2.4
		c-0.3-0.7-0.5-1.3-0.6-1.8c-0.1,0.6-0.3,1.1-0.5,1.7L-590.4,112.7z"/>
	<path class="st17" d="M-583.2,116.3v-7.7h-2.9v-1h6.9v1h-2.9v7.7H-583.2z"/>
	<path class="st17" d="M-578.6,116.3v-8.7h3.9c0.8,0,1.4,0.1,1.8,0.2c0.4,0.2,0.7,0.4,1,0.8c0.2,0.4,0.4,0.8,0.4,1.3
		c0,0.6-0.2,1.1-0.6,1.6c-0.4,0.4-1,0.7-1.9,0.8c0.3,0.1,0.5,0.3,0.7,0.4c0.3,0.3,0.7,0.7,1,1.2l1.5,2.4h-1.5l-1.2-1.8
		c-0.3-0.5-0.6-0.9-0.8-1.2c-0.2-0.3-0.4-0.5-0.6-0.6c-0.2-0.1-0.3-0.2-0.5-0.2c-0.1,0-0.3,0-0.6,0h-1.3v3.9H-578.6z M-577.4,111.5
		h2.5c0.5,0,0.9-0.1,1.2-0.2c0.3-0.1,0.5-0.3,0.7-0.5c0.2-0.2,0.2-0.5,0.2-0.8c0-0.4-0.1-0.8-0.4-1c-0.3-0.3-0.8-0.4-1.4-0.4h-2.8
		V111.5z"/>
	<path class="st17" d="M-570.3,116.3v-8.7h1.2v8.7H-570.3z"/>
	<path class="st17" d="M-568.6,116.3l3.4-4.6l-3-4.2h1.4l1.6,2.2c0.3,0.5,0.6,0.8,0.7,1.1c0.2-0.3,0.4-0.6,0.7-1l1.8-2.3h1.3
		l-3.1,4.1l3.3,4.6h-1.4l-2.2-3.1c-0.1-0.2-0.3-0.4-0.4-0.6c-0.2,0.3-0.3,0.5-0.4,0.7l-2.2,3H-568.6z"/>
	<path class="st17" d="M-555.9,116.3l-2.3-8.7h1.2l1.3,5.7c0.1,0.6,0.3,1.2,0.4,1.8c0.2-0.9,0.4-1.5,0.4-1.6l1.7-5.9h1.4l1.3,4.4
		c0.3,1.1,0.5,2.1,0.7,3.1c0.1-0.6,0.3-1.2,0.4-1.9l1.4-5.6h1.2l-2.4,8.7h-1.1l-1.8-6.7c-0.2-0.6-0.2-0.9-0.3-1
		c-0.1,0.4-0.2,0.7-0.3,1l-1.9,6.7H-555.9z"/>
	<path class="st17" d="M-546.4,116.3v-8.7h1.2v8.7H-546.4z"/>
	<path class="st17" d="M-541.6,116.3v-7.7h-2.9v-1h6.9v1h-2.9v7.7H-541.6z"/>
	<path class="st17" d="M-537,116.3v-8.7h1.2v3.6h4.5v-3.6h1.2v8.7h-1.2v-4.1h-4.5v4.1H-537z"/>
	<path class="st17" d="M-526.5,113.5l1.1-0.1c0.1,0.4,0.2,0.8,0.4,1.1c0.2,0.3,0.5,0.5,0.9,0.7c0.4,0.2,0.8,0.3,1.3,0.3
		c0.4,0,0.8-0.1,1.2-0.2c0.3-0.1,0.6-0.3,0.8-0.5s0.2-0.5,0.2-0.7c0-0.3-0.1-0.5-0.2-0.7c-0.2-0.2-0.4-0.4-0.8-0.5
		c-0.2-0.1-0.8-0.2-1.6-0.4c-0.8-0.2-1.4-0.4-1.7-0.5c-0.4-0.2-0.7-0.5-0.9-0.8c-0.2-0.3-0.3-0.7-0.3-1.1c0-0.4,0.1-0.9,0.4-1.2
		c0.3-0.4,0.6-0.7,1.1-0.9c0.5-0.2,1-0.3,1.6-0.3c0.6,0,1.2,0.1,1.7,0.3c0.5,0.2,0.9,0.5,1.1,0.9c0.3,0.4,0.4,0.9,0.4,1.4l-1.1,0.1
		c-0.1-0.6-0.3-1-0.6-1.3s-0.9-0.4-1.5-0.4c-0.7,0-1.2,0.1-1.5,0.4c-0.3,0.3-0.5,0.6-0.5,0.9c0,0.3,0.1,0.6,0.3,0.8
		c0.2,0.2,0.8,0.4,1.7,0.6s1.6,0.4,1.9,0.6c0.5,0.2,0.9,0.5,1.1,0.9c0.2,0.4,0.4,0.8,0.4,1.2c0,0.5-0.1,0.9-0.4,1.3
		c-0.3,0.4-0.6,0.7-1.1,1c-0.5,0.2-1.1,0.3-1.7,0.3c-0.8,0-1.5-0.1-2-0.3c-0.5-0.2-1-0.6-1.3-1
		C-526.4,114.6-526.5,114.1-526.5,113.5z"/>
	<path class="st17" d="M-516.4,116.3v-7.7h-2.9v-1h6.9v1h-2.9v7.7H-516.4z"/>
	<path class="st17" d="M-511.8,116.3v-8.7h6.3v1h-5.2v2.7h4.8v1h-4.8v3h5.4v1H-511.8z"/>
	<path class="st17" d="M-504.3,116.3v-8.7h3.9c0.8,0,1.4,0.1,1.8,0.2c0.4,0.2,0.7,0.4,1,0.8c0.2,0.4,0.4,0.8,0.4,1.3
		c0,0.6-0.2,1.1-0.6,1.6c-0.4,0.4-1,0.7-1.9,0.8c0.3,0.1,0.5,0.3,0.7,0.4c0.3,0.3,0.7,0.7,1,1.2l1.5,2.4h-1.5l-1.2-1.8
		c-0.3-0.5-0.6-0.9-0.8-1.2c-0.2-0.3-0.4-0.5-0.6-0.6c-0.2-0.1-0.3-0.2-0.5-0.2c-0.1,0-0.3,0-0.6,0h-1.3v3.9H-504.3z M-503.2,111.5
		h2.5c0.5,0,0.9-0.1,1.2-0.2c0.3-0.1,0.5-0.3,0.7-0.5c0.2-0.2,0.2-0.5,0.2-0.8c0-0.4-0.1-0.8-0.4-1c-0.3-0.3-0.8-0.4-1.4-0.4h-2.8
		V111.5z"/>
	<path class="st17" d="M-496.2,116.3v-8.7h6.3v1h-5.2v2.7h4.8v1h-4.8v3h5.4v1H-496.2z"/>
	<path class="st17" d="M-489,112.1c0-1.4,0.4-2.6,1.2-3.4c0.8-0.8,1.8-1.2,3-1.2c0.8,0,1.5,0.2,2.2,0.6c0.6,0.4,1.1,0.9,1.5,1.6
		s0.5,1.5,0.5,2.3c0,0.9-0.2,1.7-0.5,2.4c-0.4,0.7-0.9,1.2-1.5,1.6c-0.7,0.4-1.4,0.5-2.1,0.5c-0.8,0-1.6-0.2-2.2-0.6
		c-0.6-0.4-1.1-0.9-1.5-1.6C-488.9,113.6-489,112.8-489,112.1z M-487.9,112.1c0,1.1,0.3,1.9,0.8,2.5c0.6,0.6,1.3,0.9,2.1,0.9
		c0.9,0,1.6-0.3,2.1-0.9c0.6-0.6,0.8-1.5,0.8-2.6c0-0.7-0.1-1.3-0.4-1.9s-0.6-0.9-1.1-1.2c-0.5-0.3-1-0.4-1.6-0.4
		c-0.8,0-1.5,0.3-2.1,0.8C-487.6,109.8-487.9,110.8-487.9,112.1z"/>
	<path class="st17" d="M-477.5,113.5l1.1-0.1c0.1,0.4,0.2,0.8,0.4,1.1c0.2,0.3,0.5,0.5,0.9,0.7c0.4,0.2,0.8,0.3,1.3,0.3
		c0.4,0,0.8-0.1,1.2-0.2s0.6-0.3,0.8-0.5c0.2-0.2,0.2-0.5,0.2-0.7c0-0.3-0.1-0.5-0.2-0.7c-0.2-0.2-0.4-0.4-0.8-0.5
		c-0.2-0.1-0.8-0.2-1.6-0.4c-0.8-0.2-1.4-0.4-1.7-0.5c-0.4-0.2-0.7-0.5-0.9-0.8c-0.2-0.3-0.3-0.7-0.3-1.1c0-0.4,0.1-0.9,0.4-1.2
		c0.3-0.4,0.6-0.7,1.1-0.9c0.5-0.2,1-0.3,1.6-0.3c0.6,0,1.2,0.1,1.7,0.3c0.5,0.2,0.9,0.5,1.1,0.9c0.3,0.4,0.4,0.9,0.4,1.4l-1.1,0.1
		c-0.1-0.6-0.3-1-0.6-1.3c-0.3-0.3-0.9-0.4-1.5-0.4c-0.7,0-1.2,0.1-1.5,0.4c-0.3,0.3-0.5,0.6-0.5,0.9c0,0.3,0.1,0.6,0.3,0.8
		c0.2,0.2,0.8,0.4,1.7,0.6c0.9,0.2,1.6,0.4,1.9,0.6c0.5,0.2,0.9,0.5,1.1,0.9c0.2,0.4,0.4,0.8,0.4,1.2c0,0.5-0.1,0.9-0.4,1.3
		c-0.3,0.4-0.6,0.7-1.1,1c-0.5,0.2-1.1,0.3-1.7,0.3c-0.8,0-1.5-0.1-2-0.3c-0.5-0.2-1-0.6-1.3-1
		C-477.3,114.6-477.5,114.1-477.5,113.5z"/>
	<path class="st17" d="M-470,112.1c0-1.4,0.4-2.6,1.2-3.4c0.8-0.8,1.8-1.2,3-1.2c0.8,0,1.5,0.2,2.2,0.6c0.6,0.4,1.1,0.9,1.5,1.6
		s0.5,1.5,0.5,2.3c0,0.9-0.2,1.7-0.5,2.4c-0.4,0.7-0.9,1.2-1.5,1.6c-0.7,0.4-1.4,0.5-2.1,0.5c-0.8,0-1.6-0.2-2.2-0.6
		c-0.6-0.4-1.1-0.9-1.5-1.6C-469.8,113.6-470,112.8-470,112.1z M-468.8,112.1c0,1.1,0.3,1.9,0.8,2.5c0.6,0.6,1.3,0.9,2.1,0.9
		c0.9,0,1.6-0.3,2.1-0.9c0.6-0.6,0.8-1.5,0.8-2.6c0-0.7-0.1-1.3-0.4-1.9s-0.6-0.9-1.1-1.2c-0.5-0.3-1-0.4-1.6-0.4
		c-0.8,0-1.5,0.3-2.1,0.8C-468.5,109.8-468.8,110.8-468.8,112.1z"/>
	<path class="st17" d="M-455,107.6h1.2v5c0,0.9-0.1,1.6-0.3,2.1c-0.2,0.5-0.6,0.9-1.1,1.3c-0.5,0.3-1.2,0.5-2,0.5
		c-0.8,0-1.5-0.1-2-0.4c-0.5-0.3-0.9-0.7-1.1-1.2c-0.2-0.5-0.3-1.3-0.3-2.2v-5h1.2v5c0,0.8,0.1,1.3,0.2,1.7c0.1,0.4,0.4,0.6,0.7,0.8
		c0.3,0.2,0.8,0.3,1.3,0.3c0.8,0,1.5-0.2,1.8-0.6c0.4-0.4,0.5-1.1,0.5-2.2V107.6z"/>
	<path class="st17" d="M-452.6,116.3v-8.7h1.2l4.6,6.9v-6.9h1.1v8.7h-1.2l-4.6-6.9v6.9H-452.6z"/>
	<path class="st17" d="M-444.4,116.3v-8.7h3c0.7,0,1.2,0,1.6,0.1c0.5,0.1,0.9,0.3,1.3,0.6c0.5,0.4,0.8,0.9,1,1.5
		c0.2,0.6,0.3,1.3,0.3,2.1c0,0.7-0.1,1.3-0.2,1.8c-0.2,0.5-0.4,0.9-0.6,1.3c-0.2,0.3-0.5,0.6-0.8,0.8c-0.3,0.2-0.6,0.3-1,0.4
		c-0.4,0.1-0.9,0.1-1.4,0.1H-444.4z M-443.3,115.3h1.9c0.6,0,1-0.1,1.4-0.2c0.3-0.1,0.6-0.3,0.8-0.5c0.3-0.3,0.5-0.6,0.6-1.1
		c0.2-0.5,0.2-1,0.2-1.7c0-0.9-0.1-1.6-0.4-2.1c-0.3-0.5-0.7-0.8-1.1-1c-0.3-0.1-0.8-0.2-1.5-0.2h-1.8V115.3z"/>
</g>
<g>
	<g>
		<path class="st17" d="M-738.4,230.7v-7.4h2.8c0.6,0,1,0.1,1.4,0.2c0.3,0.1,0.6,0.4,0.8,0.7c0.2,0.3,0.3,0.6,0.3,1
			c0,0.3-0.1,0.6-0.3,0.9c-0.2,0.3-0.4,0.5-0.8,0.7c0.4,0.1,0.8,0.4,1,0.7c0.2,0.3,0.4,0.7,0.4,1.1c0,0.3-0.1,0.7-0.2,1
			c-0.1,0.3-0.3,0.5-0.5,0.7s-0.5,0.3-0.8,0.4c-0.3,0.1-0.7,0.1-1.2,0.1H-738.4z M-737.5,226.4h1.6c0.4,0,0.7,0,0.9-0.1
			c0.2-0.1,0.4-0.2,0.6-0.4c0.1-0.2,0.2-0.4,0.2-0.6c0-0.2-0.1-0.5-0.2-0.6c-0.1-0.2-0.3-0.3-0.5-0.4c-0.2-0.1-0.6-0.1-1.1-0.1h-1.5
			V226.4z M-737.5,229.8h1.8c0.3,0,0.5,0,0.7,0c0.2,0,0.4-0.1,0.6-0.2s0.3-0.2,0.4-0.4c0.1-0.2,0.1-0.4,0.1-0.6
			c0-0.3-0.1-0.5-0.2-0.7s-0.3-0.3-0.6-0.4c-0.3-0.1-0.6-0.1-1.1-0.1h-1.7V229.8z"/>
	</g>
	<g>
		<path class="st17" d="M-732.9,230.7l2.8-7.4h1.1l3,7.4h-1.1l-0.9-2.2h-3.1l-0.8,2.2H-732.9z M-730.7,227.7h2.5l-0.8-2
			c-0.2-0.6-0.4-1.1-0.5-1.5c-0.1,0.5-0.2,0.9-0.4,1.4L-730.7,227.7z"/>
	</g>
	<g>
		<path class="st17" d="M-724.6,230.7v-6.5h-2.4v-0.9h5.9v0.9h-2.4v6.5H-724.6z"/>
	</g>
	<g>
		<path class="st17" d="M-718.8,230.7v-6.5h-2.4v-0.9h5.9v0.9h-2.4v6.5H-718.8z"/>
	</g>
	<g>
		<path class="st17" d="M-714.9,230.7v-7.4h5.3v0.9h-4.4v2.3h4.1v0.9h-4.1v2.5h4.5v0.9H-714.9z"/>
	</g>
	<g>
		<path class="st17" d="M-708.6,230.7v-7.4h3.3c0.7,0,1.2,0.1,1.5,0.2c0.3,0.1,0.6,0.4,0.8,0.7c0.2,0.3,0.3,0.7,0.3,1.1
			c0,0.5-0.2,1-0.5,1.3c-0.3,0.4-0.9,0.6-1.6,0.7c0.3,0.1,0.5,0.2,0.6,0.4c0.3,0.3,0.6,0.6,0.8,1l1.3,2h-1.2l-1-1.5
			c-0.3-0.4-0.5-0.8-0.7-1c-0.2-0.2-0.4-0.4-0.5-0.5c-0.1-0.1-0.3-0.2-0.4-0.2c-0.1,0-0.3,0-0.5,0h-1.1v3.3H-708.6z M-707.6,226.6
			h2.1c0.4,0,0.8,0,1-0.1c0.3-0.1,0.4-0.2,0.6-0.4c0.1-0.2,0.2-0.4,0.2-0.7c0-0.3-0.1-0.6-0.4-0.9c-0.3-0.2-0.7-0.3-1.2-0.3h-2.3
			V226.6z"/>
	</g>
	<g>
		<path class="st17" d="M-699.8,230.7v-3.1l-2.9-4.3h1.2l1.5,2.2c0.3,0.4,0.5,0.8,0.8,1.3c0.2-0.4,0.5-0.8,0.8-1.3l1.4-2.2h1.1
			l-3,4.3v3.1H-699.8z"/>
	</g>
</g>
<radialGradient id="SVGID_14_" cx="-725.2647" cy="204.1183" r="6.3025" gradientUnits="userSpaceOnUse">
	<stop  offset="0" style="stop-color:#FF2E2E"/>
	<stop  offset="4.851762e-02" style="stop-color:#FB2E2E"/>
	<stop  offset="0.5875" style="stop-color:#D1292D"/>
	<stop  offset="0.8639" style="stop-color:#C1272D"/>
</radialGradient>
<path class="st18" d="M-725.3,210.4L-725.3,210.4c-3.5,0-6.3-2.8-6.3-6.3l0,0c0-3.5,2.8-6.3,6.3-6.3l0,0c3.5,0,6.3,2.8,6.3,6.3l0,0
	C-719,207.6-721.8,210.4-725.3,210.4z"/>
<g>
	<path class="st15" d="M-755.7,404.1h4.4c5.8-0.4,8.6,2.2,8.4,7.7c0,4.4-2.6,6.6-7.9,6.5h-2.6h-1h-1h-0.3V404.1z M-749.9,405.5
		c-0.9,0-1.4,0.2-1.5,0.7v9.8c0.1,0.6,0.6,0.8,1.6,0.7c1.6,0,2.3-1.3,2.2-4.2v-3.5C-747.6,406.8-748.4,405.6-749.9,405.5z"/>
	<path class="st15" d="M-736.5,408.3c3.5,0.1,5.3,1.8,5.4,5h-1.2h-0.8h-1.9h-0.8h-1.1h-1.1c-0.1,2.1,0.2,3.3,0.8,3.6
		c0.6,0.3,1.1,0.2,1.7-0.1c0.6-0.3,0.8-1.1,0.7-2.4h1.4h0.8h0.8h0.8h-0.8h0.8c-0.5,2.1-1.6,3.3-3.3,3.7c-1.7,0.4-3.2,0.3-4.7-0.3
		c-1.5-0.6-2.4-1.9-2.8-3.9l0-0.7C-741.5,410.1-739.7,408.5-736.5,408.3z M-736.4,409.4c-1,0.1-1.5,0.8-1.6,2.4h1.5h0.8h0.8
		C-735,410.3-735.4,409.5-736.4,409.4z"/>
	<path class="st15" d="M-723.8,408.2c2.1-0.3,3.4,0.3,4,1.9c0.3-0.7,1.2-1.4,2.8-2.1c2.8-0.4,4.2,0.6,4.4,3.1v7.1l-3.4,0l0-5.9
		c0-1.3-0.5-2-1.7-1.9c-1-0.1-1.7,0.3-2.1,1.4v6.4h-1.4h-0.7h-0.7h-0.7h0.7h-0.7v-6.7c0-0.9-0.5-1.4-1.6-1.5
		c-0.7-0.1-1.3,0.3-1.7,1.1v1.7v0.8v2.1v0.8v1.7h-1.8h-0.7h-0.7h-0.4v-9.7h1.1h0.7h0.7h0.7h-0.7h1.1l0,1.2
		C-725.8,408.9-724.8,408.4-723.8,408.2z"/>
	<path class="st15" d="M-711.5,412.9c0.2-1.7,0.8-3,1.8-3.7c1-0.7,2.3-1,3.8-1h0.6c1.6,0.1,2.9,0.5,3.8,1.3c0.9,0.8,1.4,1.9,1.5,3.3
		c0,1.8-0.5,3.1-1.5,3.9c-1,0.8-2.3,1.3-3.8,1.4h-0.7c-1.9-0.1-3.3-0.6-4.2-1.5C-711,415.9-711.5,414.6-711.5,412.9z M-705.8,409.5
		c-1.2,0-1.8,0.8-1.8,2.3v2.9c0.1,1.5,0.7,2.2,1.8,2.3c1.1-0.1,1.7-0.9,1.7-2.3v-2.8C-704.1,410.3-704.7,409.5-705.8,409.5z"/>
	<path class="st15" d="M-695.4,411.2c0.3-4.5,2.5-6.9,6.7-7.2c4.3,0.2,6.6,2.1,7,5.7l-4.6,0c-0.3-1.7-0.7-2.8-1.3-3.4
		c-0.6-0.6-1.3-0.5-1.9,0.3c-0.6,0.7-1,2.3-1,4.6c-0.1,3,0.3,4.8,0.9,5.2c0.7,0.4,1.4,0.3,2.1-0.1c0.7-0.5,1.1-1.5,1.1-3.1l-2.4,0
		l0-1.9h7.1c-0.3,4-1.7,6.3-4,6.8c-2.3,0.6-4.5,0.4-6.4-0.5C-694.1,416.5-695.2,414.5-695.4,411.2z"/>
	<path class="st15" d="M-680.3,404h4.1c5.3-0.1,7.9,0.9,7.8,3.1c0.4,2.2-0.8,3.3-3.5,3.4c2.4,0.2,3.6,1.3,3.8,3.5
		c0,3.1-2.5,4.5-7.6,4.3h-2.4h-1h-1h-0.3V404z M-674.5,411.6c-1.1,0-1.7,0.2-1.7,0.7v4.1c0.1,0.5,0.6,0.8,1.7,0.8
		c1.1,0,1.6-0.9,1.5-2.7v-1.1C-672.9,412.3-673.4,411.7-674.5,411.6z M-674.6,405.2c-1,0-1.5,0.2-1.5,0.5v3.4c0,0.4,0.6,0.7,1.6,0.6
		c1,0,1.4-0.8,1.4-2.2v-0.9C-673.1,405.8-673.6,405.3-674.6,405.2z"/>
</g>
<g>
	<path class="st15" d="M-631.7,400.2c-1.9-0.4-3.6-0.6-5.1-0.6c-1.8,0-3.4,0.2-4.9,0.7c-1.5,0.5-2.8,1.2-3.9,2.1
		c-1.1,0.9-1.9,2-2.5,3.3c-0.6,1.3-0.9,2.5-0.9,3.9c0,1.4,0.3,2.7,0.9,3.7c0.6,1.1,1.4,1.9,2.5,2.5c1.1,0.6,2.3,0.9,3.7,0.9
		c0.7,0,1.3,0,2-0.1c0.7-0.1,1.4-0.2,2.1-0.5l0.6-4.3h-3.8l0.4-3.1h7.8l-1.5,10.1c-0.9,0.4-2.1,0.8-3.4,1c-1.3,0.3-2.7,0.4-4.1,0.4
		c-1.7,0-3.3-0.3-4.7-0.8c-1.4-0.5-2.6-1.2-3.6-2.2c-1-0.9-1.8-2.1-2.3-3.4c-0.5-1.3-0.8-2.7-0.8-4.2c0-1.5,0.3-2.9,0.8-4.3
		c0.5-1.4,1.2-2.7,2.2-3.9c1-1.2,2.1-2.2,3.4-3c1.3-0.8,2.8-1.4,4.5-1.9c1.7-0.5,3.6-0.7,5.7-0.7c1.7,0,3.4,0.2,5.3,0.6
		L-631.7,400.2z"/>
	<path class="st15" d="M-614.6,420h-3.9l-1.1-6.4h-7.4l-2.7,6.4h-4.2l10.9-23.8h4L-614.6,420z M-620.1,410.7l-1.6-10.1h-0.1
		l-4.1,10.1H-620.1z"/>
	<path class="st15" d="M-586.4,420h-3.9l-0.3-17.1h-0.1l-9.2,17.1h-1.1l-4.1-17.3h-0.1l-5.6,17.3h-4l7.7-23.6h4l3.7,15.5l8.2-15.5
		h4.1L-586.4,420z"/>
	<path class="st15" d="M-566.9,396.3l-0.5,3.3h-9.6l-0.9,6.6h8.5l-0.5,3.3h-8.5l-1,7.1h12l-0.5,3.3h-16l3.4-23.6H-566.9z"/>
	<path class="st15" d="M-556.3,396.3c2.9,0,5,0.5,6.5,1.4c1.4,1,2.2,2.4,2.2,4.3c0,1.1-0.3,2.1-0.8,3c-0.6,0.8-1.4,1.6-2.7,2.1
		c1.6,0.5,2.8,1.2,3.6,2.2c0.8,1,1.2,2.2,1.2,3.7c0,2.2-0.9,3.9-2.7,5.1c-1.8,1.2-4.3,1.8-7.5,1.8h-7.4l3.4-23.6H-556.3z
		 M-557.2,416.8c2.2,0,3.9-0.3,5-0.9c1.2-0.6,1.7-1.6,1.7-3c0-1.2-0.5-2.2-1.5-2.9c-1-0.7-2.5-1-4.3-1h-2l-1.2,7.9H-557.2z
		 M-557.9,405.7c0.2,0,0.4,0,0.6,0h0.9c1.5,0,2.7-0.3,3.5-0.8c0.8-0.5,1.2-1.4,1.2-2.4c0-0.9-0.3-1.6-0.9-2.1s-1.5-0.8-2.6-0.8h-1
		c-0.3,0-0.6,0-0.9,0L-557.9,405.7z"/>
	<path class="st15" d="M-523.1,406.3c0,2.6-0.5,5-1.6,7.2c-1.1,2.1-2.6,3.8-4.4,5c-1.9,1.2-4,1.8-6.3,1.8c-1.9,0-3.6-0.4-5.1-1.3
		c-1.5-0.9-2.7-2.1-3.6-3.7c-0.8-1.6-1.3-3.4-1.3-5.4c0-1.8,0.3-3.6,0.9-5.2c0.6-1.7,1.5-3.2,2.7-4.5c1.1-1.3,2.5-2.3,4-3
		c1.5-0.7,3.2-1.1,4.9-1.1c1.9,0,3.6,0.4,5.1,1.3c1.5,0.9,2.7,2.1,3.5,3.7C-523.5,402.6-523.1,404.4-523.1,406.3z M-527.2,406.2
		c0-1.3-0.2-2.4-0.7-3.5c-0.5-1-1.2-1.8-2.1-2.3c-0.9-0.6-1.9-0.8-3.1-0.8c-1.5,0-2.8,0.4-4.1,1.3c-1.2,0.9-2.3,2.2-3,3.8
		c-0.8,1.7-1.2,3.4-1.2,5.2c0,1.4,0.2,2.5,0.7,3.6c0.5,1,1.2,1.8,2.1,2.4c0.9,0.6,1.9,0.8,3.1,0.8c1.5,0,2.8-0.5,4.1-1.4
		c1.3-0.9,2.3-2.2,3-3.9C-527.6,409.9-527.2,408.1-527.2,406.2z"/>
	<path class="st15" d="M-506.5,396.3l-8.6,12.7l-1.5,10.9h-4l1.6-10.9l-5.3-12.7h4.1l3.6,8.9l5.8-8.9H-506.5z"/>
</g>
<linearGradient id="SVGID_15_" gradientUnits="userSpaceOnUse" x1="-697.2535" y1="555.1921" x2="-697.2535" y2="529.0483">
	<stop  offset="0" style="stop-color:#1A1A1A"/>
	<stop  offset="1" style="stop-color:#000000;stop-opacity:0"/>
</linearGradient>
<path class="st19" d="M-697.3,555.2L-697.3,555.2c-7.2,0-13.1-5.9-13.1-13.1v0c0-7.2,5.9-13.1,13.1-13.1h0c7.2,0,13.1,5.9,13.1,13.1
	v0C-684.2,549.3-690,555.2-697.3,555.2z"/>
<g class="st20">
	<polygon points="-702.9,482.6 -697,471.9 -691.1,482.6 	"/>
</g>
<g class="st20">
	<polygon points="-691.1,605.9 -697,616.6 -702.9,605.9 	"/>
</g>
<g class="st20">
	<polygon points="-759.3,549.1 -770.1,543.2 -759.3,537.3 	"/>
</g>
<g class="st20">
	<polygon points="-633.5,537.3 -622.7,543.2 -633.5,549.1 	"/>
</g>
<g>
	<path class="st15" d="M-561.6,687.8l6.6-3.2l-0.6-1.2l-4.1,2c-1.7,0.8-2.8,0.4-3.6-1.1c-0.7-1.5-0.3-2.7,1.4-3.5l5.8-2.8l0.8,1.7
		l-6.6,3.2l0.6,1.2l4.1-2c1.7-0.8,2.8-0.4,3.6,1.1c0.7,1.5,0.3,2.7-1.4,3.5l-5.8,2.8L-561.6,687.8z"/>
	<path class="st15" d="M-554.3,677.1l8.3-4l0.8,1.7l-3.3,1.6l2.8,5.8l-1.7,0.8l-2.8-5.8l-3.3,1.6L-554.3,677.1z"/>
	<path class="st15" d="M-540,676.9l1,2.1l-1.7,0.8l-2.4-5c-0.8-1.7-0.4-2.9,1.3-3.7l3.3-1.6c1.7-0.8,2.9-0.4,3.7,1.3l2.4,5l-1.7,0.8
		l-1-2.1L-540,676.9z M-535.8,672.9l-0.6-1.2c-0.3-0.6-0.7-0.7-1.2-0.4l-3.3,1.6c-0.6,0.3-0.7,0.7-0.4,1.2l0.6,1.2L-535.8,672.9z"/>
	<path class="st15" d="M-530.3,671.3l1.4,2.9l-1.7,0.8l-3.6-7.5l5.8-2.8c1.7-0.8,2.8-0.4,3.6,1.1c0.3,0.7,0.5,1.3,0.4,1.8
		c0.4,0.3,0.8,0.7,1.1,1.4l1,2.1l-1.7,0.8l-1-2.1c-0.3-0.6-0.7-0.7-1.2-0.4L-530.3,671.3z M-531.1,669.6l5-2.4l-0.6-1.2l-5,2.4
		L-531.1,669.6z"/>
	<path class="st15" d="M-524,662.7l8.3-4l0.8,1.7l-3.3,1.6l2.8,5.8l-1.7,0.8l-2.8-5.8l-3.3,1.6L-524,662.7z"/>
</g>
<g>
	<path class="st15" d="M-644.1,690.3l6.6-3.2l-0.6-1.2l-4.1,2c-1.7,0.8-2.8,0.4-3.6-1.1c-0.7-1.5-0.3-2.7,1.4-3.5l5.8-2.8l0.8,1.7
		l-6.6,3.2l0.6,1.2l4.1-2c1.7-0.8,2.8-0.4,3.6,1.1c0.7,1.5,0.3,2.7-1.4,3.5l-5.8,2.8L-644.1,690.3z"/>
	<path class="st15" d="M-625,683.2l-5.8,2.8c-1.7,0.8-2.9,0.4-3.7-1.3l-2.4-5l8.3-4l0.8,1.7l-6.6,3.2l0.6,1.2l6.6-3.2l0.8,1.7
		l-6.6,3.2l0.2,0.4c0.3,0.6,0.7,0.7,1.2,0.4l5.8-2.8L-625,683.2z"/>
	<path class="st15" d="M-625.1,674.1l2.4,5c0.3,0.6,0.7,0.7,1.2,0.4l5.8-2.8l0.8,1.7l-5.8,2.8c-1.7,0.8-2.9,0.4-3.7-1.3l-2.4-5
		L-625.1,674.1z"/>
	<path class="st15" d="M-604.8,673.5l-5.8,2.8c-1.7,0.8-2.9,0.4-3.7-1.3l-2.4-5l8.3-4l0.8,1.7l-6.6,3.2l0.6,1.2l6.6-3.2l0.8,1.7
		l-6.6,3.2l0.2,0.4c0.3,0.6,0.7,0.7,1.2,0.4l5.8-2.8L-604.8,673.5z"/>
	<path class="st15" d="M-594.7,668.7l-5.8,2.8c-1.7,0.8-2.9,0.4-3.7-1.3l-1.2-2.5c-0.8-1.7-0.4-2.9,1.3-3.7l5.8-2.8l0.8,1.7
		l-5.8,2.8c-0.6,0.3-0.7,0.7-0.4,1.2l1.2,2.5c0.3,0.6,0.7,0.7,1.2,0.4l5.8-2.8L-594.7,668.7z"/>
	<path class="st15" d="M-596.5,660.4l8.3-4l0.8,1.7l-3.3,1.6l2.8,5.8l-1.7,0.8l-2.8-5.8l-3.3,1.6L-596.5,660.4z"/>
</g>
<g>
	<linearGradient id="SVGID_16_" gradientUnits="userSpaceOnUse" x1="-396.6053" y1="805.2404" x2="-435.0887" y2="704.9877">
		<stop  offset="0" style="stop-color:#FFFFFF;stop-opacity:0"/>
		<stop  offset="0.1106" style="stop-color:#C9C9C9;stop-opacity:2.275125e-02"/>
		<stop  offset="0.2343" style="stop-color:#949494;stop-opacity:4.821323e-02"/>
		<stop  offset="0.3599" style="stop-color:#676767;stop-opacity:7.405567e-02"/>
		<stop  offset="0.4849" style="stop-color:#424242;stop-opacity:9.976206e-02"/>
		<stop  offset="0.609" style="stop-color:#252525;stop-opacity:0.1253"/>
		<stop  offset="0.732" style="stop-color:#101010;stop-opacity:0.1506"/>
		<stop  offset="0.8536" style="stop-color:#040404;stop-opacity:0.1756"/>
		<stop  offset="0.9721" style="stop-color:#000000;stop-opacity:0.2"/>
	</linearGradient>
	<polygon class="st21" points="-339.2,668.2 -515.2,783 -338.7,783 	"/>
</g>
<g>
	<linearGradient id="SVGID_17_" gradientUnits="userSpaceOnUse" x1="-693.0518" y1="61.2612" x2="-693.0518" y2="33.25">
		<stop  offset="0" style="stop-color:#A09F9C"/>
		<stop  offset="0.2221" style="stop-color:#81807E;stop-opacity:0.8001"/>
		<stop  offset="0.7047" style="stop-color:#333332;stop-opacity:0.3657"/>
		<stop  offset="1" style="stop-color:#000000;stop-opacity:0.1"/>
	</linearGradient>
	<path class="st22" d="M-658.7,39.8h-43.7v-6.5h-4.9v6.5h-4.4v-6.5h-4.9v6.5h-4.4v-6.5h-4.9v6.5h-1.6c-5.3,0-9.5,4.8-9.5,10.8
		s4.3,10.8,9.5,10.8h68.7c5.3,0,9.5-4.8,9.5-10.8S-653.4,39.8-658.7,39.8z"/>
</g>
<g>
	<g>
		<g>
			<path class="st0" d="M-711.3,47.5c0.6,0.8,0.9,1.9,0.9,3.2c0,1.4-0.4,2.6-1.1,3.5c-0.8,1.1-2.1,1.7-3.6,1.7
				c-1.5,0-2.6-0.5-3.5-1.5c-0.7-0.9-1.1-2.1-1.1-3.5c0-1.3,0.3-2.4,1-3.3c0.8-1.2,2-1.8,3.6-1.8C-713.4,45.9-712.1,46.4-711.3,47.5
				z M-712.5,53.6c0.5-0.8,0.8-1.8,0.8-2.8c0-1.1-0.3-2-0.9-2.7c-0.6-0.7-1.4-1-2.4-1c-1,0-1.8,0.3-2.4,1c-0.6,0.7-0.9,1.7-0.9,3
				c0,1.1,0.3,1.9,0.8,2.7c0.5,0.7,1.4,1.1,2.6,1.1C-713.8,54.8-713,54.4-712.5,53.6z"/>
		</g>
		<g>
			<path class="st0" d="M-708,46.2h6.6v1.2h-5.3v2.9h4.7v1.1h-4.7v4.3h-1.3V46.2z"/>
		</g>
		<g>
			<path class="st0" d="M-699.1,46.2h6.6v1.2h-5.3v2.9h4.7v1.1h-4.7v4.3h-1.3V46.2z"/>
		</g>
		<g>
			<path class="st0" d="M-678.1,47.5c0.6,0.8,0.9,1.9,0.9,3.2c0,1.4-0.4,2.6-1.1,3.5c-0.8,1.1-2.1,1.7-3.6,1.7
				c-1.5,0-2.6-0.5-3.5-1.5c-0.7-0.9-1.1-2.1-1.1-3.5c0-1.3,0.3-2.4,1-3.3c0.8-1.2,2-1.8,3.6-1.8C-680.1,45.9-678.9,46.4-678.1,47.5
				z M-679.2,53.6c0.5-0.8,0.8-1.8,0.8-2.8c0-1.1-0.3-2-0.9-2.7c-0.6-0.7-1.4-1-2.4-1c-1,0-1.8,0.3-2.4,1c-0.6,0.7-0.9,1.7-0.9,3
				c0,1.1,0.3,1.9,0.8,2.7c0.5,0.7,1.4,1.1,2.6,1.1C-680.5,54.8-679.7,54.4-679.2,53.6z"/>
		</g>
		<g>
			<path class="st0" d="M-674.8,46.2h1.5l4.8,7.7v-7.7h1.2v9.5h-1.5l-4.8-7.7v7.7h-1.2V46.2z"/>
		</g>
	</g>
	<g>
		<polygon class="st0" points="-663.9,45.9 -654.8,50.9 -663.8,55.8 		"/>
	</g>
	<g>
		<polygon class="st0" points="-722.4,55.8 -731.6,50.8 -722.5,45.9 		"/>
	</g>
	<g>
		<circle class="st0" cx="-689.7" cy="51.1" r="1.7"/>
	</g>
</g>
<g>
	<rect x="-939" y="40" class="st0" width="150" height="738"/>
</g>
<linearGradient id="SVGID_18_" gradientUnits="userSpaceOnUse" x1="-789" y1="409" x2="-862" y2="409">
	<stop  offset="0" style="stop-color:#000000;stop-opacity:0.2"/>
	<stop  offset="0.9721" style="stop-color:#000000;stop-opacity:0.3"/>
</linearGradient>
<polygon class="st23" points="-789,65 -857,65 -857,40 -862,40 -862,65 -862,73 -862,778 -857,778 -857,73 -789,73 "/>
<g>
	<linearGradient id="SVGID_19_" gradientUnits="userSpaceOnUse" x1="-832" y1="211" x2="-832" y2="307">
		<stop  offset="0" style="stop-color:#000000;stop-opacity:0.2"/>
		<stop  offset="0.9986" style="stop-color:#000000;stop-opacity:0.1"/>
	</linearGradient>
	<path class="st24" d="M-813.5,307H-857v-96h43.5c3.6,0,6.5,2.9,6.5,6.5v83.1C-807,304.1-809.9,307-813.5,307z"/>
</g>
<g>
	
		<linearGradient id="SVGID_20_" gradientUnits="userSpaceOnUse" x1="-905.5" y1="316" x2="-905.5" y2="201" gradientTransform="matrix(-1 0 0 -1 -1778 518)">
		<stop  offset="0" style="stop-color:#000000;stop-opacity:0.1"/>
		<stop  offset="0.9986" style="stop-color:#000000;stop-opacity:5.000000e-02"/>
	</linearGradient>
	<path class="st25" d="M-876.5,202h14.5v115h-14.5c-3.6,0-6.5-2.9-6.5-6.5V208.5C-883,204.9-880.1,202-876.5,202z"/>
</g>
<linearGradient id="SVGID_21_" gradientUnits="userSpaceOnUse" x1="-854.5" y1="231" x2="-854.5" y2="287">
	<stop  offset="0" style="stop-color:#1A1A1A"/>
	<stop  offset="1" style="stop-color:#333333"/>
</linearGradient>
<rect x="-860" y="231" class="st26" width="11" height="56"/>
<linearGradient id="SVGID_22_" gradientUnits="userSpaceOnUse" x1="-901.5" y1="396" x2="-901.5" y2="406.96">
	<stop  offset="0" style="stop-color:#000000;stop-opacity:0.3"/>
	<stop  offset="0.9986" style="stop-color:#000000;stop-opacity:0"/>
</linearGradient>
<rect x="-939" y="396" class="st27" width="75" height="11"/>
<linearGradient id="SVGID_23_" gradientUnits="userSpaceOnUse" x1="-901.5" y1="417.92" x2="-901.5" y2="428.88">
	<stop  offset="0" style="stop-color:#000000;stop-opacity:0.3"/>
	<stop  offset="0.9986" style="stop-color:#000000;stop-opacity:0"/>
</linearGradient>
<rect x="-939" y="417.9" class="st28" width="75" height="11"/>
<linearGradient id="SVGID_24_" gradientUnits="userSpaceOnUse" x1="-901.5" y1="439.84" x2="-901.5" y2="450.8">
	<stop  offset="0" style="stop-color:#000000;stop-opacity:0.3"/>
	<stop  offset="0.9986" style="stop-color:#000000;stop-opacity:0"/>
</linearGradient>
<rect x="-939" y="439.8" class="st29" width="75" height="11"/>
<linearGradient id="SVGID_25_" gradientUnits="userSpaceOnUse" x1="-901.5" y1="461.76" x2="-901.5" y2="472.72">
	<stop  offset="0" style="stop-color:#000000;stop-opacity:0.3"/>
	<stop  offset="0.9986" style="stop-color:#000000;stop-opacity:0"/>
</linearGradient>
<rect x="-939" y="461.8" class="st30" width="75" height="11"/>
<linearGradient id="SVGID_26_" gradientUnits="userSpaceOnUse" x1="-901.5" y1="483.68" x2="-901.5" y2="494.64">
	<stop  offset="0" style="stop-color:#000000;stop-opacity:0.3"/>
	<stop  offset="0.9986" style="stop-color:#000000;stop-opacity:0"/>
</linearGradient>
<rect x="-939" y="483.7" class="st31" width="75" height="11"/>
<linearGradient id="SVGID_27_" gradientUnits="userSpaceOnUse" x1="-901.5" y1="505.6" x2="-901.5" y2="516.56">
	<stop  offset="0" style="stop-color:#000000;stop-opacity:0.3"/>
	<stop  offset="0.9986" style="stop-color:#000000;stop-opacity:0"/>
</linearGradient>
<rect x="-939" y="505.6" class="st32" width="75" height="11"/>
<linearGradient id="SVGID_28_" gradientUnits="userSpaceOnUse" x1="-901.5" y1="527.52" x2="-901.5" y2="538.48">
	<stop  offset="0" style="stop-color:#000000;stop-opacity:0.3"/>
	<stop  offset="0.9986" style="stop-color:#000000;stop-opacity:0"/>
</linearGradient>
<rect x="-939" y="527.5" class="st33" width="75" height="11"/>
<linearGradient id="SVGID_29_" gradientUnits="userSpaceOnUse" x1="-901.5" y1="549.44" x2="-901.5" y2="560.4">
	<stop  offset="0" style="stop-color:#000000;stop-opacity:0.3"/>
	<stop  offset="0.9986" style="stop-color:#000000;stop-opacity:0"/>
</linearGradient>
<rect x="-939" y="549.4" class="st34" width="75" height="11"/>
<linearGradient id="SVGID_30_" gradientUnits="userSpaceOnUse" x1="-901.5" y1="571.36" x2="-901.5" y2="582.32">
	<stop  offset="0" style="stop-color:#000000;stop-opacity:0.3"/>
	<stop  offset="0.9986" style="stop-color:#000000;stop-opacity:0"/>
</linearGradient>
<rect x="-939" y="571.4" class="st35" width="75" height="11"/>
<linearGradient id="SVGID_31_" gradientUnits="userSpaceOnUse" x1="-901.5" y1="593.28" x2="-901.5" y2="604.24">
	<stop  offset="0" style="stop-color:#000000;stop-opacity:0.3"/>
	<stop  offset="0.9986" style="stop-color:#000000;stop-opacity:0"/>
</linearGradient>
<rect x="-939" y="593.3" class="st36" width="75" height="11"/>
<linearGradient id="SVGID_32_" gradientUnits="userSpaceOnUse" x1="-901.5" y1="615.2" x2="-901.5" y2="626.16">
	<stop  offset="0" style="stop-color:#000000;stop-opacity:0.3"/>
	<stop  offset="0.9986" style="stop-color:#000000;stop-opacity:0"/>
</linearGradient>
<rect x="-939" y="615.2" class="st37" width="75" height="11"/>
<linearGradient id="SVGID_33_" gradientUnits="userSpaceOnUse" x1="-901.5" y1="637.12" x2="-901.5" y2="648.08">
	<stop  offset="0" style="stop-color:#000000;stop-opacity:0.3"/>
	<stop  offset="0.9986" style="stop-color:#000000;stop-opacity:0"/>
</linearGradient>
<rect x="-939" y="637.1" class="st38" width="75" height="11"/>
<linearGradient id="SVGID_34_" gradientUnits="userSpaceOnUse" x1="-901.5" y1="659.04" x2="-901.5" y2="670">
	<stop  offset="0" style="stop-color:#000000;stop-opacity:0.3"/>
	<stop  offset="0.9986" style="stop-color:#000000;stop-opacity:0"/>
</linearGradient>
<rect x="-939" y="659" class="st39" width="75" height="11"/>
<linearGradient id="SVGID_35_" gradientUnits="userSpaceOnUse" x1="-910.3797" y1="177.2412" x2="-876.008" y2="176.6412">
	<stop  offset="0" style="stop-color:#A09F9C"/>
	<stop  offset="0.2371" style="stop-color:#9D9C99;stop-opacity:0.8103"/>
	<stop  offset="0.3956" style="stop-color:#949391;stop-opacity:0.6835"/>
	<stop  offset="0.5312" style="stop-color:#858482;stop-opacity:0.5751"/>
	<stop  offset="0.6538" style="stop-color:#706F6D;stop-opacity:0.4769"/>
	<stop  offset="0.7677" style="stop-color:#545452;stop-opacity:0.3858"/>
	<stop  offset="0.8752" style="stop-color:#323231;stop-opacity:0.2998"/>
	<stop  offset="0.9758" style="stop-color:#0B0B0A;stop-opacity:0.2193"/>
	<stop  offset="1" style="stop-color:#000000;stop-opacity:0.2"/>
</linearGradient>
<path class="st40" d="M-909.7,155.5c-0.1,0-0.2,0-0.3,0V199c0.1,0,0.2,0,0.3,0c18.6,0,33.7-9.7,33.7-21.8
	C-876,165.2-891.1,155.5-909.7,155.5z"/>
<g>
	<circle cx="-901" cy="177" r="12"/>
</g>
<circle class="st41" cx="-901" cy="177" r="4.5"/>
<g>
	<rect x="-339" y="40" class="st0" width="150" height="630"/>
</g>
<linearGradient id="SVGID_36_" gradientUnits="userSpaceOnUse" x1="-189" y1="353" x2="-262" y2="353" gradientTransform="matrix(-1 0 0 1 -528 0)">
	<stop  offset="0" style="stop-color:#000000;stop-opacity:0.2"/>
	<stop  offset="0.9721" style="stop-color:#000000;stop-opacity:0.3"/>
</linearGradient>
<polygon class="st42" points="-339,65 -271,65 -271,40 -266,40 -266,65 -266,73 -266,666 -271,666 -271,73 -339,73 "/>
<linearGradient id="SVGID_37_" gradientUnits="userSpaceOnUse" x1="-166.7924" y1="202.5405" x2="-241.8395" y2="234.3961" gradientTransform="matrix(1 0 0 -1 -38 519)">
	<stop  offset="0" style="stop-color:#A09F9C"/>
	<stop  offset="0.2371" style="stop-color:#9D9C99;stop-opacity:0.8103"/>
	<stop  offset="0.3956" style="stop-color:#949391;stop-opacity:0.6835"/>
	<stop  offset="0.5312" style="stop-color:#858482;stop-opacity:0.5751"/>
	<stop  offset="0.6538" style="stop-color:#706F6D;stop-opacity:0.4769"/>
	<stop  offset="0.7677" style="stop-color:#545452;stop-opacity:0.3858"/>
	<stop  offset="0.8752" style="stop-color:#323231;stop-opacity:0.2998"/>
	<stop  offset="0.9758" style="stop-color:#0B0B0A;stop-opacity:0.2193"/>
	<stop  offset="1" style="stop-color:#000000;stop-opacity:0.2"/>
</linearGradient>
<path class="st43" d="M-222.5,252H-266v96h43.5c3.6,0,6.5-2.9,6.5-6.5v-83.1C-216,254.9-218.9,252-222.5,252z"/>
<g>
	
		<linearGradient id="SVGID_38_" gradientUnits="userSpaceOnUse" x1="-1534.5" y1="265" x2="-1534.5" y2="336" gradientTransform="matrix(-1 0 0 1 -1816 1)">
		<stop  offset="0" style="stop-color:#000000;stop-opacity:0.1"/>
		<stop  offset="0.9986" style="stop-color:#000000;stop-opacity:5.000000e-02"/>
	</linearGradient>
	<path class="st44" d="M-276.7,337h5.7v-71h-5.7c-8.5,0-15.3,6.9-15.3,15.3v40.3C-292,330.1-285.1,337-276.7,337z"/>
</g>
<g>
	
		<linearGradient id="SVGID_39_" gradientUnits="userSpaceOnUse" x1="-1534.5" y1="107" x2="-1534.5" y2="222" gradientTransform="matrix(-1 0 0 1 -1816 1)">
		<stop  offset="0" style="stop-color:#000000;stop-opacity:0.1"/>
		<stop  offset="0.9986" style="stop-color:#000000;stop-opacity:5.000000e-02"/>
	</linearGradient>
	<path class="st45" d="M-276.7,223h5.7V108h-5.7c-8.5,0-15.3,6.9-15.3,15.3v84.3C-292,216.1-285.1,223-276.7,223z"/>
</g>
<linearGradient id="SVGID_40_" gradientUnits="userSpaceOnUse" x1="-238.5" y1="181" x2="-238.5" y2="252" gradientTransform="matrix(1 0 0 -1 -19 518)">
	<stop  offset="0" style="stop-color:#1A1A1A"/>
	<stop  offset="1" style="stop-color:#333333"/>
</linearGradient>
<rect x="-267" y="266" class="st46" width="19" height="71"/>
<linearGradient id="SVGID_41_" gradientUnits="userSpaceOnUse" x1="-301.5" y1="396" x2="-301.5" y2="406.96" gradientTransform="matrix(-1 0 0 1 -528 0)">
	<stop  offset="0" style="stop-color:#000000;stop-opacity:0.3"/>
	<stop  offset="0.9986" style="stop-color:#000000;stop-opacity:0"/>
</linearGradient>
<polygon class="st47" points="-264,407 -189,407 -189,396 -264,396 "/>
<linearGradient id="SVGID_42_" gradientUnits="userSpaceOnUse" x1="-301.5" y1="417.92" x2="-301.5" y2="428.88" gradientTransform="matrix(-1 0 0 1 -528 0)">
	<stop  offset="0" style="stop-color:#000000;stop-opacity:0.3"/>
	<stop  offset="0.9986" style="stop-color:#000000;stop-opacity:0"/>
</linearGradient>
<polygon class="st48" points="-264,428.9 -189,428.9 -189,417.9 -264,417.9 "/>
<linearGradient id="SVGID_43_" gradientUnits="userSpaceOnUse" x1="-301.5" y1="439.84" x2="-301.5" y2="450.8" gradientTransform="matrix(-1 0 0 1 -528 0)">
	<stop  offset="0" style="stop-color:#000000;stop-opacity:0.3"/>
	<stop  offset="0.9986" style="stop-color:#000000;stop-opacity:0"/>
</linearGradient>
<polygon class="st49" points="-264,450.8 -189,450.8 -189,439.8 -264,439.8 "/>
<linearGradient id="SVGID_44_" gradientUnits="userSpaceOnUse" x1="-301.5" y1="461.76" x2="-301.5" y2="472.72" gradientTransform="matrix(-1 0 0 1 -528 0)">
	<stop  offset="0" style="stop-color:#000000;stop-opacity:0.3"/>
	<stop  offset="0.9986" style="stop-color:#000000;stop-opacity:0"/>
</linearGradient>
<polygon class="st50" points="-264,472.7 -189,472.7 -189,461.8 -264,461.8 "/>
<linearGradient id="SVGID_45_" gradientUnits="userSpaceOnUse" x1="-301.5" y1="483.68" x2="-301.5" y2="494.64" gradientTransform="matrix(-1 0 0 1 -528 0)">
	<stop  offset="0" style="stop-color:#000000;stop-opacity:0.3"/>
	<stop  offset="0.9986" style="stop-color:#000000;stop-opacity:0"/>
</linearGradient>
<polygon class="st51" points="-264,494.6 -189,494.6 -189,483.7 -264,483.7 "/>
<linearGradient id="SVGID_46_" gradientUnits="userSpaceOnUse" x1="-301.5" y1="505.6" x2="-301.5" y2="516.56" gradientTransform="matrix(-1 0 0 1 -528 0)">
	<stop  offset="0" style="stop-color:#000000;stop-opacity:0.3"/>
	<stop  offset="0.9986" style="stop-color:#000000;stop-opacity:0"/>
</linearGradient>
<polygon class="st52" points="-264,516.6 -189,516.6 -189,505.6 -264,505.6 "/>
<linearGradient id="SVGID_47_" gradientUnits="userSpaceOnUse" x1="-301.5" y1="527.52" x2="-301.5" y2="538.48" gradientTransform="matrix(-1 0 0 1 -528 0)">
	<stop  offset="0" style="stop-color:#000000;stop-opacity:0.3"/>
	<stop  offset="0.9986" style="stop-color:#000000;stop-opacity:0"/>
</linearGradient>
<polygon class="st53" points="-264,538.5 -189,538.5 -189,527.5 -264,527.5 "/>
<linearGradient id="SVGID_48_" gradientUnits="userSpaceOnUse" x1="-301.5" y1="549.44" x2="-301.5" y2="560.4" gradientTransform="matrix(-1 0 0 1 -528 0)">
	<stop  offset="0" style="stop-color:#000000;stop-opacity:0.3"/>
	<stop  offset="0.9986" style="stop-color:#000000;stop-opacity:0"/>
</linearGradient>
<polygon class="st54" points="-264,560.4 -189,560.4 -189,549.4 -264,549.4 "/>
<linearGradient id="SVGID_49_" gradientUnits="userSpaceOnUse" x1="-301.5" y1="571.36" x2="-301.5" y2="582.32" gradientTransform="matrix(-1 0 0 1 -528 0)">
	<stop  offset="0" style="stop-color:#000000;stop-opacity:0.3"/>
	<stop  offset="0.9986" style="stop-color:#000000;stop-opacity:0"/>
</linearGradient>
<polygon class="st55" points="-264,582.3 -189,582.3 -189,571.4 -264,571.4 "/>
<linearGradient id="SVGID_50_" gradientUnits="userSpaceOnUse" x1="-301.5" y1="593.28" x2="-301.5" y2="604.24" gradientTransform="matrix(-1 0 0 1 -528 0)">
	<stop  offset="0" style="stop-color:#000000;stop-opacity:0.3"/>
	<stop  offset="0.9986" style="stop-color:#000000;stop-opacity:0"/>
</linearGradient>
<polygon class="st56" points="-264,604.2 -189,604.2 -189,593.3 -264,593.3 "/>
<linearGradient id="SVGID_51_" gradientUnits="userSpaceOnUse" x1="-301.5" y1="615.2" x2="-301.5" y2="626.16" gradientTransform="matrix(-1 0 0 1 -528 0)">
	<stop  offset="0" style="stop-color:#000000;stop-opacity:0.3"/>
	<stop  offset="0.9986" style="stop-color:#000000;stop-opacity:0"/>
</linearGradient>
<polygon class="st57" points="-264,626.2 -189,626.2 -189,615.2 -264,615.2 "/>
<linearGradient id="SVGID_52_" gradientUnits="userSpaceOnUse" x1="-301.5" y1="637.12" x2="-301.5" y2="648.08" gradientTransform="matrix(-1 0 0 1 -528 0)">
	<stop  offset="0" style="stop-color:#000000;stop-opacity:0.3"/>
	<stop  offset="0.9986" style="stop-color:#000000;stop-opacity:0"/>
</linearGradient>
<polygon class="st58" points="-264,648.1 -189,648.1 -189,637.1 -264,637.1 "/>
<linearGradient id="SVGID_53_" gradientUnits="userSpaceOnUse" x1="-301.5" y1="659.04" x2="-301.5" y2="670" gradientTransform="matrix(-1 0 0 1 -528 0)">
	<stop  offset="0" style="stop-color:#000000;stop-opacity:0.3"/>
	<stop  offset="0.9986" style="stop-color:#000000;stop-opacity:0"/>
</linearGradient>
<polygon class="st59" points="-264,670 -189,670 -189,659 -264,659 "/>
<g>
	<path d="M-237.9,124.7l10.4,10.1c0.9,0.9,1.5,2.1,1.5,3.4v53.6c0,1.2-0.5,2.4-1.3,3.3l-10.5,10.9c-0.9,0.9-2.1,1.5-3.4,1.5h-22.4
		c-2.6,0-4.8-2.1-4.8-4.8v-74.6c0-2.6,2.1-4.8,4.8-4.8h22.5C-240,123.4-238.8,123.9-237.9,124.7z"/>
	
		<linearGradient id="SVGID_54_" gradientUnits="userSpaceOnUse" x1="-461.6562" y1="39.25" x2="-542.2292" y2="39.25" gradientTransform="matrix(6.123234e-17 -1 1 6.123234e-17 -286.5 -336.5)">
		<stop  offset="0" style="stop-color:#A09F9C;stop-opacity:0.6"/>
		<stop  offset="0.1275" style="stop-color:#8B8A87;stop-opacity:0.5173"/>
		<stop  offset="0.3904" style="stop-color:#555251;stop-opacity:0.3469"/>
		<stop  offset="0.5804" style="stop-color:#2A2727;stop-opacity:0.2237"/>
		<stop  offset="1" style="stop-color:#000000;stop-opacity:0.2"/>
	</linearGradient>
	<path class="st60" d="M-263.7,205.7c-1.6,0-3-1.3-3-3v-74.6c0-1.6,1.3-3,3-3h22.5c0.8,0,1.5,0.3,2.1,0.8l10.4,10.1
		c0.6,0.6,0.9,1.3,0.9,2.2v53.6c0,0.8-0.3,1.5-0.8,2.1l-10.5,10.9c-0.6,0.6-1.3,0.9-2.2,0.9H-263.7z"/>
	<g>
		<polygon points="-263.2,202.2 -263.2,128.7 -241.4,128.7 -231.3,138.5 -231.3,191.6 -241.5,202.2 		"/>
	</g>
	<rect x="-250.3" y="146" class="st61" width="5.3" height="35.4"/>
</g>
<g>
	<rect x="-778" y="-117" class="st0" width="429" height="150"/>
</g>
<g>
	
		<linearGradient id="SVGID_55_" gradientUnits="userSpaceOnUse" x1="-487.5" y1="360" x2="-560.5" y2="360" gradientTransform="matrix(6.123234e-17 -1 1 6.123234e-17 -923.5 -593.5)">
		<stop  offset="0" style="stop-color:#000000;stop-opacity:0.2"/>
		<stop  offset="0.9721" style="stop-color:#000000;stop-opacity:0.3"/>
	</linearGradient>
	<rect x="-778" y="-38" class="st62" width="429" height="5"/>
</g>
<g>
	<path class="st63" d="M-432-117h-255v30.7c0,4,3.3,7.3,7.3,7.3h240.4c4,0,7.3-3.3,7.3-7.3V-117z"/>
</g>
<linearGradient id="SVGID_56_" gradientUnits="userSpaceOnUse" x1="-663.3688" y1="-97.0764" x2="-687.6312" y2="-97.9236">
	<stop  offset="0" style="stop-color:#000000;stop-opacity:0.2"/>
	<stop  offset="0" style="stop-color:#040404;stop-opacity:0.6"/>
	<stop  offset="4.443688e-02" style="stop-color:#0E0E0E;stop-opacity:0.5763"/>
	<stop  offset="0.2797" style="stop-color:#3D3D3D;stop-opacity:0.4507"/>
	<stop  offset="0.4597" style="stop-color:#5B5B5B;stop-opacity:0.3546"/>
	<stop  offset="0.5619" style="stop-color:#666666;stop-opacity:0.3"/>
</linearGradient>
<rect x="-687" y="-116" class="st64" width="23" height="37"/>
<g>
	<rect x="-687" y="-111" width="255" height="2"/>
</g>
<linearGradient id="SVGID_57_" gradientUnits="userSpaceOnUse" x1="-374" y1="0" x2="-366" y2="0">
	<stop  offset="0" style="stop-color:#000000;stop-opacity:0.2"/>
	<stop  offset="0.9721" style="stop-color:#000000;stop-opacity:0.3"/>
</linearGradient>
<rect x="-374" y="-33" class="st65" width="8" height="66"/>
<linearGradient id="SVGID_58_" gradientUnits="userSpaceOnUse" x1="-751.5" y1="33" x2="-751.5" y2="-33">
	<stop  offset="0" style="stop-color:#9E9D9A"/>
	<stop  offset="1.722485e-02" style="stop-color:#9A9997;stop-opacity:0.9876"/>
	<stop  offset="0.3532" style="stop-color:#595856;stop-opacity:0.7457"/>
	<stop  offset="0.6355" style="stop-color:#292828;stop-opacity:0.5424"/>
	<stop  offset="0.8503" style="stop-color:#0B0B0B;stop-opacity:0.3877"/>
	<stop  offset="0.9721" style="stop-color:#000000;stop-opacity:0.3"/>
</linearGradient>
<rect x="-755" y="-33" class="st66" width="7" height="66"/>
<g>
	<path d="M-675.2-38h-64.6c-1.8,0-3.2-1.4-3.2-3.2v-22.6c0-1.8,1.4-3.2,3.2-3.2h64.6c1.8,0,3.2,1.4,3.2,3.2v22.6
		C-672-39.4-673.4-38-675.2-38z"/>
</g>
<path class="st67" d="M-739.4-38h22.8c2,0,3.6-1.6,3.6-3.6v-21.8c0-2-1.6-3.6-3.6-3.6h-22.8c-2,0-3.6,1.6-3.6,3.6v21.8
	C-743-39.6-741.4-38-739.4-38z"/>
<linearGradient id="SVGID_59_" gradientUnits="userSpaceOnUse" x1="-728" y1="-41" x2="-728" y2="-65" gradientTransform="matrix(-1 0 0 -1 -1456 -106)">
	<stop  offset="0" style="stop-color:#333333"/>
	<stop  offset="0.1611" style="stop-color:#282828;stop-opacity:0.884"/>
	<stop  offset="0.6778" style="stop-color:#0B0B0B;stop-opacity:0.5119"/>
	<stop  offset="0.9721" style="stop-color:#000000;stop-opacity:0.3"/>
</linearGradient>
<path class="st68" d="M-728-65L-728-65c6.6,0,12,5.4,12,12v0c0,6.6-5.4,12-12,12l0,0c-6.6,0-12-5.4-12-12v0
	C-740-59.6-734.6-65-728-65z"/>
<linearGradient id="SVGID_60_" gradientUnits="userSpaceOnUse" x1="-723.5" y1="33" x2="-723.5" y2="-33">
	<stop  offset="0" style="stop-color:#7F7D7B"/>
	<stop  offset="0.2409" style="stop-color:#585755;stop-opacity:0.8266"/>
	<stop  offset="0.5731" style="stop-color:#292827;stop-opacity:0.5873"/>
	<stop  offset="0.8276" style="stop-color:#0B0B0B;stop-opacity:0.404"/>
	<stop  offset="0.9721" style="stop-color:#000000;stop-opacity:0.3"/>
</linearGradient>
<rect x="-726" y="-33" class="st69" width="5" height="66"/>
<linearGradient id="SVGID_61_" gradientUnits="userSpaceOnUse" x1="-714.1481" y1="33" x2="-714.1481" y2="-33">
	<stop  offset="0" style="stop-color:#7F7D7B"/>
	<stop  offset="0.2409" style="stop-color:#585755;stop-opacity:0.8266"/>
	<stop  offset="0.5731" style="stop-color:#292827;stop-opacity:0.5873"/>
	<stop  offset="0.8276" style="stop-color:#0B0B0B;stop-opacity:0.404"/>
	<stop  offset="0.9721" style="stop-color:#000000;stop-opacity:0.3"/>
</linearGradient>
<rect x="-716.6" y="-33" class="st70" width="5" height="66"/>
<linearGradient id="SVGID_62_" gradientUnits="userSpaceOnUse" x1="-704.6643" y1="33" x2="-704.6643" y2="-33">
	<stop  offset="0" style="stop-color:#7F7D7B"/>
	<stop  offset="0.2409" style="stop-color:#585755;stop-opacity:0.8266"/>
	<stop  offset="0.5731" style="stop-color:#292827;stop-opacity:0.5873"/>
	<stop  offset="0.8276" style="stop-color:#0B0B0B;stop-opacity:0.404"/>
	<stop  offset="0.9721" style="stop-color:#000000;stop-opacity:0.3"/>
</linearGradient>
<rect x="-707.2" y="-33" class="st71" width="5" height="66"/>
</svg>
