<?xml version="1.0" encoding="utf-8"?>
<!-- Generator: Adobe Illustrator 23.0.2, SVG Export Plug-In . SVG Version: 6.00 Build 0)  -->
<svg version="1.1" id="Layer_1" xmlns="http://www.w3.org/2000/svg" xmlns:xlink="http://www.w3.org/1999/xlink" x="0px" y="0px"
	 viewBox="0 0 150 630" style="enable-background:new 0 0 150 630;" xml:space="preserve">
<style type="text/css">
	.st0{fill:#A09F9C;}
	.st1{fill:url(#SVGID_1_);}
	.st2{fill:url(#SVGID_2_);}
	.st3{fill:url(#SVGID_3_);}
	.st4{fill:url(#SVGID_4_);}
	.st5{fill:url(#SVGID_5_);}
	.st6{fill:url(#SVGID_6_);}
	.st7{fill:url(#SVGID_7_);}
	.st8{fill:url(#SVGID_8_);}
	.st9{fill:url(#SVGID_9_);}
	.st10{fill:url(#SVGID_10_);}
	.st11{fill:url(#SVGID_11_);}
	.st12{fill:url(#SVGID_12_);}
	.st13{fill:url(#SVGID_13_);}
	.st14{fill:url(#SVGID_14_);}
	.st15{fill:url(#SVGID_15_);}
	.st16{fill:url(#SVGID_16_);}
	.st17{fill:url(#SVGID_17_);}
	.st18{fill:url(#SVGID_18_);}
	.st19{fill:url(#SVGID_19_);}
	.st20{fill:#212121;}
</style>
<g>
	<rect class="st0" width="150" height="630"/>
</g>
<linearGradient id="SVGID_1_" gradientUnits="userSpaceOnUse" x1="-408" y1="689" x2="-481" y2="689" gradientTransform="matrix(-1 0 0 -1 -408 1002)">
	<stop  offset="0" style="stop-color:#000000;stop-opacity:0.2"/>
	<stop  offset="0.9721" style="stop-color:#000000;stop-opacity:0.3"/>
</linearGradient>
<polygon class="st1" points="0,25 68,25 68,0 73,0 73,25 73,33 73,626 68,626 68,33 0,33 "/>
<linearGradient id="SVGID_2_" gradientUnits="userSpaceOnUse" x1="172.1954" y1="3265.4595" x2="97.1586" y2="3233.6084" gradientTransform="matrix(1 0 0 1 -38 -2989)">
	<stop  offset="0" style="stop-color:#A09F9C"/>
	<stop  offset="0.2371" style="stop-color:#9D9C99;stop-opacity:0.8103"/>
	<stop  offset="0.3956" style="stop-color:#949391;stop-opacity:0.6835"/>
	<stop  offset="0.5312" style="stop-color:#858482;stop-opacity:0.5751"/>
	<stop  offset="0.6538" style="stop-color:#706F6D;stop-opacity:0.4769"/>
	<stop  offset="0.7677" style="stop-color:#545452;stop-opacity:0.3858"/>
	<stop  offset="0.8752" style="stop-color:#323231;stop-opacity:0.2998"/>
	<stop  offset="0.9758" style="stop-color:#0B0B0A;stop-opacity:0.2193"/>
	<stop  offset="1" style="stop-color:#000000;stop-opacity:0.2"/>
</linearGradient>
<path class="st2" d="M116.5,212H73v96h43.5c3.6,0,6.5-2.9,6.5-6.5v-83.1C123,214.9,120.1,212,116.5,212z"/>
<g>
	
		<linearGradient id="SVGID_3_" gradientUnits="userSpaceOnUse" x1="-1753.5" y1="777" x2="-1753.5" y2="706" gradientTransform="matrix(-1 0 0 -1 -1696 1003)">
		<stop  offset="0" style="stop-color:#000000;stop-opacity:0.1"/>
		<stop  offset="0.9986" style="stop-color:#000000;stop-opacity:5.000000e-02"/>
	</linearGradient>
	<path class="st3" d="M62.3,297H68v-71h-5.7c-8.5,0-15.3,6.9-15.3,15.3v40.3C47,290.1,53.9,297,62.3,297z"/>
</g>
<g>
	
		<linearGradient id="SVGID_4_" gradientUnits="userSpaceOnUse" x1="-1753.5" y1="935" x2="-1753.5" y2="820" gradientTransform="matrix(-1 0 0 -1 -1696 1003)">
		<stop  offset="0" style="stop-color:#000000;stop-opacity:0.1"/>
		<stop  offset="0.9986" style="stop-color:#000000;stop-opacity:5.000000e-02"/>
	</linearGradient>
	<path class="st4" d="M62.3,183H68V68h-5.7C53.8,68,47,74.9,47,83.3v84.3C47,176.1,53.9,183,62.3,183z"/>
</g>
<linearGradient id="SVGID_5_" gradientUnits="userSpaceOnUse" x1="100.5" y1="3287" x2="100.5" y2="3216" gradientTransform="matrix(1 0 0 1 -19 -2990)">
	<stop  offset="0" style="stop-color:#1A1A1A"/>
	<stop  offset="1" style="stop-color:#333333"/>
</linearGradient>
<rect x="72" y="226" class="st5" width="19" height="71"/>
<linearGradient id="SVGID_6_" gradientUnits="userSpaceOnUse" x1="-520.5" y1="646" x2="-520.5" y2="635.04" gradientTransform="matrix(-1 0 0 -1 -408 1002)">
	<stop  offset="0" style="stop-color:#000000;stop-opacity:0.3"/>
	<stop  offset="0.9986" style="stop-color:#000000;stop-opacity:0"/>
</linearGradient>
<polygon class="st6" points="75,367 150,367 150,356 75,356 "/>
<linearGradient id="SVGID_7_" gradientUnits="userSpaceOnUse" x1="-520.5" y1="624.08" x2="-520.5" y2="613.12" gradientTransform="matrix(-1 0 0 -1 -408 1002)">
	<stop  offset="0" style="stop-color:#000000;stop-opacity:0.3"/>
	<stop  offset="0.9986" style="stop-color:#000000;stop-opacity:0"/>
</linearGradient>
<polygon class="st7" points="75,388.9 150,388.9 150,377.9 75,377.9 "/>
<linearGradient id="SVGID_8_" gradientUnits="userSpaceOnUse" x1="-520.5" y1="602.16" x2="-520.5" y2="591.2" gradientTransform="matrix(-1 0 0 -1 -408 1002)">
	<stop  offset="0" style="stop-color:#000000;stop-opacity:0.3"/>
	<stop  offset="0.9986" style="stop-color:#000000;stop-opacity:0"/>
</linearGradient>
<polygon class="st8" points="75,410.8 150,410.8 150,399.8 75,399.8 "/>
<linearGradient id="SVGID_9_" gradientUnits="userSpaceOnUse" x1="-520.5" y1="580.24" x2="-520.5" y2="569.28" gradientTransform="matrix(-1 0 0 -1 -408 1002)">
	<stop  offset="0" style="stop-color:#000000;stop-opacity:0.3"/>
	<stop  offset="0.9986" style="stop-color:#000000;stop-opacity:0"/>
</linearGradient>
<polygon class="st9" points="75,432.7 150,432.7 150,421.8 75,421.8 "/>
<linearGradient id="SVGID_10_" gradientUnits="userSpaceOnUse" x1="-520.5" y1="558.32" x2="-520.5" y2="547.36" gradientTransform="matrix(-1 0 0 -1 -408 1002)">
	<stop  offset="0" style="stop-color:#000000;stop-opacity:0.3"/>
	<stop  offset="0.9986" style="stop-color:#000000;stop-opacity:0"/>
</linearGradient>
<polygon class="st10" points="75,454.6 150,454.6 150,443.7 75,443.7 "/>
<linearGradient id="SVGID_11_" gradientUnits="userSpaceOnUse" x1="-520.5" y1="536.4" x2="-520.5" y2="525.44" gradientTransform="matrix(-1 0 0 -1 -408 1002)">
	<stop  offset="0" style="stop-color:#000000;stop-opacity:0.3"/>
	<stop  offset="0.9986" style="stop-color:#000000;stop-opacity:0"/>
</linearGradient>
<polygon class="st11" points="75,476.6 150,476.6 150,465.6 75,465.6 "/>
<linearGradient id="SVGID_12_" gradientUnits="userSpaceOnUse" x1="-520.5" y1="514.48" x2="-520.5" y2="503.52" gradientTransform="matrix(-1 0 0 -1 -408 1002)">
	<stop  offset="0" style="stop-color:#000000;stop-opacity:0.3"/>
	<stop  offset="0.9986" style="stop-color:#000000;stop-opacity:0"/>
</linearGradient>
<polygon class="st12" points="75,498.5 150,498.5 150,487.5 75,487.5 "/>
<linearGradient id="SVGID_13_" gradientUnits="userSpaceOnUse" x1="-520.5" y1="492.56" x2="-520.5" y2="481.6" gradientTransform="matrix(-1 0 0 -1 -408 1002)">
	<stop  offset="0" style="stop-color:#000000;stop-opacity:0.3"/>
	<stop  offset="0.9986" style="stop-color:#000000;stop-opacity:0"/>
</linearGradient>
<polygon class="st13" points="75,520.4 150,520.4 150,509.4 75,509.4 "/>
<linearGradient id="SVGID_14_" gradientUnits="userSpaceOnUse" x1="-520.5" y1="470.64" x2="-520.5" y2="459.68" gradientTransform="matrix(-1 0 0 -1 -408 1002)">
	<stop  offset="0" style="stop-color:#000000;stop-opacity:0.3"/>
	<stop  offset="0.9986" style="stop-color:#000000;stop-opacity:0"/>
</linearGradient>
<polygon class="st14" points="75,542.3 150,542.3 150,531.4 75,531.4 "/>
<linearGradient id="SVGID_15_" gradientUnits="userSpaceOnUse" x1="-520.5" y1="448.72" x2="-520.5" y2="437.76" gradientTransform="matrix(-1 0 0 -1 -408 1002)">
	<stop  offset="0" style="stop-color:#000000;stop-opacity:0.3"/>
	<stop  offset="0.9986" style="stop-color:#000000;stop-opacity:0"/>
</linearGradient>
<polygon class="st15" points="75,564.2 150,564.2 150,553.3 75,553.3 "/>
<linearGradient id="SVGID_16_" gradientUnits="userSpaceOnUse" x1="-520.5" y1="426.8" x2="-520.5" y2="415.84" gradientTransform="matrix(-1 0 0 -1 -408 1002)">
	<stop  offset="0" style="stop-color:#000000;stop-opacity:0.3"/>
	<stop  offset="0.9986" style="stop-color:#000000;stop-opacity:0"/>
</linearGradient>
<polygon class="st16" points="75,586.2 150,586.2 150,575.2 75,575.2 "/>
<linearGradient id="SVGID_17_" gradientUnits="userSpaceOnUse" x1="-520.5" y1="404.88" x2="-520.5" y2="393.92" gradientTransform="matrix(-1 0 0 -1 -408 1002)">
	<stop  offset="0" style="stop-color:#000000;stop-opacity:0.3"/>
	<stop  offset="0.9986" style="stop-color:#000000;stop-opacity:0"/>
</linearGradient>
<polygon class="st17" points="75,608.1 150,608.1 150,597.1 75,597.1 "/>
<linearGradient id="SVGID_18_" gradientUnits="userSpaceOnUse" x1="-520.5" y1="382.96" x2="-520.5" y2="372" gradientTransform="matrix(-1 0 0 -1 -408 1002)">
	<stop  offset="0" style="stop-color:#000000;stop-opacity:0.3"/>
	<stop  offset="0.9986" style="stop-color:#000000;stop-opacity:0"/>
</linearGradient>
<polygon class="st18" points="75,630 150,630 150,619 75,619 "/>
<g>
	<path d="M101.1,84.7l10.4,10.1c0.9,0.9,1.5,2.1,1.5,3.4v53.6c0,1.2-0.5,2.4-1.3,3.3L101.2,166c-0.9,0.9-2.1,1.5-3.4,1.5H75.4
		c-2.6,0-4.8-2.1-4.8-4.8V88.1c0-2.6,2.1-4.8,4.8-4.8h22.5C99,83.4,100.2,83.9,101.1,84.7z"/>
	
		<linearGradient id="SVGID_19_" gradientUnits="userSpaceOnUse" x1="-1614.6" y1="1936.75" x2="-1695.2001" y2="1936.75" gradientTransform="matrix(6.123234e-17 -1 -1 -6.123234e-17 2028.5 -1529.5)">
		<stop  offset="0" style="stop-color:#A09F9C;stop-opacity:0.6"/>
		<stop  offset="0.1275" style="stop-color:#8B8A87;stop-opacity:0.5173"/>
		<stop  offset="0.3904" style="stop-color:#555251;stop-opacity:0.3469"/>
		<stop  offset="0.5804" style="stop-color:#2A2727;stop-opacity:0.2237"/>
		<stop  offset="1" style="stop-color:#000000;stop-opacity:0.2"/>
	</linearGradient>
	<path class="st19" d="M75.3,165.7c-1.6,0-3-1.3-3-3V88.1c0-1.6,1.3-3,3-3h22.5c0.8,0,1.5,0.3,2.1,0.8L110.3,96
		c0.6,0.6,0.9,1.3,0.9,2.2v53.6c0,0.8-0.3,1.5-0.8,2.1l-10.5,10.9c-0.6,0.6-1.3,0.9-2.2,0.9L75.3,165.7L75.3,165.7z"/>
	<g>
		<polygon points="75.8,162.2 75.8,88.7 97.6,88.7 107.7,98.5 107.7,151.6 97.5,162.2 		"/>
	</g>
	<rect x="88.7" y="106" class="st20" width="5.3" height="35.4"/>
</g>
</svg>
