<?xml version="1.0" encoding="utf-8"?>
<!-- Generator: Adobe Illustrator 23.0.2, SVG Export Plug-In . SVG Version: 6.00 Build 0)  -->
<svg version="1.1" id="Layer_1" xmlns="http://www.w3.org/2000/svg" xmlns:xlink="http://www.w3.org/1999/xlink" x="0px" y="0px"
	 viewBox="0 0 429 150" style="enable-background:new 0 0 429 150;" xml:space="preserve">
<style type="text/css">
	.st0{fill:#A09F9C;}
	.st1{fill:url(#SVGID_1_);}
	.st2{fill:#6B6B6B;}
	.st3{fill:url(#SVGID_2_);}
	.st4{fill:url(#SVGID_3_);}
	.st5{fill:url(#SVGID_4_);}
	.st6{fill:#161616;}
	.st7{fill:url(#SVGID_5_);}
	.st8{fill:url(#SVGID_6_);}
	.st9{fill:url(#SVGID_7_);}
	.st10{fill:url(#SVGID_8_);}
</style>
<g>
	<rect class="st0" width="429" height="150"/>
</g>
<g>
	
		<linearGradient id="SVGID_1_" gradientUnits="userSpaceOnUse" x1="446.3973" y1="632.8973" x2="373.3973" y2="632.8973" gradientTransform="matrix(6.123234e-17 -1 1 6.123234e-17 -418.3973 457.3973)">
		<stop  offset="0" style="stop-color:#000000;stop-opacity:0.2"/>
		<stop  offset="0.9721" style="stop-color:#000000;stop-opacity:0.3"/>
	</linearGradient>
	<rect x="0" y="79" class="st1" width="429" height="5"/>
</g>
<g>
	<path class="st2" d="M346,0H91v30.7c0,4,3.3,7.3,7.3,7.3h240.4c4,0,7.3-3.3,7.3-7.3V0z"/>
</g>
<linearGradient id="SVGID_2_" gradientUnits="userSpaceOnUse" x1="114.6312" y1="19.9236" x2="90.3688" y2="19.0764">
	<stop  offset="0" style="stop-color:#000000;stop-opacity:0.2"/>
	<stop  offset="0" style="stop-color:#040404;stop-opacity:0.6"/>
	<stop  offset="4.443688e-02" style="stop-color:#0E0E0E;stop-opacity:0.5763"/>
	<stop  offset="0.2797" style="stop-color:#3D3D3D;stop-opacity:0.4507"/>
	<stop  offset="0.4597" style="stop-color:#5B5B5B;stop-opacity:0.3546"/>
	<stop  offset="0.5619" style="stop-color:#666666;stop-opacity:0.3"/>
</linearGradient>
<rect x="91" y="1" class="st3" width="23" height="37"/>
<g>
	<rect x="91" y="6" width="255" height="2"/>
</g>
<linearGradient id="SVGID_3_" gradientUnits="userSpaceOnUse" x1="404" y1="117" x2="412" y2="117">
	<stop  offset="0" style="stop-color:#000000;stop-opacity:0.2"/>
	<stop  offset="0.9721" style="stop-color:#000000;stop-opacity:0.3"/>
</linearGradient>
<rect x="404" y="84" class="st4" width="8" height="66"/>
<linearGradient id="SVGID_4_" gradientUnits="userSpaceOnUse" x1="26.5" y1="150" x2="26.5" y2="84">
	<stop  offset="0" style="stop-color:#9E9D9A"/>
	<stop  offset="1.722485e-02" style="stop-color:#9A9997;stop-opacity:0.9876"/>
	<stop  offset="0.3532" style="stop-color:#595856;stop-opacity:0.7457"/>
	<stop  offset="0.6355" style="stop-color:#292828;stop-opacity:0.5424"/>
	<stop  offset="0.8503" style="stop-color:#0B0B0B;stop-opacity:0.3877"/>
	<stop  offset="0.9721" style="stop-color:#000000;stop-opacity:0.3"/>
</linearGradient>
<rect x="23" y="84" class="st5" width="7" height="66"/>
<g>
	<path d="M102.8,79H38.2c-1.8,0-3.2-1.4-3.2-3.2V53.2c0-1.8,1.4-3.2,3.2-3.2h64.6c1.8,0,3.2,1.4,3.2,3.2v22.6
		C106,77.6,104.6,79,102.8,79z"/>
</g>
<path class="st6" d="M38.6,79h22.8c2,0,3.6-1.6,3.6-3.6V53.6c0-2-1.6-3.6-3.6-3.6H38.6c-2,0-3.6,1.6-3.6,3.6v21.8
	C35,77.4,36.6,79,38.6,79z"/>
<linearGradient id="SVGID_5_" gradientUnits="userSpaceOnUse" x1="50" y1="387.7946" x2="50" y2="363.7946" gradientTransform="matrix(-1 0 0 -1 100 439.7946)">
	<stop  offset="0" style="stop-color:#333333"/>
	<stop  offset="0.1611" style="stop-color:#282828;stop-opacity:0.884"/>
	<stop  offset="0.6778" style="stop-color:#0B0B0B;stop-opacity:0.5119"/>
	<stop  offset="0.9721" style="stop-color:#000000;stop-opacity:0.3"/>
</linearGradient>
<path class="st7" d="M50,52L50,52c6.6,0,12,5.4,12,12v0c0,6.6-5.4,12-12,12h0c-6.6,0-12-5.4-12-12v0C38,57.4,43.4,52,50,52z"/>
<linearGradient id="SVGID_6_" gradientUnits="userSpaceOnUse" x1="54.5" y1="150" x2="54.5" y2="84">
	<stop  offset="0" style="stop-color:#7F7D7B"/>
	<stop  offset="0.2409" style="stop-color:#585755;stop-opacity:0.8266"/>
	<stop  offset="0.5731" style="stop-color:#292827;stop-opacity:0.5873"/>
	<stop  offset="0.8276" style="stop-color:#0B0B0B;stop-opacity:0.404"/>
	<stop  offset="0.9721" style="stop-color:#000000;stop-opacity:0.3"/>
</linearGradient>
<rect x="52" y="84" class="st8" width="5" height="66"/>
<linearGradient id="SVGID_7_" gradientUnits="userSpaceOnUse" x1="63.8519" y1="150" x2="63.8519" y2="84">
	<stop  offset="0" style="stop-color:#7F7D7B"/>
	<stop  offset="0.2409" style="stop-color:#585755;stop-opacity:0.8266"/>
	<stop  offset="0.5731" style="stop-color:#292827;stop-opacity:0.5873"/>
	<stop  offset="0.8276" style="stop-color:#0B0B0B;stop-opacity:0.404"/>
	<stop  offset="0.9721" style="stop-color:#000000;stop-opacity:0.3"/>
</linearGradient>
<rect x="61.4" y="84" class="st9" width="5" height="66"/>
<linearGradient id="SVGID_8_" gradientUnits="userSpaceOnUse" x1="73.3357" y1="150" x2="73.3357" y2="84">
	<stop  offset="0" style="stop-color:#7F7D7B"/>
	<stop  offset="0.2409" style="stop-color:#585755;stop-opacity:0.8266"/>
	<stop  offset="0.5731" style="stop-color:#292827;stop-opacity:0.5873"/>
	<stop  offset="0.8276" style="stop-color:#0B0B0B;stop-opacity:0.404"/>
	<stop  offset="0.9721" style="stop-color:#000000;stop-opacity:0.3"/>
</linearGradient>
<rect x="70.8" y="84" class="st10" width="5" height="66"/>
</svg>
